<svg width="763" height="701" viewBox="0 0 763 701" fill="none" xmlns="http://www.w3.org/2000/svg">
<path opacity="0.27" d="M667.72 642.33C701.719 642.33 729.282 640.388 729.282 637.991C729.282 635.595 701.719 633.652 667.72 633.652C633.72 633.652 606.158 635.595 606.158 637.991C606.158 640.388 633.72 642.33 667.72 642.33Z" fill="#2D539D"/>
<path d="M427.86 370.7L432.454 376.629L185.555 638.556L0.498679 376.9L427.86 370.7Z" fill="url(#paint0_linear_2_795)"/>
<path d="M426.748 392.983L428.988 399.998L761.869 336.359L650.885 38.3438L426.748 392.983Z" fill="url(#paint1_linear_2_795)"/>
<path d="M567.76 32.5742C570.144 72.4928 572.529 112.339 574.913 152.258C628.021 154.717 681.056 157.175 734.164 159.562C734.887 118.341 735.609 77.0488 736.332 35.8285C680.117 34.7437 623.975 33.659 567.76 32.5742Z" fill="white" stroke="#141414" stroke-miterlimit="10"/>
<path d="M528.828 482.435L529.912 532.478L501.588 531.61V480.41L528.828 482.435Z" fill="#334898"/>
<path d="M415.82 395.728C415.965 395.511 416.109 395.294 416.254 395.077C420.878 395.655 424.78 394.932 426.514 389.725C426.225 389.147 425.069 390.087 424.708 388.93C428.537 389.725 430.56 386.182 433.74 385.459C459.029 384.229 484.318 384.085 509.608 383.578C518.712 383.361 526.371 391.533 526.732 401.441C527.31 416.265 527.527 431.163 527.961 446.06C527.961 447.145 528.9 500.369 529.189 502.467C526.732 500.514 524.348 498.634 521.891 496.681C520.518 495.524 519.29 493.716 517.773 493.355C515.822 492.848 515.244 495.813 513.51 496.464C511.776 492.487 510.692 488.293 509.752 484.098C509.536 483.23 509.391 482.001 508.235 482.146C506.862 482.363 507.151 483.737 507.368 484.677C508.018 488.003 506.284 488.51 503.611 488.076C503.466 486.846 502.744 485.689 503.033 484.387C502.96 482.146 502.96 479.904 502.888 477.662C502.166 472.383 502.166 467.032 502.31 461.752C502.455 456.835 504.839 454.593 509.68 453.581C512.643 452.93 515.605 452.134 518.568 451.773C521.241 451.484 522.036 450.543 521.964 447.795C521.53 436.948 521.385 426.173 521.169 415.325C521.096 411.348 521.096 411.348 517.267 411.42C488.437 412.071 459.607 412.722 430.777 413.3C428.393 413.373 427.815 413.951 427.887 416.338C428.465 435.429 428.971 454.593 429.404 473.685C430.416 514.977 431.5 556.198 432.439 597.49C432.511 599.877 433.162 600.455 435.546 600.383C450.503 599.949 465.46 599.587 480.417 599.226C494.579 598.937 508.741 598.647 522.903 598.43C524.926 598.43 525.793 597.924 525.649 595.682C525.36 591.416 525.432 587.221 525.287 582.955C524.781 561.621 524.276 540.288 523.842 518.955C525.865 520.546 527.961 522.137 529.984 523.728C530.706 551.786 531.357 579.845 532.152 607.976C532.296 613.689 531.212 619.041 527.455 623.524C524.348 627.285 520.374 629.454 515.388 629.599C490.46 630.177 465.46 630.683 440.532 631.262C435.907 629.96 432.367 627.14 429.477 623.452C433.089 615.859 431.933 610.869 425.936 607.47C425.936 604.722 425.936 601.974 425.936 599.226C431.789 593.007 431.572 586.787 425.358 581.798C425.358 580.93 425.43 580.062 425.43 579.194C426.37 574.566 426.37 569.938 425.43 565.382C425.43 562.2 425.719 558.946 425.286 555.836C424.13 547.23 425.43 538.625 424.202 530.019C425.43 527.054 424.491 523.944 424.78 520.907C424.13 514.471 424.057 508.035 424.202 501.526C423.913 498.128 424.852 494.656 423.624 491.257C423.768 487.786 422.54 484.315 422.974 480.844C423.913 476.216 423.913 471.587 422.974 467.032C423.19 463.56 421.89 460.089 422.323 456.618C423.263 451.773 423.263 447 422.323 442.155C422.468 438.684 421.239 435.212 421.673 431.741C422.612 427.113 422.612 422.485 421.673 417.929C421.89 414.458 420.589 410.986 421.023 407.515C421.89 405.924 422.034 404.333 421.023 402.742C421.167 402.381 421.167 401.947 421.384 401.585C423.696 397.029 423.118 396.017 418.205 396.017C417.41 395.728 416.615 395.728 415.82 395.728ZM487.281 401.151C488.003 398.91 486.269 399.271 485.258 399.416C480.922 399.922 476.659 399.994 472.324 399.994C471.529 399.994 470.084 399.488 470.084 400.717C470.084 402.019 471.674 401.947 472.541 401.73C475.214 401.079 477.96 401.151 480.633 401.224C482.873 402.091 485.041 402.236 487.281 401.151ZM488.582 612.894C488.582 607.687 484.752 603.42 480.272 603.493C475.865 603.565 472.18 607.831 472.18 612.821C472.18 617.956 476.009 622.222 480.561 622.15C485.041 622.15 488.582 618.028 488.582 612.894ZM462.208 402.308C463.003 402.164 463.437 401.658 463.437 400.934C463.437 399.994 462.859 399.416 461.919 399.56C460.98 399.633 460.546 400.283 460.691 401.224C460.835 401.947 461.413 402.308 462.208 402.308Z" fill="#334898"/>
<path d="M425.286 581.654C431.5 586.643 431.717 592.863 425.865 599.082C424.058 600.383 421.89 601.613 422.252 604.361C422.469 606.386 424.275 606.82 425.937 607.398C431.934 610.797 433.018 615.787 429.477 623.38C428.321 624.754 427.093 626.056 425.937 627.43C419.867 631.841 413.148 634.3 405.561 633.794C399.636 633.36 394.361 631.407 390.243 626.851C387.858 624.248 386.341 621.138 386.341 617.595C386.341 615.715 385.835 615.642 384.245 616.221C378.176 618.535 372.034 618.896 365.82 616.727C360.329 614.774 356.138 611.303 354.332 605.518C353.176 601.974 353.898 598.793 356.427 595.972C360.401 591.633 360.473 589.319 357.077 584.546C355.415 582.232 353.392 580.207 352.453 577.459C351.08 573.482 352.164 571.023 356.138 569.649C361.413 567.841 361.846 567.19 361.702 561.55C361.557 558.223 360.618 554.39 363.436 552.076C366.398 549.617 367.916 546.942 368.566 543.254C368.927 541.084 370.95 539.565 372.468 537.975C376.37 533.708 376.803 530.381 373.841 525.391C372.54 523.222 371.023 521.197 369.433 519.245C367.338 516.569 365.676 513.749 364.953 510.422C364.086 506.3 365.676 503.263 369.65 501.744C379.043 498.056 379.188 497.911 378.682 487.932C378.609 486.485 378.537 485.111 378.537 483.665C378.682 477.518 381.933 472.962 387.786 471.299C395.084 469.274 402.02 470.286 408.306 474.625C413.075 477.88 415.315 482.508 414.882 488.438C414.737 490.535 414.376 492.704 415.676 494.585C416.327 499.502 416.182 504.42 416.182 509.337C414.882 508.397 414.159 509.699 413.364 510.205C410.113 512.447 407.006 514.833 403.754 517.003C401.587 518.521 399.564 520.329 396.601 521.631C396.601 512.085 396.601 502.901 396.601 493.789C396.312 493.789 396.095 493.789 395.806 493.789C395.806 502.901 395.806 511.941 395.806 520.98C394.217 521.125 393.711 519.317 391.688 520.112C395.806 521.993 395.734 525.175 395.662 528.646C395.517 535.443 395.589 542.169 395.589 548.967C395.589 550.413 395.589 551.859 395.589 553.378C393.928 552.799 393.277 551.208 391.254 551.57C397.54 554.39 395.084 560.031 395.734 565.165C397.468 562.707 396.746 560.465 396.673 558.368C396.601 556.198 397.324 554.897 399.13 553.667C404.188 550.268 409.029 546.725 413.942 543.181C414.665 542.675 415.821 542.313 415.46 540.795C409.246 545.206 403.176 549.4 396.746 553.956C396.746 543.76 396.746 534.142 396.746 524.596C396.746 523.728 397.035 523.077 397.757 522.571C403.899 518.449 409.679 513.676 416.11 509.843C416.255 513.604 416.399 517.292 416.471 521.052C416.76 534.865 417.049 548.677 417.411 562.49C417.411 563.864 417.122 565.238 418.205 566.467C420.012 568.564 420.734 571.095 420.301 573.771C419.867 577.821 421.601 580.28 425.286 581.654ZM368.494 602.842C368.783 603.059 369.072 603.276 369.361 603.421C369.867 604.361 370.734 604.939 371.601 605.518C373.046 606.53 373.479 607.904 373.479 609.712C373.479 611.954 373.118 614.341 374.13 616.51C373.407 611.882 374.708 607.326 374.491 602.625C373.985 591.055 374.346 579.412 374.274 567.769C374.274 566.756 374.202 565.744 374.13 564.804C373.841 564.804 373.624 564.804 373.335 564.804C373.335 570.951 373.335 577.025 373.335 583.389C372.179 582.738 371.528 582.304 370.806 581.943C370.589 581.654 370.372 581.364 370.011 581.798C370.011 581.798 370.3 582.087 370.445 582.232C371.095 583.678 373.263 584.112 373.263 585.92C373.335 592.067 373.263 598.142 373.263 604.289C373.263 605.301 372.612 605.373 371.817 605.156C371.239 604.289 370.517 603.565 369.505 603.276C369.289 603.059 369.072 602.842 368.783 602.625C368.566 602.408 368.421 602.264 368.205 602.047C367.193 600.745 365.893 599.805 364.592 599.009C364.158 598.431 363.725 597.708 362.641 597.852C362.786 598.793 363.436 599.154 364.086 599.516C365.314 600.528 366.543 601.541 367.771 602.553C368.132 602.625 368.349 602.77 368.494 602.842ZM382.945 578.616C383.812 578.182 384.896 577.893 385.112 576.591C383.884 576.664 383.306 577.604 382.439 578.11C382.078 578.399 381.789 578.689 381.427 578.978C379.26 580.135 377.237 581.509 375.43 583.245C375.213 583.389 375.069 583.606 374.852 583.751C375.069 583.823 375.286 583.895 375.502 583.968C377.67 582.449 379.766 581.003 381.933 579.484C382.295 579.195 382.656 578.906 382.945 578.616ZM382.15 600.89C381.138 601.251 380.199 601.757 379.477 602.987C380.994 602.842 381.572 601.83 382.439 601.324C382.8 601.034 383.089 600.745 383.451 600.456C385.04 599.877 386.269 598.793 387.352 597.563C385.618 597.925 384.462 599.082 383.162 600.094C382.8 600.311 382.439 600.6 382.15 600.89ZM407.295 578.038C407.006 578.038 406.717 578.038 406.5 578.038C406.5 584.474 406.5 590.91 406.5 597.419C405.055 597.129 404.694 595.683 403.321 595.828C403.827 597.852 406.572 598.069 406.5 600.311C406.428 607.037 406.5 613.762 406.5 620.704C405.488 620.126 404.694 619.764 403.971 619.403C408.884 622.802 405.272 628.298 407.078 632.709C407.367 631.986 407.584 631.696 407.584 631.48C405.85 623.742 410.185 619.547 416.255 616.293C417.338 615.715 418.278 614.991 419.217 614.196C419.867 613.617 421.096 613.473 421.168 611.737C416.616 614.919 412.353 617.884 407.656 621.138C407.656 613.907 407.728 607.326 407.656 600.817C407.656 599.371 408.451 598.648 409.463 597.925C412.859 595.538 416.255 593.152 419.578 590.693C420.156 590.259 421.24 589.97 421.023 588.524C416.544 591.633 412.28 594.671 407.367 598.069C407.295 590.91 407.295 584.474 407.295 578.038ZM391.688 519.823C391.832 519.606 392.049 519.462 392.193 519.245C390.098 516.641 387.425 514.761 384.823 512.808C384.607 513.025 384.39 513.242 384.245 513.459C386.702 515.556 389.159 517.726 391.688 519.823ZM380.849 541.446C382.005 544.338 385.907 547.448 388.508 547.882C385.69 545.495 383.306 543.471 380.849 541.446ZM384.101 512.736C383.378 511.145 382.15 510.133 379.982 509.265C381.211 511.362 382.511 512.23 384.101 512.736ZM392.049 551.642C390.821 549.473 389.809 548.46 387.714 548.099C388.797 549.762 389.881 550.63 392.049 551.642Z" fill="#43A048"/>
<path d="M425.286 581.653C421.6 580.279 419.866 577.748 420.444 573.698C420.806 571.022 420.155 568.419 418.349 566.394C417.265 565.165 417.554 563.719 417.554 562.417C417.193 548.604 416.976 534.792 416.615 520.98C416.543 517.219 416.398 513.531 416.254 509.771C416.326 509.554 416.254 509.409 416.254 509.192C416.254 504.275 416.47 499.357 415.748 494.44C415.459 478.819 415.098 463.127 414.808 447.506C414.519 433.477 414.23 419.448 413.941 405.418C415.748 405.418 417.554 405.49 419.361 405.418C420.661 405.346 421.239 405.924 421.167 407.154C420.733 410.697 422.034 414.096 421.817 417.567C421.817 422.196 421.817 426.824 421.817 431.38C421.384 434.923 422.54 438.322 422.468 441.793C422.468 446.638 422.468 451.411 422.468 456.257C422.034 459.8 423.335 463.199 423.118 466.67C423.118 471.298 423.118 475.927 423.118 480.482C422.684 484.026 423.84 487.425 423.768 490.896C424.057 494.295 422.973 497.838 424.346 501.165C424.202 507.601 424.346 514.11 424.924 520.546C423.551 523.511 424.635 526.62 424.346 529.658C425.574 538.191 424.346 546.869 425.43 555.475C425.864 558.584 425.502 561.838 425.574 565.02C425.574 569.648 425.574 574.277 425.574 578.833C425.285 579.917 425.286 580.785 425.286 581.653Z" fill="#27398B"/>
<path d="M662.139 508.035C667.775 506.878 672.905 507.891 677.385 511.723C678.686 512.808 679.625 514.037 680.348 515.484C681.287 517.219 682.154 517.509 684.177 516.858C690.391 514.833 695.883 517.581 698.195 523.583C678.397 523.583 658.671 523.583 638.945 523.583C639.018 520.907 641.474 519.678 642.775 517.726C645.593 516.93 648.194 515.05 651.373 516.279C652.024 516.568 652.602 516.135 652.818 515.556C654.625 511.362 658.454 509.843 662.139 508.035Z" fill="#B1C5E7"/>
<path d="M599.277 430.295C590.389 430.295 581.502 430.295 572.542 430.295C571.675 430.295 570.591 430.729 570.086 429.716C569.58 428.704 570.591 428.053 571.025 427.33C573.265 423.931 576.589 422.484 580.563 422.484C582.08 422.484 583.308 422.412 584.464 420.893C591.184 411.637 603.901 411.709 610.26 421.038C611.705 423.135 612.716 423.786 615.317 422.846C619.797 421.255 625 423.569 627.601 427.691C628.757 429.499 628.685 430.295 626.228 430.295C617.268 430.222 608.309 430.295 599.277 430.295Z" fill="#B4C7E8"/>
<path d="M358.594 435.14C360.112 435.502 360.618 434.345 361.412 433.405C368.638 424.148 381.355 424.654 387.569 434.634C388.725 436.442 389.664 436.514 391.471 435.936C396.456 434.272 402.02 436.442 404.404 440.564C405.56 442.516 405.127 443.167 402.887 443.095C394.578 443.023 386.34 443.095 378.031 443.095C368.349 443.095 358.739 443.095 349.057 443.095C348.334 443.095 347.323 443.529 346.889 442.589C346.528 441.793 347.25 441.142 347.684 440.419C349.996 436.153 354.042 435.068 358.594 435.14Z" fill="#B1C5E7"/>
<path d="M358.594 435.14C354.042 435.068 349.996 436.152 347.539 440.419C347.178 441.07 346.383 441.793 346.744 442.589C347.178 443.456 348.189 443.095 348.912 443.095C358.594 443.095 368.204 443.095 377.886 443.095C378.537 444.396 380.488 445.626 379.765 446.855C379.043 448.085 376.947 447.289 375.502 447.289C358.088 447.361 340.675 447.289 323.261 447.289C322.394 447.289 321.166 447.795 320.732 446.928C320.299 445.987 321.166 445.047 321.744 444.252C324.128 441.07 327.524 439.19 331.426 439.624C333.738 439.84 334.605 438.973 335.689 437.454C340.386 430.584 350.935 428.993 357.438 434.055C358.016 434.272 358.233 434.778 358.594 435.14Z" fill="#C8D6EF"/>
<path d="M662.139 508.036C658.454 509.844 654.625 511.435 652.818 515.557C652.601 516.135 652.023 516.569 651.373 516.28C648.194 515.051 645.593 516.931 642.775 517.726C636.416 517.726 630.058 517.726 623.699 517.726C621.893 517.726 621.17 517.509 622.471 515.629C625 511.724 628.613 509.699 633.165 510.061C635.043 510.205 635.766 509.699 636.705 508.325C642.269 500.226 653.902 499.141 660.983 506.011C661.489 506.59 662.067 507.096 662.139 508.036Z" fill="#C8D6EF"/>
<path d="M415.82 395.729C416.615 395.729 417.41 395.729 418.204 395.729C423.19 395.729 423.768 396.741 421.384 401.297C421.239 401.658 421.167 402.02 421.022 402.454C421.167 404.189 420.589 405.057 418.638 404.913C417.048 404.768 415.459 404.913 413.797 404.913C413.58 401.586 414.519 398.621 415.82 395.729Z" fill="#27398B"/>
<path d="M433.812 385.53C430.633 386.254 428.537 389.725 424.78 389.002C425.141 390.159 426.297 389.218 426.586 389.797C424.852 395.004 420.878 395.727 416.326 395.148C419.505 388.206 425.575 384.952 433.812 385.53Z" fill="#27398B"/>
<path d="M425.791 627.356C426.947 625.982 428.175 624.681 429.332 623.307C432.222 627.067 435.762 629.815 440.387 631.117C435.112 631.768 430.054 631.117 425.791 627.356Z" fill="#27398B"/>
<path d="M413.869 404.767C415.459 404.767 417.121 404.623 418.71 404.767C420.661 404.984 421.239 404.116 421.095 402.309C422.106 403.9 421.962 405.491 421.095 407.081C421.167 405.78 420.589 405.274 419.288 405.346C417.482 405.418 415.676 405.346 413.869 405.346C413.869 405.201 413.869 404.984 413.869 404.767Z" fill="#4663AC"/>
<path d="M509.031 501.961C510.259 503.552 511.488 505.143 512.716 506.733C503.756 507.095 494.724 506.878 485.765 507.312C470.519 507.963 455.273 507.963 439.955 508.035C437.426 508.035 436.703 508.831 436.776 511.289C437.137 524.596 437.354 537.974 437.932 551.28C438.293 560.465 437.932 569.649 438.51 578.833C438.654 580.93 439.232 581.653 441.328 581.581C446.891 581.364 452.455 581.292 457.946 581.075C473.192 580.569 488.438 580.496 503.756 580.279C508.092 580.207 512.427 579.845 516.762 579.773C518.352 579.701 518.93 579.122 518.858 577.604C518.785 570.444 518.93 563.213 518.641 556.053C518.135 541.518 517.34 526.982 517.629 512.447C519.652 514.616 521.676 516.785 523.699 518.883C524.205 540.216 524.71 561.549 525.144 582.883C525.216 587.149 525.216 591.416 525.505 595.61C525.65 597.852 524.783 598.286 522.759 598.358C508.597 598.575 494.435 598.865 480.273 599.154C465.316 599.515 450.36 599.805 435.403 600.311C433.018 600.383 432.368 599.805 432.296 597.418C431.356 556.126 430.345 514.905 429.261 473.613C428.755 454.521 428.322 435.357 427.744 416.266C427.671 413.879 428.322 413.301 430.634 413.228C459.464 412.65 488.294 411.999 517.124 411.348C520.953 411.276 520.953 411.276 521.025 415.253C521.242 426.101 521.387 436.876 521.82 447.723C521.892 450.471 521.098 451.411 518.424 451.701C515.462 452.062 512.499 452.858 509.537 453.509C504.696 454.521 502.311 456.835 502.167 461.68C502.022 466.96 502.022 472.311 502.745 477.59C500.144 477.807 497.542 478.096 494.941 478.169C480.129 478.458 465.316 478.602 450.432 478.892C446.313 478.964 442.195 479.326 438.076 479.398C435.041 479.47 436.27 481.712 436.125 483.158C435.981 484.605 435.764 486.34 438.221 486.123C440.894 485.906 443.64 485.689 446.385 485.617C455.345 485.328 464.305 485.617 473.337 485.111C483.164 484.532 493.135 485.256 502.962 484.315C502.672 485.617 503.395 486.774 503.54 488.004C502.745 488.582 502.167 489.305 502.311 490.39C492.195 490.39 482.152 490.39 472.036 490.824C460.981 491.33 449.854 491.113 438.726 491.475C436.053 491.547 436.053 492.849 436.197 494.729C436.27 496.465 435.619 498.489 438.726 498.345C442.773 498.128 446.819 497.983 450.793 497.839C466.111 497.405 481.502 497.26 496.82 497.043C499.276 497.043 501.661 497.043 504.045 496.537C505.057 498.996 505.996 501.454 509.031 501.961ZM475.793 446.349C475.866 440.492 475.504 434.634 475.143 428.776C474.926 425.088 472.253 422.268 468.712 422.557C459.897 423.28 451.154 422.702 442.339 423.136C436.992 423.353 434.825 425.595 434.969 430.874C435.186 439.624 435.403 448.447 435.619 457.197C435.764 461.825 438.221 464.211 442.917 464.139C445.807 464.067 448.77 463.778 451.66 463.778C457.224 463.705 462.787 463.705 468.351 463.633C473.915 463.488 475.793 461.536 475.793 456.04C475.866 452.858 475.793 449.604 475.793 446.349ZM495.375 443.963C500.794 443.457 506.213 443.746 511.704 443.24C514.884 442.95 513.8 440.926 513.944 439.407C514.161 437.454 513.583 436.225 511.343 436.442C509.32 436.659 507.369 436.876 505.346 436.948C498.193 437.021 491.039 437.021 483.814 437.093C482.658 437.093 481.068 436.659 480.779 438.322C480.49 440.058 480.273 441.938 481.068 443.674C481.285 444.18 481.863 444.108 482.441 444.108C486.704 443.963 491.039 443.963 495.375 443.963ZM497.831 424.871C492.918 425.161 488.005 424.727 483.019 425.233C479.478 425.595 480.707 427.764 480.562 429.5C480.273 432.031 482.152 431.452 483.597 431.524C492.557 431.886 501.516 430.801 510.476 430.874C511.415 430.874 512.788 431.38 513.149 430.15C513.583 428.415 513.583 426.535 513.077 424.799C512.933 424.221 512.282 424.365 511.777 424.437C507.152 425.233 502.456 424.582 497.831 424.871Z" fill="#FDFDFE"/>
<path d="M503.034 484.388C493.135 485.255 483.236 484.532 473.409 485.183C464.449 485.689 455.49 485.4 446.458 485.689C443.712 485.762 441.038 485.979 438.293 486.196C435.836 486.412 436.053 484.677 436.197 483.231C436.342 481.784 435.114 479.542 438.148 479.47C442.267 479.398 446.385 479.036 450.504 478.964C465.316 478.675 480.129 478.53 495.013 478.241C497.614 478.168 500.216 477.879 502.817 477.662C502.961 479.904 502.961 482.146 503.034 484.388Z" fill="#B4C7E8"/>
<path d="M488.582 612.894C488.582 618.029 485.041 622.078 480.561 622.151C476.009 622.223 472.18 617.956 472.18 612.822C472.18 607.832 475.865 603.565 480.272 603.493C484.752 603.421 488.509 607.687 488.582 612.894Z" fill="#FDFDFE"/>
<path d="M480.633 401.224C477.888 401.151 475.214 401.079 472.541 401.73C471.601 401.947 470.084 402.019 470.084 400.718C470.084 399.488 471.529 399.922 472.324 399.994C476.659 399.994 480.995 399.922 485.258 399.416C486.269 399.271 488.076 398.91 487.281 401.151C485.041 401.151 482.801 401.224 480.633 401.224Z" fill="#27398B"/>
<path d="M425.864 607.326C424.274 606.82 422.468 606.314 422.179 604.289C421.817 601.541 423.985 600.384 425.791 599.01C425.864 601.83 425.864 604.578 425.864 607.326Z" fill="#27398B"/>
<path d="M422.324 456.401C422.324 451.556 422.324 446.783 422.324 441.938C423.264 446.783 423.264 451.556 422.324 456.401Z" fill="#4663AC"/>
<path d="M425.357 579.049C425.357 574.42 425.357 569.792 425.357 565.236C426.297 569.792 426.297 574.42 425.357 579.049Z" fill="#4663AC"/>
<path d="M422.902 480.699C422.902 476.071 422.902 471.443 422.902 466.887C423.842 471.443 423.842 476.071 422.902 480.699Z" fill="#4663AC"/>
<path d="M421.674 431.523C421.674 426.895 421.674 422.267 421.674 417.711C422.613 422.267 422.685 426.895 421.674 431.523Z" fill="#4663AC"/>
<path d="M462.209 402.309C461.414 402.309 460.836 401.947 460.691 401.152C460.547 400.212 460.98 399.561 461.92 399.489C462.859 399.416 463.437 399.995 463.437 400.863C463.509 401.658 463.003 402.164 462.209 402.309Z" fill="#27398B"/>
<path d="M424.13 501.382C422.757 498.056 423.841 494.512 423.552 491.113C424.708 494.512 423.841 497.983 424.13 501.382Z" fill="#4663AC"/>
<path d="M424.13 529.874C424.419 526.836 423.335 523.727 424.708 520.762C424.419 523.799 425.358 526.909 424.13 529.874Z" fill="#4663AC"/>
<path d="M480.633 401.223C482.873 401.223 485.04 401.223 487.28 401.15C485.04 402.235 482.873 402.091 480.633 401.223Z" fill="#4663AC"/>
<path d="M416.182 509.265C416.254 509.482 416.254 509.626 416.182 509.843C409.751 513.604 403.971 518.377 397.829 522.571C397.107 523.077 396.818 523.728 396.818 524.596C396.818 534.214 396.818 543.76 396.818 553.956C403.248 549.4 409.318 545.134 415.532 540.795C415.893 542.386 414.737 542.675 414.014 543.181C409.101 546.725 404.188 550.268 399.202 553.667C397.396 554.896 396.673 556.198 396.745 558.368C396.818 560.465 397.468 562.707 395.806 565.165C395.156 560.031 397.612 554.462 391.326 551.57C393.349 551.136 394 552.799 395.661 553.378C395.661 551.859 395.661 550.413 395.661 548.966C395.661 542.169 395.589 535.371 395.734 528.646C395.806 525.247 395.878 521.992 391.76 520.112C393.783 519.317 394.289 521.197 395.878 520.98C395.878 511.94 395.878 502.901 395.878 493.789C396.167 493.789 396.384 493.789 396.673 493.789C396.673 502.901 396.673 512.085 396.673 521.631C399.636 520.329 401.659 518.521 403.826 517.003C407.078 514.833 410.185 512.374 413.436 510.205C414.087 509.626 414.809 508.252 416.182 509.265Z" fill="#2962A9"/>
<path d="M407.294 578.037C407.294 584.473 407.294 590.909 407.294 598.141C412.208 594.742 416.471 591.777 420.951 588.595C421.167 590.042 420.084 590.331 419.506 590.765C416.182 593.224 412.786 595.61 409.39 597.996C408.378 598.72 407.511 599.37 407.583 600.889C407.656 607.47 407.583 614.051 407.583 621.21C412.208 617.956 416.543 614.991 421.095 611.809C421.023 613.544 419.795 613.689 419.144 614.268C418.205 615.063 417.266 615.786 416.182 616.365C410.112 619.619 405.777 623.813 407.511 631.551C407.583 631.768 407.294 632.057 407.005 632.781C405.127 628.369 408.812 622.873 403.898 619.474C404.621 619.836 405.416 620.27 406.427 620.776C406.427 613.906 406.427 607.108 406.427 600.383C406.427 598.141 403.682 597.924 403.248 595.899C404.621 595.755 404.982 597.201 406.427 597.49C406.427 590.982 406.427 584.546 406.427 578.109C406.716 578.037 407.005 578.037 407.294 578.037Z" fill="#246EA3"/>
<path d="M371.961 605.083C372.756 605.3 373.406 605.227 373.406 604.215C373.406 598.068 373.478 591.994 373.406 585.847C373.406 583.967 371.31 583.533 370.588 582.159C370.66 582.086 370.805 581.942 370.877 581.869C371.527 582.303 372.25 582.665 373.406 583.388C373.406 577.024 373.406 570.877 373.406 564.803C373.695 564.803 373.912 564.803 374.201 564.803C374.273 565.815 374.345 566.828 374.345 567.768C374.345 579.411 373.984 591.053 374.562 602.624C374.779 607.325 373.478 611.881 374.201 616.509C373.117 614.339 373.478 611.953 373.55 609.711C373.55 607.975 373.189 606.529 371.672 605.517C371.744 605.372 371.816 605.227 371.961 605.083Z" fill="#2962A9"/>
<path d="M391.686 519.823C389.23 517.726 386.701 515.557 384.244 513.459C384.461 513.242 384.678 513.026 384.822 512.809C387.496 514.761 390.169 516.714 392.192 519.245C391.975 519.389 391.831 519.606 391.686 519.823Z" fill="#2962A9"/>
<path d="M380.85 541.445C383.234 543.47 385.691 545.495 388.509 547.882C385.907 547.375 382.006 544.338 380.85 541.445Z" fill="#2962A9"/>
<path d="M381.933 579.483C379.765 581.001 377.67 582.448 375.502 583.966C375.502 583.749 375.502 583.46 375.502 583.243C377.308 581.58 379.332 580.206 381.499 578.977C381.644 579.121 381.788 579.266 381.933 579.483Z" fill="#246EA3"/>
<path d="M384.101 512.735C382.511 512.229 381.211 511.361 379.982 509.264C382.222 510.131 383.378 511.144 384.101 512.735Z" fill="#2962A9"/>
<path d="M383.16 599.949C384.461 599.009 385.617 597.78 387.351 597.418C386.267 598.647 385.039 599.732 383.449 600.311C383.377 600.238 383.232 600.094 383.16 599.949Z" fill="#2962A9"/>
<path d="M392.048 551.641C389.881 550.556 388.797 549.761 387.713 548.098C389.808 548.459 390.82 549.472 392.048 551.641Z" fill="#2962A9"/>
<path d="M364.736 598.938C366.109 599.733 367.41 600.673 368.349 601.975C368.204 602.119 368.06 602.336 367.915 602.481C366.687 601.469 365.459 600.456 364.23 599.444C364.375 599.299 364.592 599.154 364.736 598.938Z" fill="#246EA3"/>
<path d="M382.511 601.25C381.644 601.757 381.066 602.769 379.549 602.914C380.271 601.684 381.138 601.178 382.222 600.816C382.222 601.033 382.367 601.178 382.511 601.25Z" fill="#2962A9"/>
<path d="M382.439 578.11C383.234 577.604 383.812 576.664 385.113 576.592C384.968 577.966 383.885 578.183 382.945 578.617C382.801 578.472 382.656 578.255 382.439 578.11Z" fill="#246EA3"/>
<path d="M371.599 605.517C370.732 605.011 369.865 604.36 369.359 603.42C369.432 603.348 369.576 603.275 369.648 603.131C370.66 603.42 371.383 604.143 371.961 605.011C371.816 605.228 371.744 605.373 371.599 605.517Z" fill="#2962A9"/>
<path d="M364.23 599.514C363.58 599.152 362.93 598.791 362.785 597.851C363.869 597.706 364.23 598.429 364.736 599.008C364.591 599.152 364.375 599.297 364.23 599.514Z" fill="#246EA3"/>
<path d="M382.15 600.889C382.512 600.6 382.801 600.311 383.162 600.021C383.306 600.166 383.379 600.311 383.523 600.455C383.162 600.745 382.873 601.034 382.512 601.323C382.367 601.179 382.223 601.034 382.15 600.889Z" fill="#2962A9"/>
<path d="M381.428 578.905C381.789 578.616 382.078 578.326 382.439 578.037C382.584 578.182 382.801 578.399 382.945 578.543C382.584 578.833 382.295 579.122 381.934 579.339C381.789 579.267 381.645 579.122 381.428 578.905Z" fill="#246EA3"/>
<path d="M375.502 583.172C375.502 583.389 375.502 583.678 375.502 583.895C375.285 583.823 375.068 583.75 374.852 583.678C375.068 583.461 375.285 583.317 375.502 583.172Z" fill="#2962A9"/>
<path d="M370.59 582.231C370.445 582.087 370.084 581.797 370.156 581.797C370.517 581.364 370.734 581.725 370.951 581.942C370.806 582.014 370.662 582.087 370.59 582.231Z" fill="#2962A9"/>
<path d="M368.494 602.842C368.277 602.77 368.133 602.625 367.916 602.553C368.061 602.408 368.205 602.192 368.35 602.047C368.566 602.264 368.711 602.408 368.928 602.625C368.855 602.77 368.711 602.842 368.494 602.842Z" fill="#246EA3"/>
<path d="M368.928 602.553C369.144 602.77 369.361 602.987 369.65 603.204C369.578 603.276 369.433 603.348 369.361 603.493C369.072 603.276 368.783 603.059 368.494 602.914C368.711 602.842 368.855 602.77 368.928 602.553Z" fill="#2962A9"/>
<path d="M517.7 512.447C517.484 526.983 518.278 541.518 518.712 556.054C518.929 563.213 518.784 570.445 518.929 577.604C518.929 579.123 518.351 579.774 516.833 579.774C512.498 579.846 508.163 580.208 503.827 580.28C488.581 580.569 473.263 580.569 458.017 581.076C452.454 581.292 446.89 581.292 441.399 581.582C439.303 581.654 438.725 580.931 438.581 578.834C437.93 569.649 438.364 560.465 438.003 551.281C437.425 537.975 437.208 524.669 436.847 511.29C436.774 508.759 437.497 508.036 440.026 508.036C455.272 507.891 470.59 507.964 485.836 507.313C494.868 506.951 503.827 507.168 512.787 506.734C514.377 508.615 516.039 510.495 517.7 512.447Z" fill="#B1C5E7"/>
<path d="M504.262 495.885C506.646 496.897 509.03 497.982 511.415 498.994C510.62 500.007 509.825 500.947 509.03 501.959C505.924 501.453 505.056 498.994 504.045 496.608C504.189 496.319 504.189 496.102 504.262 495.885Z" fill="#334898"/>
<path d="M629.914 591.2C630.131 591.055 630.348 590.91 630.564 590.766C630.564 590.766 630.709 590.983 630.853 591.055C630.564 591.127 630.348 591.272 630.059 591.344C630.059 591.344 629.914 591.2 629.914 591.2Z" fill="#297C8E"/>
<path d="M475.792 446.348C475.792 449.602 475.792 452.784 475.792 456.039C475.792 461.535 473.913 463.487 468.35 463.632C462.786 463.776 457.222 463.704 451.659 463.776C448.769 463.849 445.806 464.138 442.916 464.138C438.219 464.21 435.763 461.824 435.618 457.196C435.401 448.445 435.184 439.623 434.968 430.872C434.823 425.593 436.991 423.352 442.338 423.135C451.153 422.773 459.896 423.279 468.711 422.556C472.324 422.267 474.925 425.015 475.142 428.775C475.503 434.633 475.864 440.491 475.792 446.348Z" fill="#BB3151"/>
<path d="M504.261 495.887C504.188 496.104 504.116 496.393 504.116 496.61C501.732 497.116 499.347 497.116 496.891 497.116C481.572 497.333 466.182 497.478 450.864 497.911C446.817 498.056 442.843 498.201 438.797 498.418C435.69 498.562 436.413 496.537 436.268 494.802C436.124 492.922 436.196 491.692 438.797 491.548C449.924 491.114 460.98 491.331 472.107 490.897C482.223 490.463 492.266 490.535 502.382 490.463C502.599 492.415 503.249 494.151 504.261 495.887Z" fill="#B4C7E8"/>
<path d="M495.374 443.964C491.038 443.964 486.703 443.964 482.368 443.964C481.862 443.964 481.284 444.108 480.995 443.53C480.2 441.794 480.417 439.914 480.706 438.178C480.995 436.587 482.584 437.021 483.74 436.949C490.894 436.877 498.047 436.877 505.273 436.804C507.296 436.804 509.247 436.515 511.27 436.298C513.51 436.081 514.088 437.311 513.871 439.263C513.726 440.854 514.81 442.807 511.631 443.096C506.212 443.819 500.793 443.457 495.374 443.964Z" fill="#B4C7E8"/>
<path d="M497.831 424.872C502.455 424.582 507.079 425.233 511.704 424.51C512.209 424.438 512.86 424.293 513.004 424.872C513.51 426.607 513.51 428.487 513.076 430.223C512.787 431.452 511.342 430.946 510.403 430.946C501.443 430.802 492.484 431.959 483.524 431.597C482.079 431.525 480.2 432.103 480.489 429.572C480.706 427.837 479.478 425.667 482.946 425.306C488.004 424.727 492.917 425.161 497.831 424.872Z" fill="#B1C5E7"/>
<path d="M521.891 448.158L524.203 522.572L505.778 524.235L498.119 452.353L521.891 448.158Z" fill="#FDFDFE"/>
<path d="M509.768 472.244C504.71 464.145 498.93 459.228 495.172 456.48C494.739 456.19 485.057 449.32 475.085 448.886C470.389 448.669 469.377 450.043 469.088 450.55C468.51 451.562 468.582 453.081 469.377 453.948C470.606 455.395 472.556 454.165 475.519 455.106C479.059 456.263 480.794 459.444 481.01 459.806C481.733 461.18 481.805 463.35 482.022 467.761C482.166 470.798 482.239 472.389 481.877 474.342C481.372 477.451 480.505 478.102 480.288 479.621C479.348 486.129 491.126 495.892 503.265 496.76C504.927 496.904 506.3 496.832 507.022 496.76" fill="#84A5D7"/>
<path d="M720.321 573.487C692.647 582.093 664.828 588.963 635.782 579.995C626.894 575.584 618.802 570.088 611.576 563.218C603.411 553.6 596.692 542.97 590.839 531.544C570.318 552.371 555.939 574.789 566.127 605.451C566.489 608.56 566.706 611.67 568.729 614.273C570.029 623.168 575.376 630.545 577.616 639.078C562.153 637.415 546.618 636.981 531.084 638.572C529.277 628.447 527.471 618.323 525.664 608.271C525.303 594.965 524.219 581.659 526.676 568.497C528.988 560.036 531.951 551.864 537.298 544.705C538.67 543.837 539.537 545.139 540.549 545.501C542.066 547.381 545.896 542.174 546.546 547.453C546.691 548.321 548.931 547.598 549.653 546.658C556.445 537.907 566.489 534.653 576.315 531.182C590.189 528.362 602.111 521.13 614.033 514.043C620.175 520.768 627.039 526.771 633.614 533.062C649.799 548.393 668.008 546.513 686.866 540.655C691.057 539.354 695.176 537.618 699.294 536.027C701.173 535.955 702.546 536.606 703.413 538.414C709.193 550.057 714.757 561.772 720.321 573.487Z" fill="#222040"/>
<path d="M614.25 513.971C602.256 521.058 590.406 528.289 576.533 531.11C573.642 523.661 570.897 516.14 569.379 508.258C572.197 507.462 574.293 506.45 573.353 502.617C571.475 495.241 569.957 487.72 567.934 478.246C562.298 485.912 556.735 491.914 550.593 497.338C534.48 507.607 518.511 508.908 502.832 496.398C503.988 488.009 505.939 479.91 510.419 472.533C517.933 480.416 526.676 485.478 537.948 482.585C545.029 480.777 551.894 477.957 557.168 472.389C559.769 470.364 562.371 468.267 564.972 466.242C570.535 470.87 575.666 469.641 580.434 464.868C586.359 466.82 592.14 464.795 597.92 464C607.53 467.76 615.406 473.112 619.814 483.236C624.727 495.096 621.981 504.786 614.25 513.971ZM581.518 504.859C587.443 502.834 593.079 500.52 597.631 496.253C591.562 497.772 586.287 500.881 581.518 504.859ZM598.787 487.358C598.065 482.513 596.981 478.029 590.333 476.872C593.729 481.139 596.258 484.249 598.787 487.358Z" fill="#E4363F"/>
<path d="M597.703 464.072C591.922 464.939 586.142 466.892 580.217 464.939C574.148 460.167 568.006 455.538 571.691 446.137C572.702 443.534 571.041 441.003 568.15 440.786C562.948 440.352 560.13 436.519 556.662 433.554C555.578 427.552 559.841 427.407 563.526 428.058C569.812 429.143 575.087 432.108 578.194 438.255C583.107 448.017 585.13 448.451 593.729 442.449C598.209 439.34 602.544 436.013 606.952 432.903C610.926 430.083 615.333 428.709 620.102 428.347C629.206 427.552 637.588 432.542 639.683 439.846C641.634 446.86 635.781 458.214 628.484 461.541C625.015 463.132 621.764 461.902 618.368 461.107C611.142 459.299 603.917 458.069 597.703 464.072Z" fill="#378C51"/>
<path d="M720.321 573.486C714.758 561.771 709.194 550.056 703.703 538.34C702.835 536.532 701.463 535.809 699.584 535.954C703.052 533.712 707.099 532.049 709.844 529.156C715.769 523.009 719.165 525.106 722.778 531.47C724.946 535.231 728.053 538.485 730.726 541.884C733.833 547.163 737.446 552.08 741.564 556.636C741.926 557.432 742.359 558.155 742.72 558.95C748.429 566.616 754.209 574.209 759.917 581.875C759.195 586.575 755.582 585.852 752.475 585.563C747.923 585.129 744.166 582.598 740.264 580.428C734.122 576.813 727.764 573.414 720.321 573.486Z" fill="#378C51"/>
<path d="M531.155 638.571C546.69 636.98 562.153 637.487 577.688 639.078C577.905 639.222 578.121 639.367 578.266 639.512C584.913 651.95 584.913 651.95 571.329 654.264C553.844 657.301 536.358 660.411 518.872 663.376C516.56 663.81 514.175 664.75 511.43 663.81C511.574 657.952 515.115 654.336 519.522 651.444C524.508 648.19 528.771 644.212 531.155 638.571Z" fill="#378C51"/>
<path d="M569.306 508.33C570.823 516.213 573.569 523.733 576.459 531.182C566.56 534.653 556.589 537.907 549.797 546.658C549.074 547.598 546.834 548.321 546.69 547.453C545.967 542.102 542.21 547.309 540.693 545.501C540.765 541.089 546.112 538.92 545.823 533.424C540.476 535.593 541.126 541.885 537.007 544.054C536.14 543.62 535.346 543.187 534.479 542.753C537.296 539.498 539.247 536.027 538.164 531.544C540.765 530.965 541.993 530.025 538.958 528.145C539.464 526.481 539.97 524.89 540.548 523.083C538.886 520.985 536.285 523.806 534.334 521.853C534.406 521.419 534.19 520.407 534.551 520.118C538.453 516.357 543.727 514.694 548.568 513.826C557.094 512.091 561.141 511.367 569.306 508.33Z" fill="#84A5D7"/>
<path d="M556.734 433.555C560.202 436.52 563.02 440.352 568.222 440.786C571.112 441.003 572.774 443.534 571.763 446.138C568.078 455.539 574.219 460.167 580.289 464.94C575.52 469.641 570.39 470.87 564.826 466.314C566.922 463.783 565.476 461.758 563.742 459.95C561.647 457.853 559.479 455.9 557.384 453.876C548.135 445.342 547.991 442.811 556.734 433.555Z" fill="#84A5D7"/>
<path d="M573.641 668.51C570.318 668.727 567.644 667.714 567.066 664.243C566.416 660.627 567.933 658.024 571.618 657.156C575.087 656.361 577.326 657.735 578.049 661.278C578.699 664.894 577.182 667.353 573.641 668.51Z" fill="#378C51"/>
<path d="M547.63 661.205C552.904 660.048 555.144 661.639 555.722 665.183C556.3 668.943 554.711 671.619 550.881 672.197C547.774 672.703 545.606 671.185 544.884 668.003C543.945 664.242 545.679 661.928 547.63 661.205Z" fill="#378C51"/>
<path d="M737.445 541.016C739.685 538.919 741.997 537.111 745.321 538.485C747.778 539.498 749.512 541.884 749.44 543.837C749.295 547.814 745.827 549.116 742.286 549.767C738.818 547.886 735.928 545.645 737.445 541.016Z" fill="#378C51"/>
<path d="M728.775 519.827C732.604 519.177 735.35 521.129 735.928 524.6C736.506 527.855 734.122 530.169 730.798 530.747C727.33 531.326 724.945 529.59 724.151 526.264C723.284 522.575 725.668 520.84 728.775 519.827Z" fill="#378C51"/>
<path d="M533.251 669.089C533.901 672.994 532.022 675.453 528.41 676.032C525.014 676.538 522.701 674.658 522.412 671.114C522.123 667.715 523.496 665.401 527.037 664.75C530.577 664.027 532.745 665.401 533.251 669.089Z" fill="#378C51"/>
<path d="M762.518 563.216C760.134 566.688 757.099 569.363 752.908 566.688C748.718 564.084 750.09 560.613 752.547 557.359C758.038 555.551 761.434 557.359 762.518 563.216Z" fill="#378C51"/>
<path d="M537.008 543.982C541.127 541.813 540.404 535.521 545.823 533.352C546.113 538.848 540.766 541.017 540.693 545.428C539.61 545.067 538.742 543.765 537.442 544.633C537.081 544.561 536.936 544.271 537.008 543.982Z" fill="#6183B5"/>
<path d="M538.165 531.471C539.249 535.954 537.226 539.498 534.48 542.68C534.119 541.812 533.758 541.017 533.469 540.149C533.396 539.136 533.324 538.051 533.324 537.039C533.975 535.81 534.625 534.58 535.203 533.279C535.709 532.7 536.142 532.049 536.648 531.471C537.154 531.543 537.66 531.471 538.165 531.471Z" fill="#6183B5"/>
<path d="M538.959 528.072C541.994 530.025 540.766 530.893 538.165 531.471C538.02 531.182 537.803 530.82 537.659 530.531C537.587 530.386 537.659 530.169 537.731 529.952C538.165 529.374 538.598 528.795 539.032 528.217L538.959 528.072Z" fill="#6183B5"/>
<path d="M538.959 528.217C538.525 528.795 538.092 529.374 537.658 529.952C538.092 529.374 538.525 528.795 538.959 528.217Z" fill="#EDA9AB"/>
<path d="M536.646 531.543C536.14 532.121 535.707 532.772 535.201 533.351C535.635 532.772 536.14 532.121 536.646 531.543Z" fill="#EDA9AB"/>
<path d="M581.518 504.858C586.286 500.88 591.561 497.771 597.63 496.252C593.078 500.519 587.443 502.833 581.518 504.858Z" fill="#DE8B8F"/>
<path d="M598.786 487.357C596.257 484.247 593.728 481.138 590.332 476.871C596.907 478.1 598.063 482.512 598.786 487.357Z" fill="#EDA9AB"/>
<path d="M635.564 489.455C637.01 487.502 638.671 485.622 640.478 483.887C642.284 482.151 644.235 480.56 646.258 479.186C650.449 476.438 655.218 474.486 660.204 473.618C660.854 473.473 661.432 473.401 662.082 473.328C662.732 473.256 663.311 473.184 663.961 473.184C665.189 473.111 666.49 473.111 667.718 473.184C668.946 473.184 670.247 473.328 671.475 473.401C672.704 473.545 673.932 473.69 675.16 473.907C680.074 474.702 684.915 475.787 689.756 476.366C690.984 476.51 692.14 476.655 693.369 476.727L695.175 476.872L696.981 476.944C699.366 476.944 701.823 476.8 704.207 476.51C709.048 475.932 713.745 474.702 718.369 473.111C722.994 471.448 727.401 469.351 731.664 466.965C735.999 464.578 740.046 461.83 744.092 459.01C740.335 462.264 736.361 465.157 732.17 467.905C727.979 470.58 723.572 472.895 718.947 474.775C714.323 476.655 709.409 477.957 704.496 478.68C702.039 479.041 699.51 479.186 696.981 479.186H695.103L693.224 479.041C691.996 478.969 690.695 478.824 689.467 478.68C684.481 478.029 679.64 476.872 674.871 476.076C673.643 475.859 672.487 475.715 671.259 475.498C670.03 475.353 668.874 475.209 667.646 475.209C665.261 475.064 662.805 475.136 660.42 475.426C655.651 476.076 651.027 477.667 646.836 480.198C642.573 482.513 638.888 485.839 635.564 489.455Z" fill="#6C6C6C"/>
<path d="M638.383 506.16C639.828 504.207 641.49 502.327 643.296 500.592C645.103 498.856 647.054 497.265 649.077 495.891C653.267 493.143 658.036 491.19 663.022 490.323C663.672 490.178 664.25 490.106 664.901 490.033C665.551 489.961 666.129 489.889 666.779 489.889C668.008 489.817 669.308 489.817 670.536 489.889C671.765 489.889 673.065 490.033 674.294 490.106C675.522 490.25 676.75 490.395 677.979 490.612C682.892 491.407 687.733 492.492 692.574 493.071C693.803 493.215 694.959 493.36 696.187 493.432L697.994 493.577L699.8 493.649C702.184 493.649 704.641 493.505 707.025 493.215C711.867 492.637 716.563 491.407 721.188 489.816C725.812 488.153 730.219 486.056 734.483 483.67C738.818 481.283 742.864 478.535 746.911 475.715C743.153 478.969 739.179 481.862 734.988 484.61C730.798 487.285 726.39 489.6 721.766 491.48C717.141 493.36 712.228 494.662 707.315 495.385C704.858 495.746 702.329 495.891 699.8 495.891H697.921L696.043 495.746C694.814 495.674 693.514 495.529 692.285 495.385C687.3 494.734 682.459 493.577 677.69 492.781C676.461 492.565 675.305 492.42 674.077 492.203C672.849 492.058 671.693 491.914 670.464 491.914C668.08 491.769 665.623 491.841 663.239 492.131C658.47 492.781 653.846 494.372 649.655 496.903C645.392 499.218 641.707 502.544 638.383 506.16Z" fill="#6C6C6C"/>
<path d="M641.779 526.336C643.224 524.383 644.886 522.503 646.693 520.767C648.499 519.032 650.45 517.441 652.473 516.067C656.664 513.319 661.433 511.366 666.418 510.499C667.069 510.354 667.647 510.282 668.297 510.209C668.947 510.137 669.525 510.065 670.176 510.065C671.404 509.992 672.705 509.992 673.933 510.065C675.161 510.065 676.462 510.209 677.69 510.282C678.919 510.426 680.147 510.571 681.375 510.788C686.289 511.583 691.13 512.668 695.971 513.247C697.199 513.391 698.355 513.536 699.584 513.608L701.39 513.753L703.197 513.825C705.581 513.825 708.038 513.68 710.422 513.391C715.263 512.813 719.96 511.583 724.584 509.992C729.208 508.329 733.616 506.232 737.879 503.845C742.214 501.459 746.261 498.711 750.307 495.891C746.55 499.145 742.576 502.038 738.385 504.786C734.194 507.461 729.786 509.775 725.162 511.656C720.538 513.536 715.624 514.838 710.711 515.561C708.254 515.922 705.725 516.067 703.197 516.067H701.318L699.439 515.922C698.211 515.85 696.91 515.705 695.682 515.561C690.696 514.91 685.855 513.753 681.086 512.957C679.858 512.74 678.702 512.596 677.473 512.379C676.245 512.234 675.089 512.089 673.861 512.089C671.476 511.945 669.02 512.017 666.635 512.306C661.866 512.957 657.242 514.548 653.051 517.079C648.86 519.393 645.103 522.72 641.779 526.336Z" fill="#6C6C6C"/>
<path d="M554.133 440.497C549.943 439.557 546.619 438.4 544.234 437.46C541.272 436.303 539.466 435.29 538.96 435.869C538.382 436.52 539.899 439.196 541.995 441.003C545.174 443.679 547.919 442.811 550.593 445.487C551.821 446.789 552.472 448.235 552.761 449.175" fill="#6183B5"/>
<path d="M481.949 472.822C482.599 472.822 483.611 472.822 484.767 473.256C485.345 473.473 487.513 474.269 488.741 476.438C489.753 478.246 489.825 480.343 489.392 480.488C488.886 480.632 488.235 477.017 485.273 475.498C484.045 474.847 482.816 474.775 481.805 474.847" fill="#6183B5"/>
<path d="M482.31 465.518C482.961 465.518 483.972 465.518 485.128 465.951C485.706 466.168 487.874 466.964 489.102 469.133C490.114 470.941 490.186 473.038 489.753 473.183C489.247 473.328 488.597 469.712 485.634 468.193C484.406 467.542 483.178 467.47 482.166 467.542" fill="#6183B5"/>
<path d="M450.723 546.505C449.145 546.051 447.996 545.495 447.274 544.836C446.558 544.172 446.201 543.353 446.201 542.381C446.201 541.282 446.638 540.374 447.513 539.658C448.395 538.935 449.538 538.574 450.944 538.574C451.902 538.574 452.755 538.76 453.502 539.13C454.256 539.501 454.837 540.013 455.246 540.665C455.661 541.317 455.869 542.03 455.869 542.803H454.019C454.019 541.959 453.751 541.298 453.214 540.818C452.678 540.332 451.921 540.089 450.944 540.089C450.036 540.089 449.327 540.291 448.816 540.694C448.312 541.09 448.059 541.643 448.059 542.353C448.059 542.922 448.299 543.404 448.778 543.801C449.264 544.191 450.084 544.549 451.241 544.875C452.403 545.201 453.31 545.562 453.962 545.958C454.62 546.348 455.105 546.806 455.418 547.33C455.738 547.854 455.897 548.471 455.897 549.181C455.897 550.312 455.457 551.22 454.575 551.904C453.694 552.582 452.515 552.921 451.039 552.921C450.081 552.921 449.187 552.739 448.356 552.374C447.526 552.003 446.884 551.498 446.43 550.859C445.983 550.22 445.76 549.494 445.76 548.682H447.609C447.609 549.526 447.919 550.194 448.539 550.686C449.165 551.172 449.998 551.415 451.039 551.415C452.01 551.415 452.755 551.217 453.272 550.821C453.789 550.424 454.048 549.884 454.048 549.2C454.048 548.516 453.809 547.988 453.329 547.618C452.85 547.24 451.982 546.87 450.723 546.505Z" fill="white"/>
<path d="M459.912 552.729H458.14V542.353H459.912V552.729ZM457.996 539.6C457.996 539.313 458.082 539.07 458.255 538.872C458.433 538.673 458.695 538.574 459.04 538.574C459.385 538.574 459.647 538.673 459.826 538.872C460.005 539.07 460.094 539.313 460.094 539.6C460.094 539.888 460.005 540.128 459.826 540.32C459.647 540.511 459.385 540.607 459.04 540.607C458.695 540.607 458.433 540.511 458.255 540.32C458.082 540.128 457.996 539.888 457.996 539.6Z" fill="white"/>
<path d="M462.336 547.455C462.336 545.837 462.71 544.552 463.457 543.599C464.205 542.64 465.195 542.161 466.428 542.161C467.693 542.161 468.68 542.608 469.389 543.503L469.475 542.353H471.094V552.48C471.094 553.822 470.695 554.88 469.896 555.654C469.104 556.428 468.038 556.814 466.696 556.814C465.949 556.814 465.217 556.654 464.502 556.335C463.786 556.015 463.24 555.577 462.863 555.021L463.783 553.956C464.543 554.896 465.473 555.366 466.572 555.366C467.434 555.366 468.105 555.123 468.584 554.637C469.069 554.151 469.312 553.467 469.312 552.585V551.693C468.603 552.512 467.635 552.921 466.409 552.921C465.195 552.921 464.211 552.432 463.457 551.454C462.71 550.475 462.336 549.142 462.336 547.455ZM464.119 547.656C464.119 548.826 464.358 549.747 464.837 550.418C465.316 551.083 465.987 551.415 466.849 551.415C467.967 551.415 468.788 550.907 469.312 549.89V545.153C468.769 544.162 467.955 543.666 466.869 543.666C466.006 543.666 465.332 544.002 464.847 544.673C464.361 545.345 464.119 546.339 464.119 547.656Z" fill="white"/>
<path d="M475.454 542.353L475.511 543.657C476.304 542.66 477.338 542.161 478.616 542.161C480.807 542.161 481.912 543.398 481.931 545.872V552.729H480.159V545.863C480.152 545.115 479.98 544.562 479.641 544.204C479.309 543.845 478.788 543.666 478.079 543.666C477.504 543.666 477 543.82 476.565 544.127C476.131 544.434 475.793 544.836 475.55 545.335V552.729H473.777V542.353H475.454Z" fill="white"/>
<path d="M495.873 551.703C495.183 552.515 494.171 552.921 492.835 552.921C491.73 552.921 490.887 552.601 490.306 551.962C489.731 551.316 489.44 550.363 489.434 549.104V542.353H491.207V549.056C491.207 550.629 491.845 551.415 493.123 551.415C494.477 551.415 495.378 550.91 495.825 549.9V542.353H497.598V552.729H495.911L495.873 551.703Z" fill="white"/>
<path d="M509.058 547.656C509.058 549.235 508.697 550.507 507.975 551.473C507.253 552.438 506.276 552.921 505.043 552.921C503.784 552.921 502.794 552.521 502.072 551.722V556.718H500.3V542.353H501.919L502.005 543.503C502.727 542.608 503.73 542.161 505.014 542.161C506.26 542.161 507.243 542.631 507.965 543.571C508.693 544.51 509.058 545.818 509.058 547.493V547.656ZM507.285 547.455C507.285 546.285 507.036 545.361 506.537 544.683C506.039 544.005 505.356 543.666 504.487 543.666C503.414 543.666 502.609 544.143 502.072 545.095V550.053C502.603 551 503.414 551.473 504.506 551.473C505.356 551.473 506.03 551.137 506.528 550.466C507.033 549.788 507.285 548.784 507.285 547.455Z" fill="white"/>
<path d="M513.302 548.788H511.702L511.578 538.766H513.436L513.302 548.788ZM511.51 551.837C511.51 551.549 511.597 551.31 511.769 551.118C511.948 550.92 512.21 550.821 512.555 550.821C512.9 550.821 513.162 550.92 513.341 551.118C513.519 551.31 513.609 551.549 513.609 551.837C513.609 552.125 513.519 552.365 513.341 552.556C513.162 552.742 512.9 552.834 512.555 552.834C512.21 552.834 511.948 552.742 511.769 552.556C511.597 552.365 511.51 552.125 511.51 551.837Z" fill="white"/>
<path d="M648.8 271.381H535.203V186.381L676.203 212.34L648.8 271.381Z" fill="#E7ECB0"/>
<path d="M602.165 290.912C580.836 290.094 565.657 279.036 555.425 259.806C550.861 265.671 552.062 272.786 548.267 277.883C539.38 276.344 531.31 272.113 522.76 269.565C527.467 258.988 535.345 251.007 543.223 243.075C548.411 243.027 553.599 243.027 558.835 242.979C566.954 256.681 578.194 264.613 594.383 263.459C598.658 264.277 602.741 263.123 606.824 261.969C609.418 262.257 609.947 264.036 610.139 266.392C610.571 271.392 611.244 276.344 611.82 281.296C611.724 282.786 611.676 284.277 611.58 285.767C611.436 286.777 611.292 287.738 611.099 288.748C608.121 289.469 605.143 290.19 602.165 290.912Z" fill="#E4363F"/>
<path d="M558.835 242.978C553.647 243.026 548.46 243.026 543.224 243.074C535.249 240.045 531.118 234.564 534.721 231.247C539.573 226.824 543.8 219.708 551.63 220.67C555.665 221.199 557.635 220.478 560.373 217.112C564.216 212.353 569.788 209.708 576.273 212.497C575.36 217.256 571.565 219.997 567.866 220.237C561.91 220.67 561.718 223.026 563.063 227.833C563.735 230.285 563.255 233.074 563.303 235.67C561.862 238.122 560.373 240.526 558.835 242.978Z" fill="#378C51"/>
<path d="M563.352 235.718C563.304 233.074 563.784 230.285 563.112 227.882C561.766 223.074 561.959 220.718 567.915 220.285C571.614 220.045 575.409 217.305 576.322 212.545C578.675 227.353 578.483 227.689 563.352 235.718Z" fill="#84A5D7"/>
<path d="M611.82 281.295C611.244 276.343 610.523 271.343 610.139 266.391C609.947 264.036 609.466 262.257 606.824 261.968C616.095 258.795 625.366 255.622 634.686 252.545C636.367 251.968 638.769 251.728 638.817 254.372C638.913 258.074 641.315 256.92 643.14 257.065C651.546 257.738 652.555 259.18 650.49 267.786C647.127 270.718 640.642 268.411 639.249 274.805C631.755 273.988 624.742 275.574 618.353 279.661C616.287 281.007 614.078 281.199 611.82 281.295Z" fill="#84A5D7"/>
<path d="M639.248 274.804C640.593 268.41 647.078 270.766 650.489 267.785C650.633 276.391 648.759 277.593 639.248 274.804Z" fill="#6183B5"/>
<path d="M628.441 255.623C628.633 255.623 628.825 255.527 628.921 255.431C632.524 252.114 638.144 250.671 640.354 246.393C644.533 238.268 651.691 237.018 659.953 237.21C660.049 237.21 660.145 237.21 660.241 237.162C661.346 236.777 663.7 236.393 664.324 236.296C664.42 236.296 664.516 236.248 664.564 236.248C667.062 235.383 668.167 233.989 668.455 233.316C668.503 233.171 668.503 232.979 668.455 232.835C667.158 229.229 665.813 225.623 664.516 222.017C664.324 221.489 664.18 221.008 663.988 220.479C662.739 217.017 661.394 213.652 658.896 210.815C658.8 210.719 658.704 210.623 658.56 210.575C652.988 208.7 647.607 208.892 642.612 212.114C641.074 213.123 639.729 213.508 638.144 212.69C637.952 212.594 637.664 212.546 637.472 212.642C618.353 220.671 612.637 218.267 605.239 199.325C604.759 198.123 604.326 196.921 603.894 195.719C603.75 195.383 603.414 195.19 603.029 195.286C597.409 196.729 593.854 201.392 588.762 203.652C588.474 203.796 588.33 204.037 588.33 204.325C589.339 212.45 594.527 218.556 599.523 224.758C600.627 226.104 603.654 227.017 602.309 228.989C601.108 230.768 599.186 228.748 597.457 228.556C597.121 228.508 596.833 228.7 596.737 228.989C594.815 233.989 595.103 239.325 593.95 244.47C594.239 245.335 594.479 246.008 594.767 246.873C595.007 247.066 595.199 247.258 595.44 247.45H595.536C596.16 247.354 596.592 247.595 596.833 248.075C596.929 248.22 597.073 248.364 597.265 248.412C601.78 249.95 606.44 251.248 610.811 253.172C616.48 255.864 622.436 255.672 628.441 255.623ZM628.969 231.969C629.305 231.633 629.69 231.344 630.026 231.008C630.122 230.912 630.218 230.768 630.218 230.623C630.602 228.46 632.044 226.873 633.581 225.335C633.677 225.239 633.725 225.094 633.773 224.998C633.869 224.421 633.965 223.796 634.253 223.316C634.686 222.546 635.935 223.219 635.502 223.989C635.214 224.469 634.734 224.758 634.157 225.046C633.917 225.142 633.773 225.431 633.773 225.671C633.725 228.027 632.14 229.469 630.17 230.767C630.122 230.767 630.122 230.816 630.074 230.864C629.69 231.2 629.305 231.585 628.969 231.969C628.585 232.306 628.201 232.643 627.816 232.979C627.768 233.027 627.72 233.075 627.672 233.171C627.624 233.268 627.576 233.412 627.48 233.508C627.432 233.556 627.24 233.556 627.144 233.556C627.336 233.412 627.528 233.316 627.768 233.171C627.816 233.123 627.864 233.123 627.864 233.075C628.201 232.691 628.585 232.306 628.969 231.969ZM622.532 235.287C622.821 235.335 623.061 235.191 623.253 234.998C623.589 234.518 623.973 234.133 624.694 234.95C624.166 235.046 623.637 235.143 623.109 235.287C623.013 235.287 622.917 235.335 622.869 235.383C621.043 236.585 619.314 236.681 617.248 236.056C616.432 235.816 616.72 234.614 617.584 234.71C619.41 234.902 620.995 235.094 622.532 235.287ZM636.847 220.383C636.703 219.95 636.463 219.517 636.559 219.325C636.799 218.844 637.232 218.171 637.664 218.123C638.48 218.075 638.24 218.796 638 219.181C637.712 219.614 637.232 219.95 636.847 220.383Z" fill="#E4363F"/>
<path d="M658.704 189.566C655.294 186.826 650.586 187.306 646.839 185.335C645.062 184.422 644.005 186.008 643.092 187.21C643.044 187.931 643.044 188.653 642.996 189.326C643.188 189.614 643.236 189.951 643.188 190.335C646.887 192.258 651.787 193.364 650.25 199.037C650.634 199.085 651.018 199.182 651.403 199.23C653.564 197.162 654.093 194.326 655.486 190.576C658.512 195.431 658.368 200.48 661.971 203.749C669.416 205.864 676.814 206.345 683.923 202.691C687.238 198.364 690.505 194.037 688.679 188.22C686.325 184.47 683.155 181.826 678.159 181.874C674.268 183.268 670.954 185.095 670.713 189.566C670.569 192.451 670.137 195.383 666.39 196.056C662.739 196.681 661.154 194.085 659.713 191.585C659.329 190.912 659.04 190.239 658.704 189.566Z" fill="#4E5DA6"/>
<path d="M593.95 244.47C595.055 239.229 594.767 233.796 596.881 228.748C588.714 227.066 581.077 227.498 575.889 234.662C573.631 237.835 573.535 239.229 573.006 242.498C572.766 243.941 574.015 244.806 575.312 245.383C575.889 245.527 576.465 245.672 576.994 245.816C580.548 247.547 584.103 251.825 587.417 245.191C588.618 242.787 591.693 244.422 593.95 244.47Z" fill="#84A5D7"/>
<path d="M600.292 185.912C598.611 182.739 597.794 178.94 592.318 183.027C590.492 184.373 585.737 182.258 582.326 181.729C583.047 189.421 587.898 196.2 588.283 203.989C593.807 201.681 597.458 196.489 603.655 195.239C603.222 194.277 602.838 193.364 602.406 192.402C601.061 191.489 601.493 190.191 601.589 188.94C600.628 188.123 600.34 187.065 600.292 185.912Z" fill="#84A5D7"/>
<path d="M651.354 199.228C650.969 199.18 650.585 199.084 650.201 199.036C651.738 193.363 646.838 192.257 643.139 190.334L642.563 190.43L641.987 190.382C639.777 190.526 638.096 190.142 639.393 193.651C640.69 197.065 644.244 199.18 644.532 202.882C647.319 202.113 650.105 201.392 652.891 200.623C652.411 200.142 651.882 199.709 651.354 199.228Z" fill="#84A5D7"/>
<path d="M658.752 210.671C658.656 209.806 658.56 208.892 658.464 208.027C657.743 207.45 657.022 206.873 656.302 206.248C652.219 206.825 648.136 207.402 644.053 207.979C641.939 209.517 639.873 211.008 637.76 212.546C639.441 213.556 640.882 213.219 642.515 212.162C647.655 208.892 653.132 208.748 658.752 210.671Z" fill="#CB3E4E"/>
<path d="M652.94 200.623C650.154 201.392 647.368 202.113 644.582 202.883C644.293 203.988 643.717 205.094 644.389 206.248C648.088 205.815 651.787 205.431 655.486 204.998C655.054 203.363 655.87 201.008 652.94 200.623Z" fill="#E4363F"/>
<path d="M655.486 204.998C651.787 205.431 648.089 205.815 644.39 206.248C644.294 206.825 644.198 207.45 644.102 208.027C648.185 207.45 652.268 206.873 656.351 206.248C656.063 205.863 655.775 205.431 655.486 204.998Z" fill="#DE8B8F"/>
<path d="M595.44 247.642C595.008 247.258 594.528 246.873 594.095 246.488C593.375 248.075 594.528 247.69 595.44 247.642Z" fill="#EDA9AB"/>
<path d="M596.881 248.508C596.689 247.835 596.257 247.547 595.488 247.643C595.969 247.931 596.449 248.22 596.881 248.508Z" fill="#EDA9AB"/>
<path d="M642.035 190.384L642.612 190.432L643.188 190.336C643.236 189.999 643.188 189.663 642.996 189.326C642.66 189.663 642.323 190.047 642.035 190.384Z" fill="#DCDDE9"/>
<path d="M623.013 235.335C620.179 234.999 617.393 234.662 613.021 234.182C617.201 236.345 619.987 237.307 623.013 235.335Z" fill="#DE8B8F"/>
<path d="M630.123 230.816C632.237 229.47 633.918 227.884 633.726 225.239L633.678 225.191C632.045 226.826 630.507 228.509 630.123 230.816C630.171 230.865 630.123 230.816 630.123 230.816Z" fill="#DE8B8F"/>
<path d="M633.773 225.239C635.07 224.758 636.079 224.037 635.647 222.402C633.965 222.787 633.965 224.037 633.773 225.239C633.773 225.239 633.725 225.191 633.773 225.239Z" fill="#DE8B8F"/>
<path d="M636.847 220.383C637.279 219.95 637.712 219.614 638 219.181C638.24 218.796 638.432 218.075 637.664 218.123C637.279 218.171 636.799 218.845 636.559 219.325C636.415 219.518 636.703 219.95 636.847 220.383Z" fill="#DE8B8F"/>
<path d="M622.965 235.286C623.541 235.19 624.118 235.046 624.694 234.95C623.781 233.94 623.397 234.71 622.965 235.286C622.965 235.286 623.013 235.335 622.965 235.286Z" fill="#DE8B8F"/>
<path d="M627.768 233.075C627.528 233.22 627.336 233.364 627.096 233.508C627.24 233.508 627.384 233.556 627.432 233.46C627.528 233.364 627.624 233.172 627.672 233.027C627.72 233.027 627.768 233.075 627.768 233.075Z" fill="#DE8B8F"/>
<path d="M628.97 231.971C628.585 232.355 628.201 232.74 627.769 233.124L627.721 233.076C628.153 232.692 628.537 232.307 628.97 231.971C628.97 231.971 628.97 231.923 628.97 231.971Z" fill="#DE8B8F"/>
<path d="M628.969 231.921C629.353 231.537 629.785 231.152 630.17 230.768L630.218 230.816C629.785 231.2 629.353 231.585 628.969 231.921C628.969 231.921 628.969 231.97 628.969 231.921Z" fill="#DE8B8F"/>
<path d="M590.591 85.7263C594.342 85.7263 597.383 82.6829 597.383 78.9286C597.383 75.1743 594.342 72.1309 590.591 72.1309C586.84 72.1309 583.799 75.1743 583.799 78.9286C583.799 82.6829 586.84 85.7263 590.591 85.7263Z" fill="white" stroke="#141414" stroke-miterlimit="10"/>
<path d="M590.23 103.228C593.981 103.228 597.022 100.185 597.022 96.4306C597.022 92.6763 593.981 89.6328 590.23 89.6328C586.478 89.6328 583.438 92.6763 583.438 96.4306C583.438 100.185 586.478 103.228 590.23 103.228Z" fill="white" stroke="#141414" stroke-miterlimit="10"/>
<path d="M592.47 122.174C596.221 122.174 599.262 119.13 599.262 115.376C599.262 111.622 596.221 108.578 592.47 108.578C588.719 108.578 585.678 111.622 585.678 115.376C585.678 119.13 588.719 122.174 592.47 122.174Z" fill="white" stroke="#141414" stroke-miterlimit="10"/>
<path d="M609.956 85.5095C613.707 85.5095 616.748 82.4661 616.748 78.7118C616.748 74.9575 613.707 71.9141 609.956 71.9141C606.205 71.9141 603.164 74.9575 603.164 78.7118C603.164 82.4661 606.205 85.5095 609.956 85.5095Z" fill="white" stroke="#141414" stroke-miterlimit="10"/>
<path d="M609.595 102.939C613.346 102.939 616.387 99.8958 616.387 96.1415C616.387 92.3872 613.346 89.3438 609.595 89.3438C605.844 89.3438 602.803 92.3872 602.803 96.1415C602.803 99.8958 605.844 102.939 609.595 102.939Z" fill="white" stroke="#141414" stroke-miterlimit="10"/>
<path d="M611.763 121.885C615.514 121.885 618.555 118.841 618.555 115.087C618.555 111.333 615.514 108.289 611.763 108.289C608.012 108.289 604.971 111.333 604.971 115.087C604.971 118.841 608.012 121.885 611.763 121.885Z" fill="white" stroke="#141414" stroke-miterlimit="10"/>
<path d="M628.526 85.5095C632.278 85.5095 635.318 82.4661 635.318 78.7118C635.318 74.9575 632.278 71.9141 628.526 71.9141C624.775 71.9141 621.734 74.9575 621.734 78.7118C621.734 82.4661 624.775 85.5095 628.526 85.5095Z" fill="white" stroke="#141414" stroke-miterlimit="10"/>
<path d="M628.165 102.939C631.916 102.939 634.957 99.8958 634.957 96.1415C634.957 92.3872 631.916 89.3438 628.165 89.3438C624.414 89.3438 621.373 92.3872 621.373 96.1415C621.373 99.8958 624.414 102.939 628.165 102.939Z" fill="#BD3152"/>
<path d="M647.601 154.933C648.759 154.933 649.697 153.994 649.697 152.835C649.697 151.677 648.759 150.738 647.601 150.738C646.444 150.738 645.506 151.677 645.506 152.835C645.506 153.994 646.444 154.933 647.601 154.933Z" fill="#141414"/>
<path d="M654.394 154.933C655.551 154.933 656.49 153.994 656.49 152.835C656.49 151.677 655.551 150.738 654.394 150.738C653.237 150.738 652.299 151.677 652.299 152.835C652.299 153.994 653.237 154.933 654.394 154.933Z" fill="#141414"/>
<path d="M661.98 154.788C663.137 154.788 664.076 153.849 664.076 152.691C664.076 151.533 663.137 150.594 661.98 150.594C660.823 150.594 659.885 151.533 659.885 152.691C659.885 153.849 660.823 154.788 661.98 154.788Z" fill="#141414"/>
<path d="M630.333 121.885C634.084 121.885 637.125 118.841 637.125 115.087C637.125 111.333 634.084 108.289 630.333 108.289C626.582 108.289 623.541 111.333 623.541 115.087C623.541 118.841 626.582 121.885 630.333 121.885Z" fill="white" stroke="#141414" stroke-miterlimit="10"/>
<path d="M647.817 84.3533C651.569 84.3533 654.609 81.3098 654.609 77.5555C654.609 73.8013 651.569 70.7578 647.817 70.7578C644.066 70.7578 641.025 73.8013 641.025 77.5555C641.025 81.3098 644.066 84.3533 647.817 84.3533Z" fill="white" stroke="#141414" stroke-miterlimit="10"/>
<path d="M647.456 101.853C651.207 101.853 654.248 98.8099 654.248 95.0556C654.248 91.3013 651.207 88.2578 647.456 88.2578C643.705 88.2578 640.664 91.3013 640.664 95.0556C640.664 98.8099 643.705 101.853 647.456 101.853Z" fill="white" stroke="#141414" stroke-miterlimit="10"/>
<path d="M649.624 120.801C653.375 120.801 656.416 117.757 656.416 114.003C656.416 110.249 653.375 107.205 649.624 107.205C645.873 107.205 642.832 110.249 642.832 114.003C642.832 117.757 645.873 120.801 649.624 120.801Z" fill="white" stroke="#141414" stroke-miterlimit="10"/>
<path d="M668.556 83.992C672.307 83.992 675.348 80.9485 675.348 77.1942C675.348 73.4399 672.307 70.3965 668.556 70.3965C664.805 70.3965 661.764 73.4399 661.764 77.1942C661.764 80.9485 664.805 83.992 668.556 83.992Z" fill="white" stroke="#141414" stroke-miterlimit="10"/>
<path d="M668.194 101.492C671.945 101.492 674.986 98.4485 674.986 94.6942C674.986 90.9399 671.945 87.8965 668.194 87.8965C664.443 87.8965 661.402 90.9399 661.402 94.6942C661.402 98.4485 664.443 101.492 668.194 101.492Z" fill="white" stroke="#141414" stroke-miterlimit="10"/>
<path d="M670.362 120.439C674.113 120.439 677.154 117.396 677.154 113.641C677.154 109.887 674.113 106.844 670.362 106.844C666.611 106.844 663.57 109.887 663.57 113.641C663.57 117.396 666.611 120.439 670.362 120.439Z" fill="white" stroke="#141414" stroke-miterlimit="10"/>
<path d="M688.208 83.992C691.959 83.992 695 80.9485 695 77.1942C695 73.4399 691.959 70.3965 688.208 70.3965C684.457 70.3965 681.416 73.4399 681.416 77.1942C681.416 80.9485 684.457 83.992 688.208 83.992Z" fill="white" stroke="#141414" stroke-miterlimit="10"/>
<path d="M687.847 101.492C691.598 101.492 694.639 98.4485 694.639 94.6942C694.639 90.9399 691.598 87.8965 687.847 87.8965C684.096 87.8965 681.055 90.9399 681.055 94.6942C681.055 98.4485 684.096 101.492 687.847 101.492Z" fill="#BD3152"/>
<path d="M690.015 120.439C693.766 120.439 696.807 117.396 696.807 113.641C696.807 109.887 693.766 106.844 690.015 106.844C686.263 106.844 683.223 109.887 683.223 113.641C683.223 117.396 686.263 120.439 690.015 120.439Z" fill="white" stroke="#141414" stroke-miterlimit="10"/>
<path d="M707.14 83.992C710.891 83.992 713.932 80.9485 713.932 77.1942C713.932 73.4399 710.891 70.3965 707.14 70.3965C703.389 70.3965 700.348 73.4399 700.348 77.1942C700.348 80.9485 703.389 83.992 707.14 83.992Z" fill="white" stroke="#141414" stroke-miterlimit="10"/>
<path d="M706.778 101.492C710.529 101.492 713.57 98.4485 713.57 94.6942C713.57 90.9399 710.529 87.8965 706.778 87.8965C703.027 87.8965 699.986 90.9399 699.986 94.6942C699.986 98.4485 703.027 101.492 706.778 101.492Z" fill="white" stroke="#141414" stroke-miterlimit="10"/>
<path d="M708.946 120.439C712.697 120.439 715.738 117.396 715.738 113.641C715.738 109.887 712.697 106.844 708.946 106.844C705.195 106.844 702.154 109.887 702.154 113.641C702.154 117.396 705.195 120.439 708.946 120.439Z" fill="white" stroke="#141414" stroke-miterlimit="10"/>
<path d="M592.759 139.603C596.51 139.603 599.551 136.56 599.551 132.806C599.551 129.051 596.51 126.008 592.759 126.008C589.008 126.008 585.967 129.051 585.967 132.806C585.967 136.56 589.008 139.603 592.759 139.603Z" fill="white" stroke="#141414" stroke-miterlimit="10"/>
<path d="M612.052 139.314C615.803 139.314 618.844 136.271 618.844 132.516C618.844 128.762 615.803 125.719 612.052 125.719C608.301 125.719 605.26 128.762 605.26 132.516C605.26 136.271 608.301 139.314 612.052 139.314Z" fill="white" stroke="#141414" stroke-miterlimit="10"/>
<path d="M630.622 139.314C634.373 139.314 637.414 136.271 637.414 132.516C637.414 128.762 634.373 125.719 630.622 125.719C626.871 125.719 623.83 128.762 623.83 132.516C623.83 136.271 626.871 139.314 630.622 139.314Z" fill="white" stroke="#141414" stroke-miterlimit="10"/>
<path d="M649.913 138.228C653.664 138.228 656.705 135.185 656.705 131.431C656.705 127.676 653.664 124.633 649.913 124.633C646.162 124.633 643.121 127.676 643.121 131.431C643.121 135.185 646.162 138.228 649.913 138.228Z" fill="white" stroke="#141414" stroke-miterlimit="10"/>
<path d="M670.651 137.867C674.402 137.867 677.443 134.824 677.443 131.069C677.443 127.315 674.402 124.271 670.651 124.271C666.9 124.271 663.859 127.315 663.859 131.069C663.859 134.824 666.9 137.867 670.651 137.867Z" fill="white" stroke="#141414" stroke-miterlimit="10"/>
<path d="M690.304 137.867C694.055 137.867 697.096 134.824 697.096 131.069C697.096 127.315 694.055 124.271 690.304 124.271C686.553 124.271 683.512 127.315 683.512 131.069C683.512 134.824 686.553 137.867 690.304 137.867Z" fill="white" stroke="#141414" stroke-miterlimit="10"/>
<path d="M709.235 137.867C712.986 137.867 716.027 134.824 716.027 131.069C716.027 127.315 712.986 124.271 709.235 124.271C705.484 124.271 702.443 127.315 702.443 131.069C702.443 134.824 705.484 137.867 709.235 137.867Z" fill="#BD3152"/>
<path d="M616.108 56.4809H621.878V57.7949H614.494V45.6088H616.108V56.4809Z" fill="#6C6C6C"/>
<path d="M630.592 52.1622H625.315V56.4809H631.445V57.7949H623.71V45.6088H631.361V46.9312H625.315V50.8482H630.592V52.1622Z" fill="#6C6C6C"/>
<path d="M640.167 54.6145H635.066L633.92 57.7949H632.265L636.914 45.6088H638.319L642.977 57.7949H641.33L640.167 54.6145ZM635.551 53.2921H639.69L637.617 47.5924L635.551 53.2921Z" fill="#6C6C6C"/>
<path d="M644.616 57.7949V45.6088H648.053C649.112 45.6088 650.049 45.8431 650.863 46.3118C651.677 46.7805 652.304 47.4473 652.744 48.3122C653.19 49.177 653.416 50.1702 653.422 51.2918V52.0701C653.422 53.2195 653.199 54.2267 652.753 55.0915C652.312 55.9564 651.68 56.6204 650.854 57.0835C650.035 57.5466 649.079 57.7838 647.986 57.7949H644.616ZM646.222 46.9312V56.4809H647.911C649.149 56.4809 650.11 56.0959 650.796 55.3259C651.487 54.5559 651.833 53.4595 651.833 52.0366V51.3252C651.833 49.9415 651.507 48.8674 650.854 48.1029C650.208 47.3329 649.288 46.9424 648.095 46.9312H646.222Z" fill="#6C6C6C"/>
<path d="M659.443 52.3631C658.066 51.9669 657.062 51.4815 656.432 50.9067C655.808 50.3265 655.496 49.6123 655.496 48.7641C655.496 47.8044 655.878 47.0121 656.641 46.3872C657.411 45.7567 658.409 45.4414 659.635 45.4414C660.471 45.4414 661.216 45.6032 661.868 45.9268C662.526 46.2505 663.033 46.6968 663.39 47.266C663.752 47.8351 663.933 48.4572 663.933 49.1324H662.32C662.32 48.3959 662.085 47.8184 661.617 47.3999C661.149 46.9758 660.488 46.7638 659.635 46.7638C658.843 46.7638 658.225 46.9396 657.779 47.2911C657.338 47.637 657.118 48.1197 657.118 48.739C657.118 49.2356 657.327 49.6569 657.745 50.0028C658.169 50.3432 658.885 50.6557 659.894 50.9402C660.909 51.2248 661.701 51.54 662.269 51.886C662.844 52.2264 663.267 52.6253 663.54 53.0828C663.819 53.5404 663.959 54.0788 663.959 54.6982C663.959 55.6858 663.574 56.4781 662.805 57.0751C662.035 57.6666 661.007 57.9623 659.719 57.9623C658.882 57.9623 658.102 57.8033 657.377 57.4852C656.652 57.1616 656.092 56.7208 655.696 56.1629C655.306 55.6049 655.111 54.9716 655.111 54.263H656.725C656.725 54.9995 656.995 55.5826 657.536 56.0122C658.082 56.4363 658.81 56.6483 659.719 56.6483C660.566 56.6483 661.216 56.4753 661.667 56.1294C662.119 55.7834 662.345 55.3119 662.345 54.7149C662.345 54.1179 662.136 53.6576 661.717 53.3339C661.299 53.0047 660.541 52.6811 659.443 52.3631Z" fill="#6C6C6C"/>
<path d="M298.76 544.574C299.32 544.717 299.68 545.039 299.76 545.574C299.44 545.539 299.12 545.539 298.8 545.503C298.8 545.146 298.8 544.86 298.76 544.574Z" fill="#3A2647"/>
<path d="M608.037 636.979C647.127 636.979 686.217 636.979 725.308 636.979C724.441 633.291 722.634 628.808 718.66 626.855C717.649 626.349 717.215 626.421 713.169 625.77C706.015 624.613 702.403 624.107 699.729 623.022C694.744 621.07 695.322 619.623 691.492 618.9C687.301 618.105 682.027 618.9 680.798 621.648C680.22 622.95 680.943 623.601 680.22 624.686C678.847 626.638 674.295 626.927 671.405 624.975C669.382 623.601 669.599 622.082 667.576 621.142C665.336 620.13 662.951 620.925 662.373 621.142C657.026 623.022 657.46 629.097 653.558 629.965C650.451 630.688 649.078 626.927 643.659 625.843C640.046 625.119 637.084 626.06 633.76 627.217C622.994 630.832 613.239 634.81 608.037 636.979Z" fill="#2D539D"/>
<path d="M227.344 612.143C227.416 612.143 227.489 612.215 227.561 612.287C227.344 612.577 227.344 612.36 227.344 612.143Z" fill="#EDBE3A"/>
<path d="M222.76 499.65C223.842 497.436 225.587 496.329 227.391 496.62C229.677 497.028 230.579 498.252 230.76 501.166C230.639 502.331 230.218 503.322 229.076 503.846C228.955 503.963 228.835 504.079 228.715 504.196C226.128 505.07 224.264 504.429 223.121 502.273C223 502.156 222.88 502.04 222.82 501.923C222.76 501.166 222.76 500.408 222.76 499.65Z" fill="#BFCFE7"/>
<path d="M277.451 484.014C282.582 486.895 287.826 487.504 293.183 484.79C294.423 484.181 295.551 483.294 296.735 482.574C296.848 483.184 296.566 483.516 296.115 483.959C291.66 488.335 286.304 489.388 280.383 488.003C278.692 487.615 276.718 487.117 275.76 485.233C276.154 484.513 276.718 484.125 277.451 484.014Z" fill="#DCE2EF"/>
<path d="M277.76 484.285C276.962 484.408 276.347 484.837 275.979 485.574C275.733 485.574 275.426 485.574 275.181 485.574C275.181 485.022 274.874 484.592 274.321 484.408C274.198 484.285 274.076 484.162 273.953 484.039C272.233 483.18 271.804 481.337 270.76 479.925C272.172 479.311 273.277 479.434 274.321 480.846C275.242 482.136 276.593 483.18 277.76 484.285Z" fill="#BFCFE7"/>
<rect x="114.248" y="332.574" width="246.524" height="145.22" rx="18" fill="#5D6FB5"/>
<rect x="120.236" y="338.064" width="234.547" height="134.241" rx="9" fill="white"/>
<path d="M107.76 476.297H366.76V476.297C366.76 484.565 360.057 491.268 351.789 491.268H122.731C114.463 491.268 107.76 484.565 107.76 476.297V476.297Z" fill="#3C52A3"/>
<path d="M210.561 485.779H264.457L261.712 491.269H213.056L210.561 485.779Z" fill="#090E2B"/>
<circle cx="156.167" cy="375.991" r="19.9615" fill="#DCD6FF"/>
<circle cx="156.167" cy="435.876" r="19.9615" fill="#FFDFEA"/>
<rect x="186.607" y="356.029" width="48.9056" height="5.98844" rx="2.99422" fill="#C7D2F2"/>
<rect x="186.607" y="415.914" width="48.9056" height="5.98844" rx="2.99422" fill="#C7D2F2"/>
<rect x="186.607" y="375.492" width="112.283" height="1.49711" rx="0.748555" fill="#C7D2F2"/>
<rect x="186.607" y="435.375" width="112.283" height="1.49711" rx="0.748555" fill="#C7D2F2"/>
<rect x="186.607" y="383.975" width="80.8439" height="1.49711" rx="0.748555" fill="#C7D2F2"/>
<rect x="186.607" y="443.859" width="80.8439" height="1.49711" rx="0.748555" fill="#C7D2F2"/>
<rect x="186.607" y="390.463" width="68.368" height="1.49711" rx="0.748555" fill="#C7D2F2"/>
<rect x="186.607" y="450.348" width="68.368" height="1.49711" rx="0.748555" fill="#C7D2F2"/>
<path d="M189.602 365.51L190.274 367.579L192.449 367.579L190.689 368.857L191.362 370.926L189.602 369.648L187.842 370.926L188.514 368.857L186.754 367.579L188.929 367.579L189.602 365.51Z" fill="#FFB201"/>
<path d="M189.602 425.395L190.274 427.463L192.449 427.463L190.689 428.742L191.362 430.811L189.602 429.532L187.842 430.811L188.514 428.742L186.754 427.463L188.929 427.463L189.602 425.395Z" fill="#FFB201"/>
<path d="M195.59 365.51L196.262 367.579L198.438 367.579L196.678 368.857L197.35 370.926L195.59 369.648L193.83 370.926L194.502 368.857L192.742 367.579L194.918 367.579L195.59 365.51Z" fill="#FFB201"/>
<path d="M195.59 425.395L196.262 427.463L198.438 427.463L196.678 428.742L197.35 430.811L195.59 429.532L193.83 430.811L194.502 428.742L192.742 427.463L194.918 427.463L195.59 425.395Z" fill="#FFB201"/>
<path d="M207.566 365.51L208.239 367.579L210.414 367.579L208.654 368.857L209.326 370.926L207.566 369.648L205.807 370.926L206.479 368.857L204.719 367.579L206.894 367.579L207.566 365.51Z" fill="#FFB201"/>
<path d="M207.566 425.395L208.239 427.463L210.414 427.463L208.654 428.742L209.326 430.811L207.566 429.532L205.807 430.811L206.479 428.742L204.719 427.463L206.894 427.463L207.566 425.395Z" fill="#FFB201"/>
<path d="M201.578 365.51L202.25 367.579L204.426 367.579L202.666 368.857L203.338 370.926L201.578 369.648L199.818 370.926L200.49 368.857L198.731 367.579L200.906 367.579L201.578 365.51Z" fill="#FFB201"/>
<path d="M201.578 425.395L202.25 427.463L204.426 427.463L202.666 428.742L203.338 430.811L201.578 429.532L199.818 430.811L200.49 428.742L198.731 427.463L200.906 427.463L201.578 425.395Z" fill="#FFB201"/>
<path d="M213.555 365.51L214.227 367.579L216.402 367.579L214.642 368.857L215.315 370.926L213.555 369.648L211.795 370.926L212.467 368.857L210.707 367.579L212.883 367.579L213.555 365.51Z" fill="#FFB201"/>
<path d="M213.555 425.395L214.227 427.463L216.402 427.463L214.642 428.742L215.315 430.811L213.555 429.532L211.795 430.811L212.467 428.742L210.707 427.463L212.883 427.463L213.555 425.395Z" fill="#FFB201"/>
<path d="M212.689 505.848C213.959 504.634 216.441 503.421 218.289 504.288C220.54 505.328 220.54 508.91 222.561 509.141C223.715 509.314 224.697 508.332 224.986 508.737C225.216 509.083 224.697 509.95 224.408 510.354C223.542 511.683 222.792 512.03 221.984 512.954C220.713 514.341 221.06 515.15 220.252 516.132C218.693 518.039 214.536 518.674 212.054 516.594C208.994 514.052 209.918 508.39 212.689 505.848Z" fill="#8CA6D3"/>
<path d="M259.912 521.91C259.277 521.967 258.584 521.967 257.949 522.025C256.102 521.101 254.947 522.43 253.85 523.47C248.539 528.15 241.958 529.479 235.377 530.75C235.261 528.612 235.203 526.474 235.088 524.336C237.801 524.279 239.995 522.43 242.131 521.332C247.154 518.847 251.945 515.438 253.331 509.256C253.677 508.794 254.081 508.274 254.428 507.812C255.64 503.478 251.945 497.816 258.065 494.869C258.353 495.678 258.7 496.429 258.93 497.296C259.392 498.914 258.065 501.283 260.143 502.034C262.741 502.958 261.586 499.78 262.683 499.087C263.26 498.683 264.357 499.145 265.223 499.203C265.454 504.865 264.299 510.296 261.702 515.323C260.605 517.345 259.796 519.483 259.912 521.91Z" fill="#8CA6D3"/>
<path d="M186.19 507.928C184.574 499.204 183.304 490.479 183.419 481.581C185.267 481.235 187.056 480.079 189.077 481.061C190.751 481.87 191.328 480.946 191.502 479.443C193.06 480.021 192.252 482.679 194.388 482.795C193.58 489.439 193.58 496.026 195.947 502.439C195.947 503.595 195.658 504.808 196.986 505.502C197.159 505.964 197.275 506.426 197.448 506.888C197.217 507.177 197.101 507.524 197.159 507.928C197.852 508.333 198.545 508.737 199.295 509.142C199.295 509.72 199.295 510.297 199.238 510.933C197.737 513.128 196.466 515.613 193.984 516.884C190.636 515.151 189.885 511.222 187.172 508.968C186.825 508.622 186.479 508.275 186.19 507.928Z" fill="#8CA6D3"/>
<path d="M265.223 499.145C264.357 499.087 263.26 498.683 262.683 499.029C261.586 499.723 262.741 502.901 260.143 501.976C258.064 501.225 259.392 498.856 258.93 497.238C258.699 496.429 258.353 495.62 258.064 494.811C258.064 494.06 258.064 493.309 258.064 492.558C259.335 490.42 263.607 492.327 263.664 488.456C265.108 488.282 266.147 488.86 266.782 490.189C266.666 491.403 265.916 492.674 266.782 493.945C265.396 495.447 265.743 497.412 265.223 499.145Z" fill="#334898"/>
<path d="M191.502 479.443C191.271 480.887 190.694 481.87 189.078 481.061C187.057 480.078 185.325 481.292 183.42 481.581C183.247 480.252 183.074 478.923 182.9 477.594C184.575 476.612 184.921 473.896 187.461 474.127C189.366 475.456 192.08 476.207 191.502 479.443Z" fill="#334898"/>
<path d="M235.32 530.751C234.628 536.76 234.397 536.933 226.141 535.489C222.62 534.853 219.156 533.986 219.618 539.591C213.787 539.475 207.956 539.36 202.068 539.244C202.125 537.164 202.125 535.142 202.183 533.062C203.049 529.653 203.049 527.515 198.315 527.111C193.062 526.706 191.503 522.43 193.928 516.941C196.468 515.67 197.68 513.186 199.181 510.99C201.433 513.359 203.684 515.786 205.936 518.155C205.185 521.795 206.455 524.684 209.804 526.013C212.401 527.053 214.711 525.955 215.75 523.066C215.981 523.066 216.212 522.95 216.385 522.777C218.174 524.164 220.253 524.511 222.446 524.453C226.661 524.395 230.875 524.395 235.032 524.395C235.147 526.475 235.263 528.613 235.32 530.751Z" fill="#F9D460"/>
<path d="M202.067 539.186C207.898 539.301 213.729 539.417 219.617 539.532C220.714 547.564 221.811 555.537 222.908 563.568C222.966 564.262 223.024 564.955 223.081 565.648C222.793 572.235 223.889 578.706 224.409 585.235C224.467 585.987 224.467 586.738 224.525 587.489C224.409 595.116 225.852 602.569 226.487 610.138C225.39 610.08 224.755 610.716 224.294 611.583C223.428 611.525 222.619 611.467 221.753 611.409C220.599 610.369 219.617 608.867 217.655 609.56C215.23 609.445 212.805 609.329 210.381 609.271C210.265 606.325 210.15 603.436 210.092 600.489C210.092 589.049 210.092 577.551 210.092 566.111C209.572 566.111 209.053 566.111 208.533 566.111C207.321 577.551 206.224 588.991 207.09 600.489C206.513 603.436 207.725 606.267 207.898 609.156C202.645 609.156 197.334 609.156 192.08 609.098C193.985 585.698 196.872 562.47 201.375 539.417C201.548 539.532 201.837 539.417 202.067 539.186Z" fill="#378C51"/>
<path d="M210.322 609.33C212.747 609.446 215.171 609.562 217.596 609.619C218.116 612.104 220.021 611.526 221.695 611.468C222.561 611.526 223.369 611.584 224.235 611.642C225.274 612.624 226.256 613.664 227.295 614.646C228.507 615.686 230.643 616.322 230.124 618.171C229.662 619.731 227.41 619.557 225.967 620.077C222.272 619.384 218.347 619.268 214.883 617.882C211.765 616.668 209.283 616.668 206.396 618.113C205.588 618.517 204.318 617.882 203.221 617.766C200.912 617.535 198.603 617.362 196.236 617.131C189.597 617.304 191.156 613.028 191.906 609.215C197.16 609.215 202.471 609.215 207.724 609.273C208.59 609.446 209.341 612.971 210.322 609.33Z" fill="#E4363F"/>
<path d="M232.78 618.17C232.664 619.037 232.606 619.846 232.491 620.712C230.124 621.406 227.815 620.597 225.506 620.423C225.621 620.25 225.736 620.077 225.91 620.019C227.411 619.499 229.604 619.672 230.066 618.112C230.586 616.321 228.45 615.628 227.237 614.588C226.141 613.663 225.159 612.623 224.178 611.583C224.64 610.659 225.275 610.081 226.371 610.139C227.757 613.49 232.029 614.414 232.78 618.17Z" fill="#CB3E4E"/>
<path d="M214.363 501.919C217.307 501.63 216.153 502.093 218.289 504.288C213.843 514.053 215.287 521.737 217.307 531.329C215.113 536.76 210.38 538.898 205.068 536.933C198.256 534.391 195.601 528.902 197.159 521.911C206.338 519.484 202.124 510.239 206.685 505.444C207.089 504.693 214.017 502.613 214.363 501.919Z" fill="#E4363F"/>
<path d="M221.695 611.41C220.02 611.468 218.115 612.103 217.596 609.561C219.501 608.868 220.482 610.428 221.695 611.41Z" fill="#CB3E4E"/>
<path d="M175.26 619.574C179.402 619.574 182.76 617.559 182.76 615.074C182.76 612.589 179.402 610.574 175.26 610.574C171.118 610.574 167.76 612.589 167.76 615.074C167.76 617.559 171.118 619.574 175.26 619.574Z" fill="#8CA6D3"/>
<path d="M247.26 623.574C251.402 623.574 254.76 621.56 254.76 619.074C254.76 616.589 251.402 614.574 247.26 614.574C243.118 614.574 239.76 616.589 239.76 619.074C239.76 621.56 243.118 623.574 247.26 623.574Z" fill="#8CA6D3"/>
<path d="M254.26 623.574C258.402 623.574 261.76 621.56 261.76 619.074C261.76 616.589 258.402 614.574 254.26 614.574C250.118 614.574 246.76 616.589 246.76 619.074C246.76 621.56 250.118 623.574 254.26 623.574Z" fill="#334898"/>
<path d="M179.26 620.574C183.402 620.574 186.76 618.56 186.76 616.074C186.76 613.589 183.402 611.574 179.26 611.574C175.118 611.574 171.76 613.589 171.76 616.074C171.76 618.56 175.118 620.574 179.26 620.574Z" fill="#334898"/>
<path d="M551.102 198.411C553.119 191.824 556.53 185.574 561.237 180.526L561.67 180.045L562.15 179.564L563.063 178.651C563.687 178.074 564.36 177.497 564.984 176.92C565.657 176.391 566.329 175.814 567.05 175.334L569.211 173.843C572.142 172.016 575.312 170.478 578.579 169.372C581.893 168.266 585.304 167.593 588.714 167.209L591.308 167.016C592.173 166.968 593.038 166.968 593.902 166.968C594.767 166.92 595.632 167.016 596.496 167.064C597.361 167.112 598.226 167.112 599.09 167.257L601.684 167.593C602.549 167.737 603.366 167.93 604.23 168.074C604.663 168.17 605.095 168.218 605.479 168.314L606.728 168.651L607.977 168.987C608.409 169.084 608.794 169.18 609.226 169.324L611.676 170.141C612.493 170.43 613.309 170.766 614.078 171.055L615.279 171.536C615.663 171.68 616.047 171.92 616.432 172.064L618.785 173.17L616.432 172.112C616.047 171.92 615.663 171.776 615.231 171.584L614.03 171.151C613.213 170.862 612.445 170.526 611.58 170.286L609.13 169.516C608.698 169.372 608.313 169.276 607.881 169.18L606.632 168.891L605.383 168.603C604.951 168.507 604.518 168.459 604.134 168.362C603.27 168.218 602.453 168.074 601.588 167.93L599.042 167.641C598.178 167.497 597.313 167.545 596.448 167.497C595.584 167.449 594.719 167.401 593.854 167.449C592.99 167.449 592.125 167.449 591.26 167.497L588.714 167.689C585.304 168.074 581.941 168.747 578.675 169.853C575.408 170.959 572.334 172.449 569.404 174.228L567.29 175.67C566.569 176.151 565.945 176.728 565.272 177.257C564.6 177.834 563.975 178.363 563.351 178.939L562.438 179.853L561.958 180.286L561.526 180.766C559.172 183.266 557.106 186.007 555.377 188.988C553.599 191.968 552.206 195.141 551.102 198.411Z" fill="#6C6C6C"/>
<path d="M621.474 167.786C621.474 168.988 620.37 169.997 618.976 169.997C618.16 169.997 617.583 169.613 617.487 169.565C617.391 169.517 616.479 168.843 616.479 167.786C616.479 166.632 617.679 165.574 618.976 165.574C620.37 165.574 621.474 166.536 621.474 167.786Z" stroke="#6C6C6C" stroke-miterlimit="10"/>
<path d="M620.273 181.248C621.653 181.248 622.771 180.129 622.771 178.748C622.771 177.367 621.653 176.248 620.273 176.248C618.894 176.248 617.775 177.367 617.775 178.748C617.775 180.129 618.894 181.248 620.273 181.248Z" stroke="#6C6C6C" stroke-miterlimit="10"/>
<path d="M617.631 169.854C617.967 170.575 618.255 171.392 618.495 172.354C618.928 173.988 619.072 175.43 619.12 176.632" stroke="#6C6C6C" stroke-miterlimit="10"/>
<path d="M620.993 169.42C620.849 170.093 620.753 170.814 620.705 171.583C620.609 173.458 620.849 175.045 621.09 176.247" stroke="#6C6C6C" stroke-miterlimit="10"/>
<path d="M618.256 167.834C618.544 167.834 618.544 167.354 618.256 167.354C617.92 167.354 617.92 167.834 618.256 167.834Z" fill="#6C6C6C"/>
<path d="M620.033 167.256C620.321 167.256 620.321 166.775 620.033 166.775C619.744 166.775 619.744 167.256 620.033 167.256Z" fill="#6C6C6C"/>
<path d="M619.024 169.371C619.312 169.371 619.312 168.891 619.024 168.891C618.687 168.891 618.687 169.371 619.024 169.371Z" fill="#6C6C6C"/>
<path d="M620.466 168.7C620.754 168.7 620.754 168.219 620.466 168.219C620.178 168.219 620.178 168.7 620.466 168.7Z" fill="#6C6C6C"/>
<path d="M618.783 166.825C619.072 166.825 619.072 166.344 618.783 166.344C618.447 166.344 618.447 166.825 618.783 166.825Z" fill="#6C6C6C"/>
<path d="M617.824 168.94C618.113 168.94 618.113 168.459 617.824 168.459C617.488 168.459 617.488 168.94 617.824 168.94Z" fill="#6C6C6C"/>
<path d="M619.457 179.084C619.745 179.084 619.745 178.604 619.457 178.604C619.121 178.604 619.121 179.084 619.457 179.084Z" fill="#6C6C6C"/>
<path d="M620.225 177.881C620.513 177.881 620.513 177.4 620.225 177.4C619.889 177.4 619.889 177.881 620.225 177.881Z" fill="#6C6C6C"/>
<path d="M621.138 178.026C621.426 178.026 621.426 177.545 621.138 177.545C620.85 177.545 620.85 178.026 621.138 178.026Z" fill="#6C6C6C"/>
<path d="M620.994 179.516C621.283 179.516 621.283 179.035 620.994 179.035C620.658 179.035 620.658 179.516 620.994 179.516Z" fill="#6C6C6C"/>
<path d="M620.13 180.43C620.418 180.43 620.418 179.949 620.13 179.949C619.842 179.949 619.842 180.43 620.13 180.43Z" fill="#6C6C6C"/>
<path d="M620.13 179.229C620.418 179.229 620.418 178.748 620.13 178.748C619.842 178.748 619.842 179.229 620.13 179.229Z" fill="#6C6C6C"/>
<path d="M549.516 194.133C550.284 195.095 550.044 196.537 548.939 197.403C548.315 197.883 547.642 197.98 547.498 197.98C547.402 197.98 546.249 198.028 545.625 197.21C544.904 196.297 545.193 194.71 546.201 193.941C547.258 193.124 548.747 193.172 549.516 194.133Z" stroke="#6C6C6C" stroke-miterlimit="10"/>
<path d="M555.424 205.912C556.803 205.912 557.922 204.793 557.922 203.412C557.922 202.031 556.803 200.912 555.424 200.912C554.044 200.912 552.926 202.031 552.926 203.412C552.926 204.793 554.044 205.912 555.424 205.912Z" stroke="#6C6C6C" stroke-miterlimit="10"/>
<path d="M547.787 198.172C548.508 198.556 549.228 198.989 550.045 199.566C551.39 200.576 552.447 201.633 553.215 202.499" stroke="#6C6C6C" stroke-miterlimit="10"/>
<path d="M550.188 195.721C550.476 196.298 550.86 196.923 551.34 197.596C552.397 199.086 553.598 200.192 554.607 201.009" stroke="#6C6C6C" stroke-miterlimit="10"/>
<path d="M546.874 196.248C547.163 196.248 547.163 195.768 546.874 195.768C546.586 195.768 546.586 196.248 546.874 196.248Z" fill="#6C6C6C"/>
<path d="M547.882 194.662C548.17 194.662 548.17 194.182 547.882 194.182C547.594 194.182 547.594 194.662 547.882 194.662Z" fill="#6C6C6C"/>
<path d="M548.459 196.969C548.747 196.969 548.747 196.488 548.459 196.488C548.123 196.488 548.123 196.969 548.459 196.969Z" fill="#6C6C6C"/>
<path d="M549.132 195.528C549.42 195.528 549.42 195.047 549.132 195.047C548.844 195.047 548.844 195.528 549.132 195.528Z" fill="#6C6C6C"/>
<path d="M546.634 195.143C546.922 195.143 546.922 194.662 546.634 194.662C546.346 194.662 546.346 195.143 546.634 195.143Z" fill="#6C6C6C"/>
<path d="M547.258 197.403C547.546 197.403 547.546 196.922 547.258 196.922C546.922 196.922 546.922 197.403 547.258 197.403Z" fill="#6C6C6C"/>
<path d="M554.847 204.278C555.135 204.278 555.135 203.797 554.847 203.797C554.559 203.797 554.559 204.278 554.847 204.278Z" fill="#6C6C6C"/>
<path d="M554.703 202.836C554.992 202.836 554.992 202.355 554.703 202.355C554.367 202.355 554.367 202.836 554.703 202.836Z" fill="#6C6C6C"/>
<path d="M555.521 202.403C555.809 202.403 555.809 201.922 555.521 201.922C555.233 201.922 555.233 202.403 555.521 202.403Z" fill="#6C6C6C"/>
<path d="M556.336 203.604C556.624 203.604 556.624 203.123 556.336 203.123C556 203.123 556 203.604 556.336 203.604Z" fill="#6C6C6C"/>
<path d="M556.242 204.903C556.53 204.903 556.53 204.422 556.242 204.422C555.953 204.422 555.953 204.903 556.242 204.903Z" fill="#6C6C6C"/>
<path d="M555.472 203.942C555.76 203.942 555.76 203.461 555.472 203.461C555.184 203.461 555.184 203.942 555.472 203.942Z" fill="#6C6C6C"/>
<path d="M517.863 143.637C520.175 143.637 520.175 140.021 517.863 140.021C515.478 140.021 515.478 143.637 517.863 143.637Z" fill="#F6E820"/>
<path d="M529.494 149.495C531.806 149.495 531.806 145.879 529.494 145.879C527.182 145.879 527.182 149.495 529.494 149.495Z" fill="#F6E820"/>
<path d="M539.756 140.528C542.068 140.528 542.068 136.912 539.756 136.912C537.443 136.912 537.443 140.528 539.756 140.528Z" fill="#F6E820"/>
<path d="M560.261 158.897C562.573 158.897 562.573 155.281 560.261 155.281C557.877 155.281 557.877 158.897 560.261 158.897Z" fill="#F6E820"/>
<path d="M528.554 160.27C530.867 160.27 530.867 156.654 528.554 156.654C526.242 156.654 526.242 160.27 528.554 160.27Z" fill="#F6E820"/>
<path d="M531.3 130.62C533.612 130.62 533.612 127.004 531.3 127.004C528.916 127.004 528.916 130.62 531.3 130.62Z" fill="#F6E820"/>
<path d="M270.71 542.883C272.557 542.883 272.557 539.994 270.71 539.994C268.862 539.994 268.862 542.883 270.71 542.883Z" fill="#F6E820"/>
<path d="M282.196 543.231C284.044 543.231 284.044 540.342 282.196 540.342C280.291 540.342 280.291 543.231 282.196 543.231Z" fill="#F6E820"/>
<path d="M281.794 530.346C283.641 530.346 283.641 527.457 281.794 527.457C279.946 527.457 279.946 530.346 281.794 530.346Z" fill="#F6E820"/>
<path d="M271.46 537.164C273.307 537.164 273.307 534.275 271.46 534.275C269.555 534.275 269.555 537.164 271.46 537.164Z" fill="#F6E820"/>
<path d="M278.964 537.51C280.811 537.51 280.811 534.621 278.964 534.621C277.116 534.621 277.116 537.51 278.964 537.51Z" fill="#F6E820"/>
<path d="M274.636 529.305C276.483 529.305 276.483 526.416 274.636 526.416C272.788 526.416 272.788 529.305 274.636 529.305Z" fill="#F6E820"/>
<path d="M552.617 462.19C554.929 462.19 554.929 458.574 552.617 458.574C550.305 458.574 550.305 462.19 552.617 462.19Z" fill="#F6E820"/>
<path d="M560.492 463.782C562.804 463.782 562.804 460.166 560.492 460.166C558.18 460.166 558.18 463.782 560.492 463.782Z" fill="#F6E820"/>
<path d="M553.412 472.098C555.724 472.098 555.724 468.482 553.412 468.482C551.1 468.482 551.1 472.098 553.412 472.098Z" fill="#F6E820"/>
<path d="M537.66 457.057C539.972 457.057 539.972 453.441 537.66 453.441C535.348 453.441 535.348 457.057 537.66 457.057Z" fill="#F6E820"/>
<path d="M547.486 456.26C549.798 456.26 549.798 452.645 547.486 452.645C545.174 452.645 545.174 456.26 547.486 456.26Z" fill="#F6E820"/>
<path d="M545.173 467.327C547.485 467.327 547.485 463.711 545.173 463.711C542.789 463.711 542.789 467.327 545.173 467.327Z" fill="#F6E820"/>
<path d="M557.384 467.327C559.697 467.327 559.697 463.711 557.384 463.711C555.072 463.711 555.072 467.327 557.384 467.327Z" fill="#F6E820"/>
<path d="M648.861 538.413C651.173 538.413 651.173 534.797 648.861 534.797C646.549 534.797 646.549 538.413 648.861 538.413Z" fill="#F6E820"/>
<path d="M659.121 541.956C661.433 541.956 661.433 538.34 659.121 538.34C656.809 538.34 656.809 541.956 659.121 541.956Z" fill="#F6E820"/>
<path d="M681.23 529.735C683.542 529.735 683.542 526.119 681.23 526.119C678.918 526.119 678.918 529.735 681.23 529.735Z" fill="#F6E820"/>
<path d="M660.349 530.891C662.661 530.891 662.661 527.275 660.349 527.275C657.964 527.275 657.964 530.891 660.349 530.891Z" fill="#F6E820"/>
<path d="M668.586 536.026C670.898 536.026 670.898 532.41 668.586 532.41C666.274 532.41 666.274 536.026 668.586 536.026Z" fill="#F6E820"/>
<path d="M676.101 539.208C678.414 539.208 678.414 535.592 676.101 535.592C673.789 535.592 673.789 539.208 676.101 539.208Z" fill="#F6E820"/>
<path d="M674.945 527.348C677.257 527.348 677.257 523.732 674.945 523.732C672.56 523.732 672.56 527.348 674.945 527.348Z" fill="#F6E820"/>
<circle cx="111.26" cy="201.074" r="5.5" fill="#EAF1FC"/>
<circle cx="111.26" cy="201.074" r="2.75" fill="#5E99F2"/>
<circle cx="194.26" cy="258.074" r="5.5" fill="#FCF4EA"/>
<circle cx="194.26" cy="258.074" r="2.75" fill="#F2935E"/>
<circle cx="362.26" cy="201.074" r="5.5" fill="#EAF1FC"/>
<circle cx="362.26" cy="201.074" r="2.75" fill="#5E99F2"/>
<circle cx="281.26" cy="326.074" r="5.5" fill="#EAF1FC"/>
<circle cx="281.26" cy="326.074" r="2.75" fill="#5E99F2"/>
<path d="M276.366 600.242H253.148L253.976 615.278C254.21 619.519 257.717 622.838 261.964 622.838H267.551C271.798 622.838 275.305 619.519 275.539 615.278L276.366 600.242Z" fill="#F0F1FF"/>
<path d="M274.708 595.888C270.728 599.537 267.66 594.368 266.623 591.328C266.623 576.402 274.708 575.158 283.415 573.914C290.38 572.919 293.642 569.492 294.402 567.902C295.645 570.597 293.78 576.816 286.731 580.755C279.683 584.694 279.683 591.328 274.708 595.888Z" fill="#009BA0"/>
<path d="M269.318 600.45C269.318 596.442 271.018 587.266 277.818 582.622C286.317 576.818 294.402 574.123 294.402 569.77" stroke="#141414"/>
<path d="M267.867 581.584L270.562 583.657" stroke="white"/>
<path d="M252.318 579.926C249.665 573.79 250.245 563.135 250.867 558.574C255.566 563.757 265.296 575.283 266.622 579.926C268.281 585.731 265.793 594.645 264.135 594.645C262.476 594.645 255.635 587.597 252.318 579.926Z" fill="#009BA0"/>
<path d="M262.062 583.658L264.757 576.609" stroke="#141414"/>
<path d="M263.514 592.779C263.721 590.844 263.224 585.399 259.575 579.097C255.014 571.219 251.49 560.232 251.49 558.781" stroke="#141414"/>
<path d="M257.502 574.744L259.575 568.732" stroke="#141414"/>
<path d="M252.111 579.512H259.989" stroke="#141414"/>
<path d="M254.392 579.097C251.075 572.795 237.255 569.7 230.76 568.939C235.528 576.817 247.759 588.219 251.905 588.633C255.222 588.965 257.433 590.153 258.124 590.706C258.262 589.462 257.709 585.399 254.392 579.097Z" fill="#017C7F"/>
<path d="M245.479 571.428L246.722 575.159M245.479 585.939H249.003" stroke="white"/>
<path d="M286.523 571.842V574.329" stroke="#141414"/>
<defs>
<linearGradient id="paint0_linear_2_795" x1="174.011" y1="486.872" x2="459.29" y2="396.682" gradientUnits="userSpaceOnUse">
<stop stop-color="#E7EBAE" stop-opacity="0.17"/>
<stop offset="1" stop-color="white"/>
</linearGradient>
<linearGradient id="paint1_linear_2_795" x1="648.406" y1="243.77" x2="425.551" y2="460.266" gradientUnits="userSpaceOnUse">
<stop stop-color="#E7EBAE" stop-opacity="0.21"/>
<stop offset="1" stop-color="white"/>
</linearGradient>
</defs>
</svg>
