<svg width="159" height="152" viewBox="0 0 159 152" fill="none" xmlns="http://www.w3.org/2000/svg">
<path d="M71.704 97.5583C71.6493 99.0233 70.9111 100.101 69.9541 101.124C66.3177 105.049 62.7633 109.057 59.0996 112.954C58.1153 114.005 58.0606 114.723 58.9629 115.912C62.3532 120.39 65.6342 124.978 68.9425 129.511C69.5714 130.396 70.1729 131.225 71.4853 131.197C78.0746 131.087 84.6366 131.059 91.2259 131.031C91.718 131.031 91.9094 130.755 91.9641 130.313C96.1473 125.641 99.401 120.251 103.256 115.359C104.131 114.253 103.311 113.728 102.737 113.065C99.1823 109.167 95.6279 105.27 92.0735 101.373C89.7221 98.7745 89.6127 96.7014 91.7453 94.4625C93.7413 92.3618 96.4207 92.2236 98.7174 94.5178C102.627 98.4428 106.318 102.589 110.092 106.652C111.65 108.311 113.181 109.997 114.685 111.71C116.927 114.281 117.036 115.995 115.04 118.787C110.611 124.895 106.236 131.059 101.643 137.057C100.003 139.213 99.319 141.341 99.3736 144.05C99.5377 151.817 99.4283 151.817 91.636 151.817C82.8594 151.845 74.11 151.9 65.3334 151.956C63.2008 151.983 62.0524 151.043 62.4079 148.777C63.3922 142.558 61.1502 137.555 57.1583 132.883C53.4672 128.516 50.2956 123.679 46.9326 119.035C44.6906 115.939 44.7452 114.281 47.2607 111.517C52.1001 106.21 56.9396 100.903 61.8611 95.6511C65.9349 91.3391 69.544 92.0578 71.704 97.5583Z" fill="#BABABA"/>
<path d="M81.4106 102.424C92.4566 103.391 97.0773 115.388 91.2536 123.238C87.9726 127.633 82.4496 129.567 77.282 127.992C72.0598 126.416 68.4234 121.856 68.0132 116.355C67.6305 111.02 70.7474 105.824 75.6962 103.613C76.3524 103.308 77.036 103.06 77.6922 102.783C78.9225 102.673 80.1802 102.535 81.4106 102.424Z" fill="#BABABA"/>
<path d="M91.9384 130.313C91.8837 130.755 91.6923 131.06 91.2002 131.032C91.4463 130.811 91.6923 130.562 91.9384 130.313Z" fill="#BABABA"/>
<path d="M81.7646 9.46692H80.5342V11.4855H81.7646V9.46692Z" fill="black"/>
<path d="M81.7646 5.84583H80.5342V7.86487H81.7646V5.84583Z" fill="black"/>
<path d="M81.7646 2.22668H80.5342V4.24524H81.7646V2.22668Z" fill="black"/>
<path d="M81.7646 20.3575H80.5342V22.3761H81.7646V20.3575Z" fill="black"/>
<path d="M81.7646 16.7365H80.5342V18.7545H81.7646V16.7365Z" fill="black"/>
<path d="M81.7646 13.1154H80.5342V15.1339H81.7646V13.1154Z" fill="black"/>
<path d="M81.7646 31.2482H80.5342V33.2672H81.7646V31.2482Z" fill="black"/>
<path d="M81.7646 27.629H80.5342V29.6476H81.7646V27.629Z" fill="black"/>
<path d="M81.7646 24.0079H80.5342V26.0265H81.7646V24.0079Z" fill="black"/>
<path d="M81.7646 42.1407H80.5342V44.1588H81.7646V42.1407Z" fill="black"/>
<path d="M81.7646 38.5197H80.5342V40.5377H81.7646V38.5197Z" fill="black"/>
<path d="M81.7646 34.8986H80.5342V36.9176H81.7646V34.8986Z" fill="black"/>
<path d="M81.7646 53.0294H80.5342V55.048H81.7646V53.0294Z" fill="black"/>
<path d="M81.7646 49.4083H80.5342V51.4279H81.7646V49.4083Z" fill="black"/>
<path d="M81.7646 45.7872H80.5342V47.8063H81.7646V45.7872Z" fill="black"/>
<path d="M81.7646 63.9474H80.5342V65.9655H81.7646V63.9474Z" fill="black"/>
<path d="M81.7646 60.299H80.5342V62.3175H81.7646V60.299Z" fill="black"/>
<path d="M81.7646 56.7072H80.5342V58.7257H81.7646V56.7072Z" fill="black"/>
<path d="M81.7646 74.84H80.5342V76.858H81.7646V74.84Z" fill="black"/>
<path d="M81.7646 71.1896H80.5342V73.2086H81.7646V71.1896Z" fill="black"/>
<path d="M81.7646 67.5978H80.5342V69.6149H81.7646V67.5978Z" fill="black"/>
<path d="M81.7646 85.7286H80.5342V87.7467H81.7646V85.7286Z" fill="black"/>
<path d="M81.7646 82.1075H80.5342V84.1251H81.7646V82.1075Z" fill="black"/>
<path d="M81.7646 78.4865H80.5342V80.5055H81.7646V78.4865Z" fill="black"/>
<path d="M81.7646 96.6193H80.5342V98.6378H81.7646V96.6193Z" fill="black"/>
<path d="M81.7646 92.9982H80.5342V95.0172H81.7646V92.9982Z" fill="black"/>
<path d="M81.7646 89.3771H80.5342V91.3961H81.7646V89.3771Z" fill="black"/>
<path d="M11.3689 58.3371C11.3689 50.874 11.3689 43.4109 11.3689 35.9202C11.3689 35.0081 11.3415 35.1463 12.1071 35.1463C26.8168 35.1463 41.5539 35.1463 56.2637 35.1463C57.0019 35.1463 57.0019 35.1463 57.0019 35.9202C57.0019 50.8188 57.0019 65.7173 57.0019 80.6158C57.0019 81.3898 57.0019 81.3898 56.2637 81.3898C41.5539 81.3898 26.8168 81.3898 12.1071 81.3898C11.5329 81.3898 11.3415 81.2792 11.3689 80.6435C11.3962 73.2357 11.3689 65.7726 11.3689 58.3371Z" fill="#8CC199"/>
<path d="M57.6573 73.2076C57.6026 72.406 57.3565 71.6044 57.876 70.9134C57.9307 70.8305 57.9854 70.7476 57.9033 70.637C57.3838 70.0013 57.7119 69.2826 57.6573 68.5916C57.6299 68.3152 57.8486 68.177 58.0947 68.1493C58.2041 68.1493 58.2861 68.1493 58.3955 68.1493C59.7079 68.1217 59.7079 68.1217 59.7079 66.7673C59.7079 55.4898 59.7079 44.2399 59.7079 32.9624C59.7079 32.0779 58.8056 31.3316 57.9307 31.4698C57.6299 31.5251 57.6573 31.6909 57.6573 31.8844C57.6573 32.5478 57.6299 33.1835 57.6573 33.8469C57.6846 34.3721 57.5205 34.5103 57.001 34.5103C50.4938 34.4826 43.9865 34.4826 37.4792 34.4826C28.8119 34.4826 20.1174 34.4826 11.4501 34.4826C10.6845 34.4826 10.6845 34.4827 10.6845 33.7087C10.6845 33.1835 10.7119 32.6307 10.6845 32.1055C10.6845 31.8844 10.8212 31.5527 10.5204 31.4974C10.2197 31.4421 9.83689 31.3316 9.56348 31.608C9.34475 31.8015 9.12605 31.995 8.85264 32.1332C8.68859 32.2161 8.66119 32.3543 8.66119 32.5201C8.66119 32.6584 8.66119 32.7966 8.66119 32.9348C8.66119 44.3505 8.66119 55.7662 8.66119 67.2095C8.66119 68.2875 8.55188 68.1217 9.53618 68.1493C10.7119 68.1493 10.7392 68.1493 10.7118 69.3379C10.7118 69.7801 10.9032 70.3053 10.4384 70.6646C10.3564 70.7476 10.4384 70.8581 10.4931 70.9411C11.04 71.6321 10.7392 72.4337 10.7118 73.2352C10.329 72.5719 9.94626 71.8808 9.56348 71.2175C9.48145 71.0793 9.39946 70.9411 9.31743 70.8028C9.20807 70.637 9.01666 70.637 8.82527 70.6923C8.60654 70.7476 8.66119 70.9411 8.66119 71.0793C8.66119 72.2955 8.66119 73.5393 8.66119 74.7555C8.66119 76.6627 8.66119 78.5423 8.66119 80.4495C8.66119 80.8089 8.66121 81.0576 8.1964 81.0576C7.7316 81.0576 7.70424 80.8365 7.70424 80.4772C7.70424 77.4367 7.70424 74.3962 7.70424 71.3557C7.70424 71.1345 7.8683 70.8028 7.51286 70.6923C7.15742 70.5817 7.04807 70.8858 6.91136 71.1069C5.10682 74.258 3.30229 77.3814 1.52509 80.5325C1.36104 80.8365 1.25165 81.0576 0.814187 80.8089C0.404064 80.5877 0.51343 80.3942 0.677479 80.0902C2.34531 77.1603 4.01316 74.2303 5.68099 71.328C5.84504 71.024 5.9544 70.8305 5.73566 70.4159C5.46225 69.863 5.62631 69.1444 5.68099 68.481C5.70834 68.2322 5.98172 68.177 6.20046 68.177C6.5559 68.177 6.91138 68.1493 7.26682 68.177C7.6496 68.2046 7.75895 68.0387 7.73161 67.7071C7.70427 67.4306 7.73161 67.1542 7.73161 66.8778C7.73161 55.5727 7.73161 44.2675 7.73161 32.9624C7.73161 32.5201 7.67691 32.2161 7.23945 31.9673C6.58325 31.608 6.36455 30.7511 6.58328 30.0325C6.80201 29.3138 7.48555 28.8163 8.22377 28.8163C8.96199 28.8163 9.61819 29.3138 9.86426 30.0048C9.91895 30.1707 9.86425 30.4194 10.0556 30.53C10.3564 30.6958 10.6845 30.5024 10.7118 30.1154C10.7392 29.7008 10.5205 29.1203 10.8212 28.8715C11.122 28.5951 11.6688 28.7886 12.1336 28.7886C27.0621 28.7886 41.9906 28.7886 56.9464 28.7886C57.794 28.7886 57.6846 28.6781 57.6846 29.5626C57.6846 29.7284 57.6572 29.8943 57.6846 30.0325C57.7119 30.226 57.5479 30.53 57.9307 30.5853C58.2588 30.6129 58.4228 30.5576 58.5322 30.1707C58.7783 29.148 59.8172 28.5951 60.7742 28.9545C61.7311 29.3138 62.1686 30.3365 61.7858 31.2763C61.6491 31.608 61.4577 31.912 61.157 32.0226C60.7195 32.2161 60.6648 32.5478 60.6648 32.9624C60.6648 44.5163 60.6648 56.0426 60.6648 67.5965C60.6648 68.094 60.8015 68.2322 61.2937 68.2322C62.9342 68.2046 62.7701 68.1217 62.7701 69.7248C62.7701 70.0565 62.8522 70.4159 62.5241 70.7199C62.3327 70.8858 62.5787 71.0793 62.6608 71.2451C64.0552 73.6775 65.4222 76.1099 66.8167 78.5423C67.1448 79.0951 67.4455 79.6756 67.7736 80.2284C67.9377 80.5048 67.9924 80.6707 67.6369 80.8641C67.3088 81.03 67.1174 81.0853 66.8987 80.6983C65.8597 78.8464 64.7934 76.9944 63.7544 75.1425C62.9889 73.8157 62.2506 72.5166 61.5124 71.1898C61.3757 70.9411 61.2663 70.6923 60.9109 70.7476C60.5281 70.8305 60.6922 71.1622 60.6922 71.3833C60.6922 74.4238 60.6922 77.4643 60.6922 80.5048C60.6922 80.7812 60.7742 81.1129 60.282 81.1129C59.8446 81.1129 59.7352 80.9747 59.7352 80.5325C59.7625 77.6578 59.7352 74.8108 59.7352 71.9361C59.7352 71.6874 59.7352 71.4662 59.7352 71.2175C59.7352 71.0516 59.8172 70.8028 59.5438 70.7476C59.2978 70.6923 59.1337 70.8028 59.0243 71.024C58.6415 71.715 58.2314 72.406 57.8487 73.0694C57.7666 73.0418 57.7119 73.1247 57.6573 73.2076Z" fill="#8CC199"/>
<path d="M31.3763 74.7186C31.3763 74.9994 31.3763 75.2803 31.3763 75.5612C31.3763 75.8675 31.2147 76.0207 30.8917 76.0207C30.5686 76.0207 30.4071 75.8675 30.3801 75.5612C30.3801 75.2803 30.3801 74.9994 30.3262 74.7186C29.8147 75.5611 29.2763 76.4037 28.7647 77.2718C28.0108 78.4974 27.2839 79.6974 26.53 80.923C26.3954 81.1528 26.2338 81.357 25.9915 81.4591C25.7223 81.5868 25.5338 81.4847 25.5338 81.2038C25.5069 80.923 25.6415 80.6932 25.8031 80.4379C27.2839 78.0123 28.7647 75.5612 30.2724 73.1356C30.3532 73.0079 30.407 72.8547 30.407 72.7015C30.407 70.6079 30.407 68.4887 30.407 66.395C30.407 66.2418 30.3532 66.1397 30.2455 66.0375C30.0301 65.8844 29.9224 65.6546 29.9224 65.3992C29.9224 63.5864 29.9224 61.7736 29.9224 59.9608C29.9224 59.7055 30.0301 59.4757 30.2455 59.3225C30.3801 59.2204 30.407 59.1183 30.407 58.9906C30.407 57.5097 30.407 56.0544 30.407 54.5735C30.407 54.3948 30.3532 54.3437 30.1647 54.3182C29.4378 54.216 28.9262 53.6543 28.9532 52.9905C28.9532 52.3011 29.4916 51.7649 30.2455 51.6883C30.3801 51.6628 30.4339 51.6373 30.407 51.5096C30.407 51.3564 30.407 51.2287 30.407 51.0755C30.407 50.7947 30.5955 50.6415 30.8917 50.6415C31.1878 50.6415 31.4032 50.8202 31.4032 51.1011C31.4032 51.1521 31.4032 51.2287 31.4032 51.2798C31.4032 51.6883 31.4032 51.6628 31.807 51.6883C32.1032 51.7139 32.2109 51.6373 32.184 51.3564C32.1571 50.9734 32.2109 50.5904 32.1571 50.2074C32.1301 49.901 32.2378 49.7223 32.4801 49.5181C34.8225 47.5521 37.138 45.5605 39.4804 43.5945C39.6419 43.4669 39.7227 43.3137 39.6957 43.1094C39.6957 43.0073 39.6957 42.9052 39.6957 42.803C39.7227 42.5732 39.9111 42.42 40.1265 42.42C40.3689 42.42 40.5035 42.5732 40.5304 42.803C40.5304 42.8796 40.5304 42.9562 40.5304 43.0073C40.5304 49.6713 40.5304 56.3352 40.5304 62.9737C40.5304 63.0503 40.5304 63.1269 40.5304 63.2035C40.5035 63.4332 40.3419 63.5609 40.0996 63.5609C39.8842 63.5609 39.7496 63.4332 39.6957 63.229C39.6957 63.2034 39.6957 63.2035 39.6957 63.1779C39.8034 62.6928 39.5073 62.4375 39.1573 62.1566C36.8687 60.2417 34.6071 58.3012 32.3455 56.3863C32.2109 56.2842 32.1571 56.1565 32.1571 56.0033C32.1571 55.5182 32.1571 55.0331 32.1571 54.548C32.1571 54.3692 32.1032 54.3437 31.9417 54.3437C31.3763 54.3437 31.3763 54.3437 31.3763 54.8543C31.3763 56.2331 31.3763 57.6119 31.3763 58.9906C31.3763 59.1183 31.4032 59.2459 31.5378 59.3225C31.7532 59.5012 31.8609 59.731 31.8609 60.0119C31.8609 61.7992 31.8609 63.5864 31.8609 65.3737C31.8609 65.629 31.7801 65.8844 31.5648 66.0375C31.4301 66.1397 31.3763 66.2673 31.3763 66.4205C31.3763 68.5142 31.3763 70.5823 31.3763 72.676C31.3763 72.8547 31.4301 73.0334 31.5109 73.1866C32.9648 75.5611 34.4187 77.9357 35.8726 80.3357C36.0072 80.5655 36.1418 80.7698 36.1956 81.0251C36.2226 81.2038 36.2495 81.3825 36.061 81.4847C35.8725 81.5868 35.711 81.4847 35.5764 81.3825C35.3879 81.2549 35.2802 81.0762 35.1725 80.8974C33.9341 78.8804 32.7225 76.8888 31.484 74.8718C31.457 74.8207 31.4301 74.7696 31.4032 74.7186C31.4032 74.693 31.3763 74.7186 31.3763 74.7186Z" fill="white"/>
<path d="M126.503 54.2232C126.503 60.6315 126.475 67.0397 126.53 73.448C126.53 74.3831 126.338 74.6857 125.32 74.6857C117.812 74.6307 110.304 74.6307 102.795 74.6857C101.723 74.6857 101.53 74.3831 101.53 73.3655C101.558 60.549 101.558 47.7324 101.53 34.9158C101.53 33.9257 101.75 33.6232 102.795 33.6232C110.304 33.6782 117.812 33.6782 125.32 33.6232C126.31 33.6232 126.53 33.8982 126.53 34.8608C126.503 41.2966 126.503 47.7599 126.503 54.2232Z" fill="white"/>
<path d="M118.229 78.8194C118.257 79.9526 117.245 80.9752 116.151 80.9752C115.058 80.9752 114.073 79.9526 114.073 78.8194C114.073 77.7415 114.976 76.8018 116.069 76.7742C117.19 76.7465 118.202 77.6862 118.229 78.8194Z" fill="white"/>
<path d="M114.124 31.275C113.304 31.275 112.483 31.275 111.69 31.275C111.362 31.275 111.007 31.1367 111.007 30.7772C111.007 30.4177 111.308 30.2794 111.663 30.2794C113.331 30.2794 115.026 30.2794 116.694 30.2794C117.022 30.2794 117.35 30.4177 117.323 30.8325C117.295 31.1091 116.995 31.275 116.721 31.275C115.846 31.275 114.999 31.275 114.124 31.275Z" fill="white"/>
<path d="M136.423 10.2692C136.423 15.5489 132.185 19.8058 126.963 19.8058C121.741 19.8058 117.53 15.5213 117.53 10.2416C117.53 4.96194 121.768 0.705036 126.99 0.732678C132.213 0.732678 136.423 4.98957 136.423 10.2692ZM131.693 7.86436C131.693 7.69851 131.666 7.5603 131.611 7.42209C131.31 6.78632 130.545 6.67575 130.053 7.20095C128.74 8.52778 127.401 9.88224 126.088 11.2091C126.006 11.292 125.951 11.292 125.869 11.2091C125.241 10.5457 124.584 9.90989 123.928 9.24647C123.518 8.83184 122.944 8.8042 122.561 9.19119C122.178 9.57818 122.178 10.1587 122.588 10.5733C123.463 11.4578 124.366 12.37 125.241 13.2546C125.705 13.7245 126.252 13.7245 126.717 13.2546C127.346 12.6188 127.975 11.9831 128.604 11.3473C129.533 10.4074 130.463 9.46761 131.392 8.52777C131.557 8.36192 131.693 8.14078 131.693 7.86436Z" fill="#2D539D"/>
<path d="M43.3863 10.6284C43.3863 15.9079 39.1483 20.1647 33.9261 20.1647C28.7039 20.1647 24.4933 15.8802 24.4933 10.6007C24.4933 5.3212 28.7312 1.06441 33.9534 1.09205C39.1757 1.09205 43.3863 5.34884 43.3863 10.6284ZM38.6562 8.22356C38.6562 8.05771 38.6288 7.9195 38.5742 7.78129C38.2734 7.14554 37.5078 7.03497 37.0157 7.56016C35.7033 8.88695 34.3636 10.2414 33.0512 11.5682C32.9691 11.6511 32.9145 11.6511 32.8324 11.5682C32.2036 10.9048 31.5474 10.269 30.8912 9.60563C30.481 9.19101 29.9069 9.16337 29.5241 9.55035C29.1413 9.93733 29.1413 10.5178 29.5515 10.9324C30.4264 11.8169 31.3286 12.7291 32.2036 13.6136C32.6684 14.0835 33.2152 14.0835 33.68 13.6136C34.3089 12.9779 34.9377 12.3421 35.5666 11.7064C36.4962 10.7666 37.4258 9.82676 38.3554 8.88695C38.5195 8.7211 38.6562 8.49997 38.6562 8.22356Z" fill="#2D539D"/>
<path d="M122.911 54.5503C122.911 61.6265 122.911 68.7303 122.911 75.8065C122.911 80.3396 120.888 82.4127 116.431 82.4127C111.236 82.4127 106.041 82.4127 100.874 82.4127C96.5809 82.4127 94.5303 80.3396 94.5303 75.9723C94.5303 61.7647 94.5303 47.5294 94.5303 33.3218C94.5303 29.8943 95.6513 27.9041 97.9753 27.0749C98.8776 26.7432 99.8345 26.6603 100.791 26.6603C106.068 26.6603 111.345 26.6603 116.622 26.6603C120.778 26.6603 122.883 28.7057 122.883 32.9072C122.938 40.1216 122.911 47.3359 122.911 54.5503ZM121.106 54.6056C121.106 48.1099 121.079 41.6418 121.134 35.1462C121.134 34.2063 120.915 33.9023 119.931 33.9023C112.466 33.9576 105.002 33.9576 97.5378 33.9023C96.4989 33.9023 96.2801 34.2063 96.2801 35.2014C96.3075 48.0823 96.3075 60.9631 96.2801 73.8439C96.2801 74.839 96.4989 75.1707 97.5378 75.1707C105.002 75.1154 112.466 75.1154 119.931 75.1707C120.915 75.1707 121.134 74.8667 121.134 73.9268C121.106 67.4864 121.106 61.046 121.106 54.6056ZM110.799 78.8194C110.771 77.6861 109.787 76.7463 108.639 76.7739C107.545 76.8015 106.643 77.7413 106.643 78.8194C106.643 79.9526 107.627 80.9754 108.721 80.9754C109.814 80.9754 110.799 79.9526 110.799 78.8194ZM108.693 31.2764C109.541 31.2764 110.416 31.2764 111.263 31.2764C111.537 31.2764 111.837 31.1105 111.865 30.8341C111.892 30.4471 111.564 30.3089 111.236 30.2813C109.568 30.2813 107.873 30.2813 106.205 30.2813C105.85 30.2813 105.522 30.4195 105.549 30.7788C105.549 31.1382 105.904 31.2764 106.232 31.2764C107.053 31.2764 107.873 31.2764 108.693 31.2764Z" fill="#8CC199"/>
<path d="M130.925 138.951L127.657 142.111L130.925 143.692V147.368C130.925 149.577 132.716 151.368 134.925 151.368H154.469C156.679 151.368 158.469 149.577 158.469 147.368V137.986C158.469 135.777 156.679 133.986 154.469 133.986H134.925C132.716 133.986 130.925 135.777 130.925 137.986V138.951Z" fill="#8CC199"/>
</svg>
