<svg width="129" height="163" viewBox="0 0 129 163" fill="none" xmlns="http://www.w3.org/2000/svg">
<path fill-rule="evenodd" clip-rule="evenodd" d="M20.8704 48.2736H63.5453V52.8225H24.6319L14.5568 102.352L10.0527 101.454L20.8704 48.2736Z" fill="#6C6C6C"/>
<path fill-rule="evenodd" clip-rule="evenodd" d="M102.474 52.8222H63.5449V48.2736H106.209L117.037 101.448L112.561 102.352L102.474 52.8222Z" fill="#6C6C6C"/>
<path fill-rule="evenodd" clip-rule="evenodd" d="M61.6348 130.358V40.549H67.3661V130.358H61.6348Z" fill="#6C6C6C"/>
<path d="M16.4449 125.187C15.808 125.787 15.1222 126.364 14.5099 127.012C14.0201 127.517 13.5792 127.685 13.1383 127.036C11.8402 125.139 9.97874 124.779 7.82337 125.019C6.89264 125.115 5.93742 124.971 5.00669 125.043C3.36566 125.187 1.96957 124.779 0.842899 123.554C0.230577 121.104 0.720436 118.606 0.5 116.132C0.5 115.892 0.499994 115.628 0.524487 115.388C0.54898 112.241 0.548983 109.071 0.573476 105.924C0.573476 103.595 1.79812 102.37 4.17393 102.37C10.689 102.346 17.2041 102.346 23.7192 102.37C25.9236 102.37 27.1727 103.643 27.1972 105.828C27.2217 109.023 27.2462 112.217 27.2462 115.412C27.2462 115.652 27.2462 115.892 27.2462 116.132C27.2217 117.765 27.1727 119.399 27.1972 121.032C27.1972 121.92 27.0993 122.761 26.7319 123.578C26.242 124.106 25.7032 124.61 25.0174 124.899C22.5926 125.187 20.1678 124.947 17.743 125.043C17.3021 125.067 16.8367 124.899 16.4449 125.187ZM13.8731 103.186C10.6156 103.186 7.358 103.162 4.07595 103.186C2.28797 103.186 1.35725 104.099 1.35725 105.852C1.33276 111.088 1.33276 116.324 1.35725 121.56C1.35725 123.313 2.28797 124.202 4.07595 124.226C5.79046 124.25 7.50496 124.346 9.21946 124.202C10.836 124.058 12.0851 124.442 13.0159 125.763C13.5792 126.556 14.0446 126.436 14.5589 125.739C15.4651 124.49 16.6653 124.082 18.2328 124.202C19.9718 124.322 21.7353 124.25 23.4988 124.226C25.3848 124.202 26.291 123.338 26.291 121.536C26.291 116.348 26.291 111.136 26.291 105.948C26.291 104.027 25.4337 103.21 23.4253 103.186C20.2413 103.186 17.0572 103.186 13.8731 103.186Z" fill="#2D2F2F"/>
<path d="M102.733 121.556C102.757 116.412 102.782 111.269 102.782 106.126C102.782 105.453 102.806 104.78 103.048 104.131C103.823 102.833 104.961 102.328 106.487 102.353C112.614 102.401 118.741 102.377 124.892 102.353C126.563 102.353 127.701 103.098 128.33 104.612C128.355 108.986 128.379 113.36 128.427 117.734C128.427 119.056 128.476 120.354 128.5 121.676C128.476 121.916 128.451 122.132 128.427 122.373C128.379 122.541 128.355 122.709 128.306 122.878C127.943 123.647 127.386 124.247 126.732 124.752C126.441 124.848 126.151 124.944 125.86 125.065C124.165 125.089 122.47 125.089 120.775 125.113C119.128 124.8 117.796 125.209 116.682 126.579C115.689 127.805 115.592 127.708 114.43 126.555C114.067 126.194 113.679 125.858 113.292 125.497C113.074 124.969 112.589 125.065 112.154 125.065C110.313 125.065 108.473 125.041 106.608 125.065C104.671 125.089 103.363 124.68 102.782 122.397C102.757 122.132 102.733 121.868 102.709 121.628L102.733 121.556ZM115.568 103.17C112.517 103.17 109.441 103.17 106.39 103.17C104.549 103.17 103.605 104.059 103.605 105.861C103.605 111.101 103.605 116.34 103.605 121.58C103.605 123.262 104.501 124.175 106.196 124.223C107.77 124.247 109.344 124.344 110.918 124.199C112.638 124.055 113.994 124.464 114.963 125.882C115.399 126.507 115.81 126.459 116.222 125.858C117.215 124.44 118.571 124.007 120.29 124.175C121.816 124.32 123.342 124.223 124.892 124.199C126.659 124.175 127.555 123.286 127.555 121.532C127.58 116.292 127.58 111.053 127.555 105.813C127.555 104.011 126.684 103.17 124.892 103.17C121.768 103.17 118.668 103.17 115.568 103.17Z" fill="#2D2F2F"/>
<path d="M16.6571 118.764C13.3751 118.361 11.11 116.548 9.49212 113.884C9.00675 113.078 8.63694 112.227 8.26714 111.354C7.89734 110.459 8.33648 109.787 9.60768 109.295C10.486 108.959 11.2256 109.026 11.5723 109.989C11.8958 110.884 12.6817 111.824 11.4798 112.697C11.1793 112.921 11.4567 113.168 11.5954 113.369C12.2194 114.332 13.0746 115.07 14.0453 115.697C14.3458 115.899 14.5769 115.899 14.8774 115.697C16.033 114.914 17.0962 115.585 18.1363 116.01C18.6679 116.234 18.7603 116.794 18.5292 117.376C18.1594 118.182 17.7202 118.831 16.6571 118.764Z" fill="#BB3151"/>
<path d="M112.338 114.356C110.702 113.447 110.183 112.621 110.573 111.491C110.884 110.527 111.559 110.004 112.571 110.087C113.558 110.197 114.181 110.803 114.284 111.822C114.44 113.227 113.61 113.888 112.441 114.163C112.519 114.714 112.909 114.466 113.168 114.549C114.778 114.99 116.049 116.477 116.075 117.992C116.075 118.322 116.153 118.681 115.738 118.763C115.349 118.818 115.271 118.515 115.193 118.157C114.7 116.229 113.843 115.43 112.312 115.375C110.806 115.348 109.846 116.202 109.353 118.047C109.249 118.405 109.275 118.846 108.782 118.736C108.314 118.598 108.444 118.13 108.496 117.799C108.73 116.202 109.664 115.182 111.066 114.632C111.351 114.549 111.741 114.494 112.338 114.356ZM113.428 112.097C113.324 111.519 113.038 111.023 112.39 111.023C111.793 111.023 111.403 111.491 111.377 112.042C111.351 112.703 111.767 113.172 112.39 113.172C112.987 113.227 113.298 112.759 113.428 112.097Z" fill="#378C51"/>
<path d="M118.537 109.112C119.849 109.139 120.891 110.044 120.857 111.108C120.824 112.173 119.647 113.025 118.336 112.971C117.092 112.918 116.049 112.013 116.083 111.028C116.116 109.99 117.226 109.085 118.537 109.112ZM118.571 112.093C119.311 111.96 119.748 111.587 119.714 110.975C119.647 110.363 119.143 109.99 118.369 110.044C117.697 110.097 117.293 110.496 117.327 111.055C117.327 111.667 117.764 112.013 118.571 112.093Z" fill="#378C51"/>
<path d="M121.807 115.502C121.83 115.715 121.807 115.857 121.502 115.871C121.197 115.885 121.103 115.758 121.033 115.616C120.775 115.09 120.235 114.693 119.391 114.508C118.5 114.31 117.632 114.409 116.882 114.806C116.671 114.92 116.413 115.019 116.178 114.849C115.991 114.721 116.108 114.593 116.272 114.48C116.905 114.011 118.5 113.798 119.626 114.04C120.681 114.253 121.807 115.034 121.807 115.502Z" fill="#378C51"/>
<path d="M113.215 111.961C113.154 113.149 113.007 113.941 112.738 113.941C112.432 113.941 112.248 113.05 112.26 111.912C112.273 110.872 112.444 110.031 112.738 110.08C113.031 110.08 113.166 110.922 113.215 111.961Z" fill="#378C51"/>
<path d="M118.568 112.011C117.603 111.961 117.08 111.61 117.039 111.034C116.999 110.509 117.482 110.133 118.286 110.083C119.211 110.033 119.815 110.383 119.895 110.959C119.976 111.535 119.412 111.886 118.568 112.011Z" fill="#378C51"/>
<path d="M61.5612 11.5782C61.8391 12.084 62.1171 12.5656 62.395 13.0713C58.7817 14.2032 56.1411 16.491 54.6355 20.0792C53.5701 22.6319 53.4079 25.3051 54.126 27.9782C55.5852 33.5411 60.6115 37.2016 66.24 36.8645C71.5211 36.5514 76.1304 32.2407 76.9875 26.8704C78.0066 20.609 74.2774 14.6608 68.4868 13.0473C68.7647 12.5415 69.0427 12.0599 69.3206 11.5782C74.4859 13.0713 79.2806 18.538 78.7941 25.7626C78.3077 32.7464 72.8645 38.2372 66.1705 38.5984C59.3839 38.9596 53.3848 33.9746 52.273 27.063C51.138 20.2719 55.1683 13.553 61.5612 11.5782Z" fill="#2D539D"/>
<path d="M57.4892 25.6909C57.0657 25.5361 56.6919 25.4071 56.3431 25.2781C56.0192 25.1491 55.8448 24.8653 55.9195 24.5041C56.2933 22.6208 56.667 20.7632 57.0407 18.8798C57.1404 18.4412 57.4643 18.338 57.863 18.338C59.6071 18.338 61.3512 18.338 63.0954 18.338C65.7614 18.338 68.4025 18.338 71.0686 18.338C71.7413 18.338 71.8908 18.467 72.0154 19.1378C72.3642 20.8664 72.713 22.595 73.0619 24.3235C73.1615 24.8653 73.0619 25.1233 72.5386 25.3297C72.2147 25.4587 71.8908 25.5361 71.5171 25.6651C71.5171 25.7683 71.5171 25.9231 71.5171 26.0521C71.5171 27.6775 71.5171 29.3287 71.5171 30.9541C71.5171 31.6249 71.3177 31.8571 70.6699 31.8571C66.5587 31.8571 62.4725 31.8571 58.3613 31.8571C57.6886 31.8571 57.4892 31.6249 57.4892 30.9283C57.4892 29.3287 57.4892 27.7291 57.4892 26.1037C57.4892 25.9747 57.4892 25.8457 57.4892 25.6909ZM61.3512 30.5413C61.3512 29.6383 61.3512 28.7611 61.3512 27.8839C61.3512 27.2389 61.5755 27.0067 62.1984 27.0067C63.7183 27.0067 65.2382 27.0067 66.7581 27.0067C67.4308 27.0067 67.6301 27.2131 67.6301 27.9097C67.6301 28.4515 67.6301 28.9933 67.6301 29.5351C67.6301 29.8705 67.6301 30.2059 67.6301 30.5413C68.5271 30.5413 69.3494 30.5413 70.1716 30.5413C70.1716 28.9417 70.1716 27.3679 70.1716 25.8199C69.6483 25.6909 69.1749 25.5619 68.7015 25.4587C68.552 25.4329 68.3776 25.4071 68.2281 25.4587C67.0571 25.8715 65.9109 25.8715 64.7399 25.4587C64.5904 25.4071 64.391 25.4071 64.2166 25.4587C63.0455 25.8715 61.8994 25.8715 60.7283 25.4587C60.6287 25.4329 60.5041 25.3813 60.4044 25.4071C59.8563 25.5361 59.333 25.6909 58.7849 25.8199C58.7849 27.3679 58.7849 28.9417 58.7849 30.5413C59.6569 30.5413 60.4792 30.5413 61.3512 30.5413ZM67.8045 24.2203C67.655 22.6982 67.5056 21.2018 67.3561 19.7312C66.6086 19.7312 65.886 19.7312 65.1385 19.7312C65.1385 21.176 65.1385 22.595 65.1385 24.0397C65.1385 24.1171 65.2382 24.2461 65.3378 24.2719C66.1601 24.5041 66.9574 24.5041 67.8045 24.2203ZM61.6502 19.7054C61.5007 21.1502 61.3512 22.5692 61.2267 23.9882C61.2267 24.0913 61.3762 24.2719 61.4758 24.2977C62.1735 24.5041 62.896 24.4783 63.5937 24.2977C63.793 24.2461 63.8927 24.1429 63.8927 23.9108C63.8678 23.111 63.8927 22.3112 63.8927 21.5372C63.8927 20.9438 63.8927 20.3246 63.8927 19.7312C63.1203 19.7054 62.4226 19.7054 61.6502 19.7054ZM68.6517 19.7054C68.8012 21.1502 68.9258 22.5434 69.0753 23.9623C69.0753 24.0655 69.1749 24.1945 69.2497 24.2203C70.0719 24.5041 70.8942 24.5041 71.7413 24.2203C71.4423 22.6982 71.1433 21.2018 70.8194 19.7054C70.0968 19.7054 69.3992 19.7054 68.6517 19.7054ZM57.265 24.2203C58.1121 24.5041 58.9344 24.5041 59.7566 24.2203C59.8563 24.1945 59.9559 23.9882 59.9559 23.8592C60.0307 23.3948 60.0556 22.9304 60.1054 22.466C60.2051 21.563 60.2799 20.66 60.3795 19.7312C59.632 19.7312 58.9095 19.7312 58.1869 19.7312C57.863 21.2018 57.564 22.6982 57.265 24.2203ZM62.6469 30.5155C63.9176 30.5155 65.1385 30.5155 66.3594 30.5155C66.3594 29.7673 66.3594 29.0707 66.3594 28.3483C65.1136 28.3483 63.8927 28.3483 62.6469 28.3483C62.6469 29.0965 62.6469 29.7931 62.6469 30.5155Z" fill="#6C6C6C"/>
<path d="M64.9877 0.9552C69.0117 0.9552 71.5411 5.4703 69.5176 9.12081C68.2759 11.3784 67.0112 13.6119 65.7465 15.8695C65.3326 16.59 64.6198 16.5899 64.2059 15.8454C62.9412 13.6119 61.6765 11.3784 60.4348 9.12081C58.4113 5.4703 60.9407 0.9552 64.9877 0.9552ZM64.9877 13.8521C66.0914 11.8587 67.1722 9.93738 68.2299 7.99204C68.5518 7.39163 68.6438 6.71916 68.5748 6.02269C68.4139 4.46161 67.3791 3.21276 65.9305 2.80447C64.5278 2.39619 63.0102 2.92455 62.0904 4.1494C61.1936 5.32621 61.1017 6.95933 61.8605 8.32827C62.1134 8.78459 62.3664 9.2409 62.6193 9.69721C63.4011 11.0421 64.1829 12.4111 64.9877 13.8521Z" fill="#BB3151"/>
<path d="M64.9779 9.64661C63.6568 9.64661 62.5898 8.58804 62.5898 7.24546C62.5898 5.90288 63.6568 4.8443 64.9779 4.81848C66.299 4.81848 67.366 5.90287 67.366 7.21964C67.366 8.56222 66.299 9.64661 64.9779 9.64661ZM64.9779 6.16106C64.3682 6.16106 63.8855 6.6258 63.8601 7.24546C63.8601 7.83929 64.3428 8.35566 64.9271 8.35566C65.5114 8.35566 66.0195 7.86511 66.0449 7.27127C66.0703 6.65162 65.5876 6.16106 64.9779 6.16106Z" fill="#BB3151"/>
<path d="M12.9184 134.22C14.5011 134.22 15.7841 132.923 15.7841 131.323C15.7841 129.723 14.5011 128.426 12.9184 128.426C11.3357 128.426 10.0527 129.723 10.0527 131.323C10.0527 132.923 11.3357 134.22 12.9184 134.22Z" fill="#BB3151"/>
<path d="M115.127 134.219C116.182 134.219 117.038 132.706 117.038 130.839C117.038 128.972 116.182 127.459 115.127 127.459C114.072 127.459 113.217 128.972 113.217 130.839C113.217 132.706 114.072 134.219 115.127 134.219Z" fill="#378C51"/>
<path d="M2.41016 78.7718C4.63266 76.3234 8.55192 75.378 10.8939 77.3173C13.4032 79.3779 16.3426 79.5961 19.1865 80.3233C22.1737 81.0991 24.8742 82.1657 26.6665 84.8808C27.3118 85.8747 27.8853 86.9414 28.196 88.0808C29.3192 92.1534 30.8248 96.1049 32.1631 100.105C34.051 105.729 35.9628 111.329 37.8747 116.953C39.3085 121.123 40.7424 125.292 42.1285 129.486C42.3436 130.092 42.7498 130.044 43.2039 130.044C48.6526 130.116 54.1013 130.189 59.5501 130.286C69.8262 130.456 80.1023 130.65 90.3545 130.844C91.6211 130.868 92.9115 130.868 94.1781 130.989C96.1378 131.159 96.9742 127.256 96.7352 127.256C93.7719 127.353 100.846 126.916 100.798 127.838C100.75 128.759 100.439 129.656 100.368 130.577C100.129 133.292 97.7389 135.038 95.1102 134.965C89.3747 134.819 83.6392 134.698 77.9037 134.577C66.5283 134.334 55.1528 134.068 43.7774 133.801C43.2995 133.801 43.1083 133.898 42.9649 134.383C42.3675 136.298 41.2204 137.728 39.3802 138.577C38.8067 138.843 38.2809 139.207 37.9464 139.74C36.847 141.462 37.5401 143.256 39.4997 143.813C40.4317 144.08 41.3638 144.128 42.3197 144.128C59.3828 144.152 76.4459 144.177 93.509 144.225C93.987 144.225 94.4888 144.274 94.9668 144.371C95.8749 144.565 96.4723 145.389 96.4006 146.334C96.3289 147.328 95.6359 148.104 94.6561 148.128C92.9593 148.177 91.2626 148.128 89.2313 148.128C92.1946 149.704 93.7958 151.934 93.7958 155.086C93.7719 157.195 92.9354 158.989 91.3343 160.395C87.5584 163.692 82.9461 162.043 80.9626 159.328C78.6445 156.177 78.8596 150.868 83.9498 148.201C73.3153 148.201 62.848 148.201 52.2134 148.201C54.0535 149.146 55.4874 150.383 56.2043 152.274C56.9213 154.14 56.8735 156.031 56.1327 157.873C54.9617 160.686 51.9266 162.479 48.9633 162.189C45.9044 161.898 43.2278 159.522 42.6064 156.492C42.009 153.558 43.0605 150.165 46.8842 148.249C46.4779 148.007 46.0955 148.128 45.7371 148.128C43.2756 148.055 40.7663 148.371 38.3287 147.716C34.1227 146.601 32.187 143.013 33.5969 138.965C34.1705 137.316 35.3415 136.153 36.8231 135.256C38.9979 133.947 39.5236 132.468 38.6633 130.044C37.5162 126.819 36.3691 123.571 35.222 120.347C33.4535 115.353 31.6612 110.359 29.8689 105.365C27.8853 99.8139 25.9496 94.2625 23.8944 88.7111C23.1535 86.6747 21.7675 85.2202 19.545 84.6869C16.5577 83.9839 13.6183 83.1839 10.6549 82.4081C10.3682 82.3354 10.1053 82.2627 9.79461 82.3354C6.99855 82.9899 4.44148 82.7475 2.41016 80.3961C2.41016 79.8385 2.41016 79.3052 2.41016 78.7718Z" fill="#6C6C6C"/>
</svg>
