<svg width="148" height="164" viewBox="0 0 148 164" fill="none" xmlns="http://www.w3.org/2000/svg">
<path d="M136.66 93.4201L58.5881 0.00012207L0.000488281 96.0396L132.487 102.81L136.66 93.4201Z" fill="url(#paint0_linear_29_242)"/>
<path d="M148 70.4222C146.889 73.7902 145.678 77.1242 144.432 80.4241L143.49 82.9076L142.514 85.391C141.875 87.058 141.235 88.691 140.562 90.324C139.25 93.6239 137.904 96.8899 136.524 100.156C135.145 103.422 133.731 106.654 132.251 109.852C129.256 116.247 126.025 122.575 123.165 129.039C120.304 135.503 117.679 142.069 115.155 148.703L114.954 149.281L114.281 149.247C110.915 149.077 107.517 148.941 104.151 148.737C100.786 148.532 97.4211 148.294 94.0222 148.056C87.2919 147.58 80.5279 147.104 73.7976 146.457C72.115 146.287 70.4324 146.151 68.7499 145.947C67.0673 145.777 65.3847 145.607 63.7021 145.403L58.6544 144.858L53.6066 144.246C46.9099 143.429 40.1796 142.545 33.4829 141.456L33.5166 141.15C40.2806 141.218 47.0445 141.524 53.8085 141.864L58.8562 142.137L63.904 142.443C65.5866 142.545 67.2692 142.647 68.9518 142.783C70.6343 142.885 72.3169 143.021 73.9995 143.157C80.7298 143.668 87.4602 144.382 94.1905 145.062C97.5557 145.403 100.921 145.777 104.286 146.151C107.651 146.525 110.983 146.968 114.348 147.41L113.439 147.954C116.502 141.592 119.463 135.129 122.189 128.631C124.914 122.099 127.27 115.397 129.861 108.831C131.14 105.531 132.52 102.265 133.933 99.0331C135.346 95.8012 136.793 92.5693 138.274 89.3374C139.015 87.7384 139.755 86.1395 140.495 84.5405L141.639 82.1251L142.783 79.7437C144.331 76.5458 145.913 73.3819 147.596 70.2521L148 70.4222Z" fill="#020203"/>
<path d="M23.9614 83.8927C25.644 85.0834 27.2593 86.3421 28.8073 87.6689C30.3889 88.9957 31.9032 90.3565 33.4176 91.7174C34.9319 93.1122 36.3789 94.541 37.8259 96.0039C39.2729 97.4668 40.6526 98.9637 41.9651 100.563C40.2825 99.3719 38.6672 98.1132 37.1193 96.7864C35.5376 95.4596 34.0233 94.0988 32.509 92.738C30.9947 91.3431 29.5476 89.9143 28.1006 88.4514C26.6872 86.9885 25.2738 85.4917 23.9614 83.8927Z" fill="#EDD80D"/>
<path d="M14.1665 101.858C16.2193 101.892 18.2383 102.062 20.2911 102.266C22.3102 102.47 24.3293 102.742 26.3484 103.048C28.3675 103.355 30.3529 103.729 32.372 104.137C34.3574 104.545 36.3429 105.022 38.3283 105.6C36.2756 105.566 34.2565 105.396 32.2037 105.192C30.1846 104.988 28.1655 104.716 26.1464 104.409C24.1273 104.103 22.1419 103.729 20.1228 103.321C18.1374 102.878 16.152 102.436 14.1665 101.858Z" fill="#EDD80D"/>
<path d="M16.5239 124.753C18.1729 123.528 19.8891 122.406 21.639 121.351C23.3888 120.262 25.1387 119.276 26.9223 118.289C28.7058 117.302 30.523 116.384 32.3738 115.499C34.2247 114.615 36.0755 113.764 37.9936 113.016C36.3447 114.241 34.6285 115.363 32.8786 116.418C31.1287 117.507 29.3788 118.493 27.5616 119.48C25.7781 120.466 23.9609 121.385 22.1101 122.27C20.2929 123.188 18.4421 124.039 16.5239 124.753Z" fill="#EDD80D"/>
<path d="M86.8898 146.288C86.8225 147.751 86.6879 149.214 86.7552 150.677C86.8225 151.935 86.2504 152.48 85.1736 152.854C79.2509 154.861 73.1599 155.201 67.0017 154.453C62.6943 153.943 58.4542 152.922 54.3487 151.425C53.7429 151.187 53.2045 151.051 53.2718 150.2C53.541 146.458 53.2381 142.648 53.9785 138.939C55.1226 133.122 59.4301 129.107 65.2518 128.733C69.189 128.461 73.1936 128.597 77.0972 129.277C82.9189 130.332 87.0244 135.639 87.0244 141.933C87.0244 143.362 86.9235 144.825 86.8898 146.288Z" fill="#2D539D"/>
<path d="M36.8163 133.631C37.0519 131.828 36.7154 129.617 37.3211 127.474C38.9364 121.554 43.5467 117.812 49.604 117.744C52.3971 117.71 55.1902 117.948 57.9496 118.016C58.6899 118.05 59.1611 118.186 59.2284 119.139C59.3293 121.622 60.2716 123.833 61.7859 125.773C62.2907 126.419 62.3916 126.657 61.483 126.997C54.7527 129.617 51.4212 134.686 51.3202 141.898C51.2866 143.089 51.1856 143.633 49.7049 143.463C45.5321 142.919 41.5276 141.796 37.5567 140.538C36.7154 140.265 36.5808 139.823 36.6145 139.041C36.6818 137.374 36.7154 135.673 36.8163 133.631Z" fill="#2D539D"/>
<path d="M103.446 136.694C103.413 137.987 103.211 139.28 103.312 140.573C103.446 142.274 102.773 143.022 101.192 143.533C97.6244 144.621 94.0237 145.063 90.3557 145.268C89.4808 145.302 89.3125 144.995 89.3462 144.247C89.3798 142.852 89.5144 141.457 89.3462 140.028C88.6395 134.449 85.7791 130.435 80.7986 127.985C79.8564 127.543 79.419 127.305 80.3612 126.318C82.0101 124.583 82.986 122.44 83.2889 120.024C83.3898 119.31 83.6254 119.038 84.3321 119.106C87.3944 119.344 90.4567 119.14 93.4853 119.718C99.5426 120.875 103.85 126.284 103.648 132.51C103.581 133.871 103.513 135.266 103.446 136.694Z" fill="#2D539D"/>
<path d="M70.8044 127.986C65.3864 127.748 61.2809 123.189 61.5501 117.678C61.8193 112.337 66.3623 108.153 71.6793 108.391C77.0636 108.595 81.27 113.187 81.0345 118.665C80.7989 124.142 76.2896 128.224 70.8044 127.986Z" fill="#2D539D"/>
<path d="M44.8245 107.029C44.9928 101.79 49.1992 97.5715 54.247 97.5374C59.6649 97.5034 64.0396 101.62 64.3088 106.995C64.3425 107.845 64.1069 108.458 63.4002 109.002C61.5494 110.533 60.237 112.472 59.6649 114.853C59.4294 115.806 58.8236 116.248 58.0159 116.554C51.4875 119.072 44.5553 114.105 44.8245 107.029Z" fill="#2D539D"/>
<path d="M97.5567 109.104C97.2874 115.704 90.9609 120.093 84.769 118.017C83.9277 117.745 83.3557 117.405 83.221 116.35C82.8172 113.255 81.2692 110.771 78.88 108.798C78.3079 108.322 78.0387 107.879 78.1733 107.097C79.1155 101.926 83.7258 98.4219 89.0091 98.9322C93.9896 99.4085 97.7586 103.933 97.5567 109.104Z" fill="#2D539D"/>
<path d="M81.6065 155.03C82.6834 150.403 86.1158 147.103 93.1154 142.578C99.4755 138.462 108.326 132.746 110.009 134.685C111.826 136.795 102.672 145.334 105.196 149.144C106.778 151.559 112.23 150.879 115.561 149.586C121.248 147.375 119.936 140.673 127.205 132.746C129.325 130.433 131.546 128.017 133.094 128.63C135.651 129.616 135.92 138.564 132.757 145.64C128.584 155.03 119.229 159.146 115.494 160.779C111.556 162.514 108.057 163.296 105.6 163.705C97.4901 161.868 89.3801 160.031 81.27 158.193C81.27 157.411 81.3373 156.322 81.6065 155.03Z" fill="#65AB7A"/>
<path d="M46.9115 26.0938C48.5605 26.0598 49.9065 26.2979 51.219 26.7742C51.5891 26.9103 51.7237 26.8422 51.892 26.502C53.6082 23.134 56.2667 20.8547 59.8338 19.7661C61.9875 19.1197 64.2085 19.1197 66.4295 19.664C69.9966 20.5145 72.5541 22.6918 74.4386 25.8216C74.6405 26.1618 74.7751 26.6721 75.1116 26.8422C75.4482 27.0123 75.852 26.6381 76.2558 26.536C80.0921 25.5835 83.6255 26.1278 86.8897 28.4752C89.5819 30.4483 91.2645 33.0679 92.1731 36.2658C92.7451 38.307 92.8124 40.3482 92.375 42.3894C92.2067 43.1038 92.2067 43.8522 91.8365 44.5326C91.7356 44.7367 91.8702 44.8048 92.0048 44.8728C95.1007 46.4377 97.1198 48.9212 98.2976 52.1531C98.7351 53.3438 98.937 54.6025 99.038 55.8613C99.2399 57.8685 98.9707 59.8416 98.365 61.7467C97.4227 64.6384 95.7065 66.9518 93.2162 68.6188C92.5432 69.061 92.5432 69.4353 92.6442 70.1157C92.7451 70.8301 92.6778 71.5445 92.5769 72.2929C92.3413 74.164 91.8702 75.9331 90.9616 77.566C89.4473 80.3216 87.2936 82.3629 84.4332 83.6216C82.616 84.4381 80.7315 84.7443 78.746 84.5742C77.6019 84.5061 76.4914 84.234 75.3809 83.8938C75.1117 83.7917 74.977 83.8597 74.8761 84.0979C73.5637 86.6153 71.7801 88.6906 69.2226 90.0514C67.6746 90.8679 66.0257 91.3441 64.2758 91.4802C61.8865 91.6503 59.6319 91.2421 57.5455 90.0854C55.0553 88.7246 53.0698 86.8195 51.8247 84.1999C51.6901 83.9278 51.6228 83.7917 51.219 83.8938C49.4354 84.4381 47.6182 84.7783 45.7674 84.5742C43.5464 84.336 41.5273 83.5536 39.7101 82.2268C36.7151 80.0155 34.9652 77.0557 34.2922 73.4156C34.0566 72.1228 34.0902 70.8301 34.1239 69.5373C34.1239 69.2652 34.0566 69.0951 33.8211 68.925C32.1721 67.8023 30.7924 66.4415 29.7492 64.7405C28.3695 62.4952 27.6292 60.0457 27.5955 57.3922C27.5619 54.8066 28.2012 52.4253 29.3791 50.1459C30.5569 47.8326 32.3068 46.1656 34.5278 44.9409C34.797 44.8048 34.7969 44.5666 34.7296 44.2945C34.595 43.6481 34.3595 43.0698 34.2585 42.4234C33.8547 39.6337 34.0903 36.9121 35.2008 34.2926C36.1094 32.1153 37.4555 30.2782 39.3063 28.8154C41.1571 27.3525 43.2435 26.468 45.5655 26.1958C46.1375 26.1278 46.6423 26.0938 46.9115 26.0938ZM57.8483 69.4012C58.7569 69.4352 59.5309 69.061 60.2039 68.4487C61.1462 67.5641 62.0548 66.6116 62.9634 65.6931C67.3045 61.3045 71.6455 56.8819 75.9866 52.4933C77.1981 51.2686 78.3759 50.0439 79.621 48.8532C80.3613 48.1387 80.967 47.3563 81.1353 46.3697C81.5728 43.8522 79.3854 41.6409 76.8615 42.0832C75.953 42.2533 75.3136 42.7636 74.6742 43.41C70.9725 47.1522 67.2372 50.8944 63.5355 54.6366C61.6847 56.5077 59.8674 58.3447 58.0166 60.2158C57.8147 60.4199 57.6801 60.59 57.4109 60.2839C55.5264 58.3447 53.6419 56.4056 51.7574 54.5005C49.8393 52.5613 46.9452 53.3438 45.902 55.351C45.2626 56.6097 45.4982 58.6169 46.4741 59.5695C49.3682 62.4271 52.1949 65.3869 55.0553 68.2786C55.8293 68.993 56.7378 69.4012 57.8483 69.4012Z" fill="#8CC5EC"/>
<path d="M57.848 69.4018C56.7039 69.4358 55.7953 68.9936 55.055 68.2451C52.1946 65.3533 49.3679 62.3935 46.4738 59.5357C45.5316 58.5832 45.2623 56.5759 45.9017 55.3172C46.9449 53.2759 49.839 52.4934 51.7571 54.4666C53.6416 56.3718 55.5261 58.311 57.4106 60.2502C57.6798 60.5564 57.848 60.3863 58.0163 60.1821C59.8671 58.311 61.6844 56.4739 63.5352 54.6027C67.2369 50.8604 70.9722 47.1522 74.6739 43.3758C75.3133 42.7294 75.9527 42.1851 76.8613 42.049C79.3851 41.6068 81.5725 43.8181 81.135 46.3357C80.9667 47.3223 80.361 48.1047 79.6207 48.8192C78.3756 50.0099 77.1978 51.2347 75.9863 52.4594C71.6453 56.8481 67.3042 61.2708 62.9631 65.6595C62.0546 66.5781 61.1459 67.5307 60.2036 68.4152C59.5643 69.0616 58.7566 69.4358 57.848 69.4018Z" fill="#FEFEFE"/>
<path d="M95.3684 54.5689C96.0751 55.6235 96.5799 56.8483 96.8491 58.2091C97.8586 63.4822 94.4261 68.5851 89.1765 69.6057C83.9268 70.6263 78.9127 67.1563 77.9032 61.8492C76.8936 56.5421 80.3261 51.4731 85.5758 50.4525C89.4794 49.7041 93.282 51.4391 95.3684 54.5689Z" stroke="#EDD80D" stroke-width="7" stroke-miterlimit="10"/>
<path d="M91.869 56.814C92.2392 57.3924 92.542 58.0388 92.6767 58.7532C93.2151 61.577 91.3642 64.3328 88.5711 64.8771C85.778 65.4214 83.0523 63.5503 82.5138 60.7265C81.9754 57.9027 83.8263 55.147 86.6194 54.6026C88.7058 54.2284 90.7249 55.147 91.869 56.814Z" stroke="#EDD80D" stroke-width="7" stroke-miterlimit="10"/>
<path d="M111.959 59.6039C110.008 57.2906 93.9558 62.7337 88.1004 62.2915C87.663 62.2575 86.5188 62.5636 85.6102 61.8832C84.567 61.1348 84.0622 59.3998 84.567 58.2432C85.1054 57.0185 86.6197 56.6783 88.1677 56.3381C95.773 54.6711 100.013 54.5691 100.35 53.1062C100.518 52.3578 99.4747 51.9836 99.3401 50.5207C99.2055 48.9559 100.181 47.5951 101.056 46.7106C100.114 45.3838 100.08 44.4653 100.181 43.921C100.518 42.152 102.705 41.5736 102.571 40.1448C102.503 39.2603 101.628 39.0222 101.729 38.3758C101.898 37.1511 105.566 36.7429 105.902 36.7089C111.724 36.0625 120.911 41.3355 125.05 43.8529C125.757 47.5611 126.43 51.2692 127.136 54.9773C125.588 59.74 123.3 61.8492 121.55 62.8698C118.454 64.6728 115.493 64.0945 113.945 66.612C112.7 68.6191 113.575 70.7283 112.397 71.2726C111.354 71.7489 109.402 70.7283 108.561 69.2314C106.407 65.2512 113.44 61.3389 111.959 59.6039Z" fill="#65AB7A"/>
<defs>
<linearGradient id="paint0_linear_29_242" x1="-0.00664587" y1="51.4089" x2="136.666" y2="51.4089" gradientUnits="userSpaceOnUse">
<stop stop-color="white"/>
<stop offset="0.1269" stop-color="#FFFEFC"/>
<stop offset="0.2581" stop-color="#FDFDF4"/>
<stop offset="0.3912" stop-color="#FAFAE5"/>
<stop offset="0.5257" stop-color="#F6F5CF"/>
<stop offset="0.6614" stop-color="#F0F0B0"/>
<stop offset="0.7979" stop-color="#EAE986"/>
<stop offset="0.9327" stop-color="#E2E14C"/>
<stop offset="1" stop-color="#DDDD22"/>
</linearGradient>
</defs>
</svg>
