<svg width="136" height="144" viewBox="0 0 136 144" fill="none" xmlns="http://www.w3.org/2000/svg">
<path d="M66.9069 49.8185C68.255 49.8185 69.5756 49.8185 70.9238 49.8185C71.0338 49.9854 71.2264 49.9019 71.3915 49.9297C72.1343 50.041 72.9047 50.0966 73.6475 50.2079C75.3533 50.4582 76.9766 50.9589 78.6274 51.4873C78.82 51.5708 78.985 51.6264 79.1776 51.7098C79.5353 51.8489 79.9205 52.0158 80.2781 52.1549C80.3882 52.2105 80.4982 52.2661 80.6083 52.2939C80.9935 52.4608 81.3511 52.6555 81.7363 52.8224C81.8188 52.878 81.9289 52.9059 82.0114 52.9615C82.3966 53.184 82.7818 53.3787 83.167 53.6012C83.277 53.6847 83.3871 53.7403 83.4971 53.8237C83.8273 54.0184 84.1299 54.2131 84.4601 54.4356C84.6252 54.5469 84.7902 54.6582 84.9278 54.7416C85.2304 55.0197 85.5606 55.2701 85.9183 55.437C86.0008 55.4926 86.0833 55.576 86.1384 55.6317C86.4135 55.9098 86.6886 56.1323 87.0188 56.327C87.1288 56.4383 87.2664 56.5495 87.3764 56.633C87.6241 56.8555 87.8992 57.1058 88.1468 57.3283C88.2844 57.4674 88.4494 57.6065 88.587 57.7734C88.8071 57.9959 89.0547 58.2184 89.2748 58.4687C89.4124 58.6078 89.5499 58.7747 89.715 58.9137C89.9626 59.1919 90.2103 59.47 90.4854 59.7482C90.5404 59.8872 90.623 59.9707 90.733 60.0541C90.9806 60.3601 91.2282 60.6938 91.5034 60.9998C91.5309 61.1389 91.6134 61.2223 91.7235 61.3058C91.9436 61.6117 92.1637 61.9177 92.3563 62.2236C92.4388 62.3349 92.5213 62.4461 92.6039 62.5574C92.7965 62.8912 93.0166 63.2249 93.2092 63.5587C93.3192 63.7256 93.4018 63.8647 93.5118 64.0316C93.6494 64.3931 93.842 64.7269 94.0621 65.0329C94.1171 65.1441 94.1721 65.2832 94.2271 65.3945C94.3922 65.756 94.5848 66.1454 94.7499 66.507C94.8324 66.7017 94.9425 66.9242 95.025 67.1189C95.1626 67.4527 95.2726 67.7587 95.4102 68.0924C95.4652 68.2315 95.5478 68.3984 95.6028 68.5375C95.7128 68.9547 95.8229 69.3997 96.043 69.7891C96.098 69.9282 96.1255 70.0951 96.1805 70.2341C96.5382 71.7361 96.9234 73.2103 97.116 74.74C97.1985 75.3519 97.171 75.9639 97.3911 76.548C97.3911 77.9665 97.3911 79.4128 97.3911 80.8313C97.1985 81.4154 97.1985 82.0274 97.116 82.6393C96.8684 84.4472 96.4282 86.1995 95.9054 87.9518C95.7678 88.1465 95.7128 88.369 95.6853 88.6193C95.6028 88.675 95.5753 88.7584 95.5753 88.8418C95.1626 89.7875 94.7499 90.7332 94.3372 91.6511C94.0896 92.0127 93.9245 92.3743 93.7594 92.7637C93.7319 92.8193 93.6769 92.9027 93.6494 92.9584C93.6219 93.014 93.5943 93.0696 93.5393 93.1252C93.4568 93.2643 93.3467 93.4034 93.2642 93.5424C91.9436 95.7398 90.3753 97.7146 88.5595 99.5225C86.9087 101.164 85.0379 102.499 83.0844 103.722C83.0294 103.75 82.9744 103.778 82.9194 103.834C82.8643 103.862 82.7818 103.917 82.7268 103.945C82.3691 104.14 81.9839 104.334 81.6263 104.529C80.6908 104.946 79.7829 105.363 78.8475 105.781C78.7649 105.781 78.6824 105.809 78.6274 105.892C78.3797 105.92 78.1596 105.975 77.9671 106.114C77.802 106.17 77.6094 106.198 77.4443 106.254C73.565 107.477 69.6032 107.867 65.5588 107.394C63.853 107.199 62.1747 106.782 60.5239 106.365C60.3864 106.309 60.2213 106.281 60.0837 106.226C59.6985 106.031 59.2858 105.892 58.8456 105.781C58.7081 105.725 58.543 105.642 58.4054 105.586C58.0753 105.447 57.7726 105.336 57.4425 105.197C57.2499 105.113 57.0298 105.002 56.8372 104.918C56.4795 104.752 56.1219 104.557 55.7367 104.39C55.6266 104.334 55.5166 104.279 55.379 104.223C55.0764 104.001 54.7462 103.806 54.3886 103.639C54.2235 103.528 54.0859 103.444 53.9208 103.333C53.5907 103.138 53.2605 102.916 52.9304 102.721C52.8203 102.638 52.7103 102.554 52.6002 102.471C52.2976 102.248 51.9949 102.026 51.6923 101.831C51.5823 101.748 51.4997 101.664 51.3897 101.609C51.087 101.358 50.7569 101.108 50.4542 100.83C50.3717 100.719 50.2891 100.635 50.1516 100.579C49.8764 100.329 49.6013 100.079 49.3262 99.8006C49.1886 99.6616 49.0236 99.5225 48.886 99.3556C48.6659 99.1331 48.4458 98.8828 48.2257 98.6603C48.0881 98.5212 47.9506 98.3543 47.7855 98.2152C47.5654 97.9649 47.3453 97.6868 47.0977 97.4364C46.9876 97.3252 46.8775 97.1861 46.795 97.0749C46.6024 96.7411 46.3823 96.4629 46.1072 96.1848C46.0522 96.1014 45.9696 96.0179 45.9146 95.9623C45.722 95.6007 45.4744 95.2669 45.2268 94.961C45.1167 94.7941 45.0067 94.6272 44.9241 94.4881C44.7315 94.1544 44.539 93.8484 44.3189 93.5146C44.2363 93.4034 44.1813 93.2921 44.0988 93.1809C43.8787 92.7915 43.6861 92.4021 43.466 92.0127C43.4109 91.9292 43.3834 91.818 43.3284 91.7345C43.1633 91.3451 42.9707 90.9835 42.8056 90.5941C42.7506 90.4829 42.6956 90.3716 42.6681 90.2604C42.5305 89.8988 42.3654 89.5094 42.2279 89.1478C42.1453 88.9531 42.0903 88.7862 42.0078 88.5915C41.9252 88.3412 41.8702 88.0909 41.7877 87.8405C40.302 83.2512 39.9718 78.6062 40.7697 73.85C41.0448 72.1533 41.5401 70.5123 42.0353 68.8434C42.1729 68.5931 42.2829 68.3428 42.3379 68.0368C42.8332 66.9799 43.3284 65.9229 43.8236 64.866C44.1263 64.4488 44.3739 63.9759 44.594 63.5309C44.6215 63.4753 44.6765 63.4196 44.704 63.3362C44.7316 63.2806 44.7866 63.2249 44.8141 63.1693C45.8046 61.7508 46.795 60.3601 47.9506 59.1084C49.6013 57.3005 51.4722 55.7707 53.4806 54.38C53.5357 54.3522 53.5907 54.2966 53.6457 54.2688C53.7007 54.2409 53.7558 54.1853 53.8383 54.1575C54.306 53.935 54.7462 53.6847 55.1589 53.3787C56.2044 52.878 57.2499 52.3774 58.2679 51.8767C58.543 51.8211 58.8181 51.7098 59.0382 51.5708C60.9641 50.931 62.9175 50.4026 64.9535 50.1244C65.6413 49.9854 66.3016 50.0132 66.9069 49.8185ZM85.3955 95.4616C85.4506 95.4616 85.4781 95.4338 85.4781 95.3782C85.4781 95.1835 85.4781 94.9888 85.4781 94.8219C85.4781 94.6272 85.4781 94.4325 85.4781 94.2656C85.4781 93.7093 85.4781 93.153 85.4781 92.5689C85.4781 92.3742 85.4781 92.1796 85.4781 92.0127C85.4781 91.4564 85.4781 90.9001 85.4781 90.316C85.4781 90.1213 85.4781 89.9266 85.4781 89.7597C85.4781 89.2034 85.4781 88.6471 85.4781 88.063C85.4781 87.8683 85.4781 87.6736 85.4781 87.5068C85.4781 86.9505 85.4781 86.3942 85.4781 85.8101C85.4781 85.6154 85.4781 85.4207 85.4781 85.2538C85.4781 84.6975 85.4781 84.1412 85.4781 83.5571C85.4781 83.3624 85.4781 83.1677 85.4781 83.0009C85.4781 82.4446 85.4781 81.8883 85.4781 81.3042C85.4781 81.1095 85.4781 80.9148 85.4781 80.7479C85.4781 80.1916 85.4781 79.6353 85.4781 79.0512C85.4781 78.8565 85.4781 78.6618 85.4781 78.495C85.4781 77.9387 85.4781 77.3824 85.4781 76.7983C85.4781 76.6036 85.4781 76.4089 85.4781 76.242C85.4781 75.6857 85.4781 75.1294 85.4781 74.5453C85.4781 74.3506 85.4781 74.1559 85.4781 73.989C85.4781 73.4328 85.4781 72.8765 85.4781 72.2924C85.4781 72.0977 85.4781 71.903 85.4781 71.7361C85.4781 71.1798 85.4781 70.6235 85.4781 70.0394C85.4781 69.8447 85.4781 69.65 85.4781 69.4831C85.4781 68.9269 85.4781 68.3706 85.4781 67.7865C85.4781 67.5918 85.4781 67.3971 85.4781 67.2302C85.4781 66.6739 85.4781 66.1176 85.4781 65.5335C85.4781 65.3388 85.4781 65.1441 85.4781 64.9772C85.4781 64.7269 85.4781 64.4488 85.4781 64.1984C85.4781 64.1428 85.4506 64.0872 85.3955 64.0872C85.0654 64.0872 84.7352 64.0872 84.4051 64.0872C84.2675 64.0872 84.1024 64.0872 83.9649 64.0872C83.3596 64.0872 82.7818 64.0872 82.1765 64.0872C82.039 64.0872 81.8739 64.0872 81.7363 64.0872C81.131 64.0872 80.5533 64.0872 79.948 64.0872C79.8104 64.0872 79.6453 64.0872 79.5078 64.0872C78.9025 64.0872 78.3247 64.0872 77.7194 64.0872C77.5819 64.0872 77.4168 64.0872 77.2792 64.0872C76.674 64.0872 76.0962 64.0872 75.4909 64.0872C75.3533 64.0872 75.1883 64.0872 75.0507 64.0872C74.4454 64.0872 73.8676 64.0872 73.2624 64.0872C73.1248 64.0872 72.9597 64.0872 72.8222 64.0872C72.2169 64.0872 71.6391 64.0872 71.0338 64.0872C70.8963 64.0872 70.7312 64.0872 70.5936 64.0872C68.5026 64.0872 66.4392 64.0872 64.3482 64.0872C64.2106 64.0872 64.0456 64.0872 63.908 64.0872C63.3027 64.0872 62.7249 64.0872 62.1197 64.0872C61.9821 64.0872 61.817 64.0872 61.6795 64.0872C60.9916 64.0594 60.3313 63.9759 59.671 64.1984C59.6435 64.1428 59.6435 64.115 59.616 64.1984C59.616 64.8382 59.616 65.4779 59.616 66.1176C59.616 66.2845 59.616 66.4236 59.616 66.5905C59.616 67.0077 59.4234 67.258 59.1483 67.5361C57.3324 69.2884 56.452 71.458 56.452 73.989C56.452 75.6301 57.0023 77.1042 57.7726 78.5228C56.1219 80.1916 54.4436 81.8327 52.8203 83.5293C51.9124 84.475 52.3526 86.0048 53.5907 86.4498C54.361 86.728 54.9938 86.4498 55.5441 85.8935C56.8922 84.5306 58.2404 83.1956 59.561 81.8327C59.5885 82.0552 59.5885 82.2499 59.616 82.4724C59.616 83.0287 59.616 83.585 59.616 84.1691C59.616 84.3638 59.616 84.5585 59.616 84.7532C59.616 85.3094 59.616 85.8657 59.616 86.4498C59.616 86.6445 59.616 86.8392 59.616 87.0339C59.616 87.5902 59.616 88.1465 59.616 88.7306C59.616 88.9253 59.616 89.12 59.616 89.3147C59.616 89.871 59.616 90.4273 59.616 91.0114C59.616 91.2061 59.616 91.4007 59.616 91.5955C59.616 92.1517 59.616 92.708 59.616 93.2921C59.616 93.4868 59.616 93.6815 59.616 93.8484C59.561 94.4047 59.561 94.961 59.616 95.5451C59.8361 95.7676 60.1112 95.6285 60.3588 95.6285C60.9641 95.6285 61.5419 95.6285 62.1472 95.6285C62.2847 95.6285 62.4498 95.6285 62.5874 95.6285C63.1927 95.6285 63.7704 95.6285 64.3757 95.6285C64.5133 95.6285 64.6784 95.6285 64.8159 95.6285C65.3662 95.6285 65.9164 95.6285 66.4942 95.6285C66.6868 95.6285 66.8794 95.6285 67.0445 95.6285C67.5947 95.6285 68.145 95.6285 68.7227 95.6285C68.9153 95.6285 69.1079 95.6285 69.273 95.6285C69.8233 95.6285 70.3735 95.6285 70.9513 95.6285C71.1439 95.6285 71.3365 95.6285 71.5015 95.6285C72.0518 95.6285 72.6021 95.6285 73.1798 95.6285C73.3724 95.6285 73.565 95.6285 73.7301 95.6285C74.3354 95.6285 74.9131 95.6285 75.5184 95.6285C75.656 95.6285 75.821 95.6285 75.9586 95.6285C76.5639 95.6285 77.1417 95.6285 77.7469 95.6285C77.8845 95.6285 78.0496 95.6285 78.1872 95.6285C78.7374 95.6285 79.2877 95.6285 79.8654 95.6285C80.058 95.6285 80.2506 95.6285 80.4157 95.6285C80.966 95.6285 81.5162 95.6285 82.094 95.6285C82.2866 95.6285 82.4792 95.6285 82.6442 95.6285C83.1945 95.6285 83.7447 95.6285 84.3225 95.6285C84.5151 95.6285 84.7077 95.6285 84.8728 95.6285C85.0379 95.4616 85.2029 95.4616 85.3955 95.4616Z" fill="#BB3151"/>
<path d="M57.7724 78.4393C56.9745 77.0208 56.4518 75.5467 56.4518 73.9057C56.4243 71.3747 57.3322 69.2053 59.148 67.453C59.4232 67.1749 59.6158 66.8968 59.6158 66.5074H59.6708H59.7258C59.7258 66.9802 59.9459 66.7577 60.1385 66.6464C60.9639 66.0902 61.8718 65.673 62.8348 65.367C63.0549 65.3114 63.275 65.2558 63.4951 65.2001C65.3659 64.9498 67.1543 65.1723 68.8601 66.0345C68.9701 66.0902 69.0802 66.118 69.1902 66.1736C69.5479 66.4239 69.9056 66.7021 70.2907 66.8689C70.3733 66.9524 70.4283 67.008 70.5108 67.0914C70.786 67.3418 71.0336 67.6199 71.3087 67.8702C71.4188 67.9815 71.5288 68.0927 71.6389 68.204C71.859 68.5099 72.0791 68.8159 72.2992 69.1218C72.3817 69.2331 72.4367 69.3443 72.5193 69.4556C72.6844 69.8172 72.8219 70.2066 72.987 70.5681C73.0695 70.7072 73.1246 70.8741 73.2071 71.0131C73.2896 71.4303 73.3722 71.8475 73.4547 72.2369C73.5097 72.4316 73.5373 72.6263 73.5923 72.821C73.5923 73.3773 73.5923 73.9335 73.5923 74.4898C73.5923 74.6845 73.5923 74.8792 73.5923 75.0739C73.2896 75.9083 73.1521 76.7705 72.7944 77.5771C72.5468 78.0221 72.2992 78.4671 72.024 78.9121C71.4463 79.6075 70.8135 80.2472 70.1257 80.8313C69.6855 81.0816 69.2452 81.3319 68.805 81.5822C68.0622 81.916 67.2643 82.1663 66.4664 82.3332C66.2739 82.361 66.0813 82.3888 65.9162 82.4166C65.3109 82.4166 64.7331 82.4166 64.1279 82.4166C64.0178 82.3888 63.9078 82.3332 63.7702 82.3054C63.33 82.2219 62.8898 82.1385 62.4496 82.0551C62.3395 81.9438 62.1744 81.9438 62.0369 81.916C61.6517 81.61 61.2115 81.4432 60.7713 81.2763C60.6612 81.1372 60.4962 81.165 60.3311 81.165C60.3861 80.9425 60.221 80.8591 60.0835 80.7756C59.1205 80.1359 58.4052 79.3293 57.7724 78.4393ZM71.4738 77.438C71.5013 77.4102 71.5563 77.3546 71.5838 77.3268C71.7764 77.0486 71.8865 76.7705 71.914 76.4367C72.2992 75.6858 72.4367 74.907 72.4367 74.0726C72.4367 73.9057 72.4367 73.7667 72.4367 73.5998C72.4918 73.0713 72.4092 72.5429 72.2441 72.0144C72.2441 71.9032 72.2166 71.7641 72.1341 71.6807C72.1341 71.18 71.8865 70.7628 71.6664 70.3456C71.5838 70.2344 71.5288 70.1231 71.4463 70.0119C71.3087 69.6225 71.0611 69.2887 70.786 68.9828C70.6759 68.8715 70.5659 68.7603 70.4558 68.6212C70.1807 68.3152 69.9606 67.9815 69.5479 67.8146C69.4378 67.7033 69.3278 67.6199 69.2177 67.5087C68.9151 67.2583 68.6125 67.0358 68.1998 66.9524C68.0897 66.8689 67.9797 66.8133 67.8421 66.7299C67.4019 66.6186 66.9892 66.3683 66.5215 66.3683C66.3839 66.257 66.2464 66.257 66.0813 66.257C65.531 66.1458 64.9808 66.0902 64.403 66.1736C64.2104 66.1458 64.0178 66.118 63.8527 66.2292C60.7713 66.4517 57.965 69.4278 57.5798 72.4594C57.4697 72.6819 57.4973 72.9044 57.5248 73.127C57.4973 73.7388 57.4147 74.3507 57.6073 74.9348C57.6073 75.0739 57.6348 75.213 57.6348 75.352C57.7449 75.7692 57.8274 76.2142 58.0475 76.6036C58.075 76.7705 58.1576 76.9374 58.2676 77.0486C58.4052 77.4658 58.6253 77.7996 58.9279 78.1055C59.0105 78.2446 59.093 78.3837 59.1755 78.4949C59.3956 78.8009 59.6158 79.1068 59.9459 79.3015C60.056 79.4128 60.166 79.524 60.2761 79.6353C60.5787 79.8856 60.8813 80.1916 61.294 80.3028C61.4041 80.3863 61.5141 80.4697 61.6242 80.5253C62.0094 80.7478 62.3946 80.9425 62.8348 80.9703C62.9173 81.0816 63.0549 81.0816 63.1924 81.0816C64.6781 81.4432 66.1088 81.4153 67.512 80.7478C67.8696 80.6644 68.2273 80.5531 68.5299 80.3306C69.8505 79.6909 70.8685 78.8009 71.4738 77.438Z" fill="#BABABA"/>
<path d="M57.7721 78.4396C58.4049 79.3296 59.1203 80.1084 60.0007 80.7481C60.1382 80.8315 60.2758 80.9428 60.2483 81.1375C60.0282 81.3322 59.8081 81.5268 59.588 81.7493C58.2399 83.1122 56.8917 84.4472 55.5711 85.8101C55.0209 86.3663 54.3881 86.6167 53.6177 86.3663C52.3797 85.9491 51.9394 84.3916 52.8474 83.446C54.4431 81.7493 56.1214 80.1084 57.7721 78.4396Z" fill="#A9D4B0"/>
<path d="M78.9311 105.752C78.8485 105.78 78.766 105.808 78.7109 105.864C78.766 105.78 78.8485 105.752 78.9311 105.752Z" fill="#F3F3F4"/>
<path d="M95.741 88.5919C95.7134 88.6752 95.6859 88.7585 95.6309 88.8141C95.6309 88.7308 95.6584 88.6475 95.741 88.5919Z" fill="#F3F3F4"/>
<path d="M85.3945 95.4611C85.4222 95.4331 85.45 95.4051 85.4777 95.3771C85.4777 95.4331 85.45 95.4611 85.3945 95.4611Z" fill="#F3F3F4"/>
<path d="M59.6726 64.1138C59.6449 64.1414 59.6172 64.1138 59.6172 64.1138C59.6172 64.0586 59.6449 64.0586 59.6726 64.1138Z" fill="#CED2D2"/>
<path d="M83.165 103.721C83.11 103.749 83.055 103.776 83 103.832C83.055 103.776 83.11 103.749 83.165 103.721Z" fill="#F3F3F4"/>
<path d="M44.7578 63.2814C44.7853 63.2254 44.8403 63.1694 44.8679 63.1134C44.8403 63.1694 44.8128 63.2254 44.7578 63.2814Z" fill="#F3F3F4"/>
<path d="M85.4776 64.1437C85.4499 64.1156 85.4222 64.0594 85.3945 64.0314C85.4777 64.0314 85.5054 64.0594 85.4776 64.1437Z" fill="#F3F3F4"/>
<path d="M53.5625 54.3258C53.6175 54.2976 53.6725 54.2412 53.7275 54.213C53.645 54.2694 53.6175 54.2976 53.5625 54.3258Z" fill="#F3F3F4"/>
<path d="M93.7311 92.9572C93.7036 93.0127 93.6761 93.0682 93.6211 93.1237C93.6761 93.0682 93.7036 93.0127 93.7311 92.9572Z" fill="#F3F3F4"/>
<path d="M78.71 92.3453C78.5449 92.3453 78.4073 92.3453 78.2423 92.3453C77.747 92.3175 77.2793 92.095 76.8116 91.9837C76.7015 91.9281 76.5915 91.8447 76.4814 91.789C76.2338 91.5943 75.9587 91.3996 75.7111 91.2049C75.601 91.0936 75.491 90.9824 75.3809 90.8711C75.1883 90.5373 74.9957 90.2035 74.7756 89.8697C74.7206 89.7585 74.6931 89.6472 74.6381 89.5081C74.3354 88.6737 74.4455 87.8114 74.418 86.9769C74.418 86.8378 74.6931 86.6709 74.8307 86.504C75.0508 86.5875 75.2709 86.6987 75.491 86.7822C76.564 87.1716 77.5544 87.7279 78.655 88.0339C79.7555 88.5068 80.856 88.9796 81.984 89.4525C82.2041 89.5359 82.4792 89.5638 82.4242 89.9254C82.2591 90.1201 82.0941 90.3426 82.0941 90.6208C81.8189 90.9545 81.5163 91.2605 81.1861 91.5387C81.1311 91.5387 81.0761 91.5665 81.0761 91.6221V91.5943C80.3057 92.0115 79.5629 92.3453 78.71 92.3453Z" fill="#6AAF7D"/>
<path d="M80.2783 72.4863C80.2783 71.93 80.3058 71.3737 80.3058 70.8175C80.8561 70.7897 81.4063 70.7897 81.9291 70.7618C82.0666 70.7618 82.2317 70.7897 82.3693 70.7897C82.3693 71.3181 82.3968 71.8187 82.3968 72.3472C82.3968 72.4863 82.3968 72.6531 82.3968 72.7922C82.3968 73.4041 82.3968 73.9882 82.3968 74.6C82.3968 74.7391 82.3968 74.906 82.3968 75.045C82.3968 75.6569 82.3968 76.241 82.3968 76.8529C82.3968 76.992 82.3968 77.1588 82.3968 77.2979C82.3968 77.9098 82.3968 78.4939 82.3968 79.1057C82.3968 79.2448 82.3968 79.4117 82.3968 79.5508C82.4793 80.0792 82.2317 80.3295 81.709 80.2461C81.5714 80.2461 81.4063 80.2461 81.2688 80.2461C81.1312 80.2461 81.0211 80.2183 80.8836 80.2183C80.4159 80.3017 80.2508 80.107 80.2783 79.662C80.2783 79.5229 80.2783 79.3561 80.2783 79.217C80.3333 77.1032 80.3333 75.0172 80.2783 72.9034C80.2783 72.7644 80.2783 72.6253 80.2783 72.4863Z" fill="#A9D4B0"/>
<path d="M78.6563 88.0353C77.5558 87.7293 76.5653 87.1729 75.4923 86.7834C75.2722 86.7 75.0521 86.5887 74.832 86.5052C75.3548 85.1699 76.4278 84.4466 77.7209 84.0015C77.941 84.0294 78.1611 84.0294 78.3812 83.9181C78.4637 83.9459 78.5462 83.9737 78.6288 83.9737C78.6288 85.3368 78.6563 86.6722 78.6563 88.0353Z" fill="#BB3151"/>
<path d="M68.5851 91.317C68.4475 91.317 68.2824 91.317 68.1449 91.2892C67.5396 91.2892 66.9618 91.2892 66.3565 91.317C66.219 91.317 66.0539 91.317 65.9163 91.2892C65.4761 91.178 64.9809 91.5117 64.5957 91.0667C64.5957 90.8442 64.7058 90.733 64.9259 90.733C65.5036 90.733 66.1089 90.733 66.6867 90.7052C66.8518 90.7052 66.9893 90.7052 67.1544 90.733C67.7322 90.733 68.3374 90.733 68.9152 90.7052C69.0803 90.7052 69.2179 90.7052 69.3829 90.733C69.5755 90.7608 69.8231 90.733 69.7956 91.0389C69.7681 91.317 69.548 91.2892 69.3829 91.2892C69.1078 91.317 68.8602 91.317 68.5851 91.317Z" fill="#CED2D2"/>
<path d="M72.025 87.5342C72.1351 87.6455 72.2451 87.729 72.3552 87.8403C72.5203 88.2576 72.4652 88.6471 72.1076 88.9253C71.8049 89.1757 71.4748 89.2035 71.1722 88.9253C71.0896 88.8418 71.0346 88.7862 70.9521 88.7027C70.897 87.7568 71.1721 87.4786 72.025 87.5342Z" fill="#CED2D2"/>
<path d="M71.0067 91.427C70.9517 91.2602 70.9242 91.1211 70.8691 90.9542C70.9242 90.4258 71.2268 90.2033 71.7495 90.2867C72.2173 90.3702 72.3823 90.6761 72.3548 91.1489C72.3548 91.2324 72.3548 91.3436 72.3548 91.427C72.2448 91.5105 72.1347 91.5939 72.0247 91.6495C71.6395 91.8442 71.2818 91.8442 71.0067 91.427Z" fill="#CED2D2"/>
<path d="M64.5684 88.591C64.5684 88.5076 64.5684 88.4521 64.5684 88.3687C64.5959 88.0353 64.8435 88.0353 65.0911 88.0353C65.7789 88.0353 66.4392 88.0353 67.1271 88.0353C67.2921 88.0353 67.4297 88.0353 67.5948 88.0631C68.1725 88.0631 68.7778 88.0631 69.3556 88.0353C69.4932 88.0353 69.6582 88.0631 69.7958 88.0631C69.9059 88.7577 69.3831 88.5632 69.0254 88.6188C68.8879 88.6188 68.7228 88.6188 68.5852 88.6188C67.9799 88.6188 67.4022 88.6188 66.7969 88.6188C66.6593 88.6188 66.4943 88.6188 66.3567 88.591C65.7789 88.591 65.1736 88.591 64.5684 88.591Z" fill="#CED2D2"/>
<path d="M65.3398 85.3087C65.5049 85.3087 65.6425 85.3087 65.8076 85.3365C66.3853 85.3365 66.9906 85.3365 67.5684 85.3087C67.7335 85.3087 67.871 85.3087 68.0361 85.3365C68.6139 85.3365 69.2192 85.3365 69.797 85.3365C69.797 85.4199 69.8245 85.5032 69.8245 85.5866C69.7969 85.8089 69.6869 85.92 69.4668 85.92C69.3292 85.92 69.1642 85.92 69.0266 85.92C67.6785 85.92 66.3578 85.92 65.0097 85.92C64.8721 85.8923 64.7345 85.8923 64.597 85.8645C64.4869 85.1698 65.0097 85.3921 65.3398 85.3087Z" fill="#CED2D2"/>
<path d="M81.0469 91.6515C81.0469 91.5673 81.1023 91.5392 81.1578 91.5673C81.1301 91.5954 81.0746 91.6234 81.0469 91.6515Z" fill="white"/>
<path d="M76.4806 76.3258C76.5907 75.9086 76.3155 75.3801 76.6457 75.102C76.9208 74.8516 77.416 75.0742 77.8287 74.9907C77.9663 74.9907 78.1314 74.9907 78.2689 74.9907C78.6266 74.9907 78.6266 75.241 78.5991 75.4914C78.5991 76.6596 78.5991 77.8556 78.5991 79.0239C78.5991 80.2477 78.5991 80.2477 77.361 80.3034C77.3335 80.3034 77.2785 80.3034 77.251 80.3312C77.1134 80.3312 76.9483 80.3312 76.8108 80.3312C76.5631 80.3312 76.5081 80.1643 76.5081 79.9696C76.5081 79.6636 76.4806 79.3855 76.4806 79.0795C76.4806 78.9404 76.4806 78.7735 76.4806 78.6345C76.5356 78.0225 76.5356 77.4384 76.4806 76.8265C76.5081 76.604 76.5081 76.4649 76.4806 76.3258Z" fill="#A9D4B0"/>
<path d="M60.1401 77.4093C60.1126 77.2702 60.03 77.159 59.92 77.0756C59.7549 76.7418 59.5898 76.408 59.4523 76.1021C59.3972 75.9908 59.3422 75.8795 59.2872 75.7683C59.2047 75.2398 59.0121 74.7392 59.0121 74.2107C58.9845 74.0716 58.9845 73.9048 58.957 73.7657C59.0121 73.126 59.0946 72.4862 59.2597 71.8465C59.3972 71.5127 59.5348 71.179 59.6724 70.8452C60.2226 69.9552 60.938 69.2042 61.7909 68.5923C61.8734 68.5367 61.9284 68.5088 62.011 68.4532C62.0385 68.4254 62.0935 68.3976 62.121 68.3698C62.3686 68.2585 62.6438 68.1473 62.8914 68.036C63.5517 67.8413 64.212 67.73 64.8998 67.6466C65.0924 67.6466 65.2575 67.6466 65.4501 67.6744C65.8903 67.7579 66.303 67.8413 66.7432 67.9247C66.9358 68.0082 67.1284 68.0638 67.321 68.1473C67.6511 68.342 68.0088 68.5088 68.339 68.7035C68.449 68.787 68.5591 68.8704 68.6416 68.9539C68.9167 69.2042 69.1644 69.4545 69.4395 69.7048C69.522 69.7883 69.577 69.8439 69.6596 69.9274C69.8797 70.2889 70.1273 70.6783 70.3474 71.0399C70.4024 71.1512 70.4575 71.2624 70.5125 71.4015C70.65 71.8465 70.7876 72.2915 70.8977 72.7366C70.9252 72.8756 70.9252 73.0425 70.9527 73.1816C70.9252 73.7935 70.8977 74.3776 70.8701 74.9895C70.8151 75.212 70.7601 75.4345 70.7051 75.6849C70.3749 76.408 70.0448 77.1312 69.4945 77.7431C68.1464 79.2729 66.4406 79.9404 64.4596 79.857C64.267 79.8291 64.0744 79.8013 63.9094 79.7457C63.4692 79.6344 63.029 79.4954 62.5887 79.3841C62.4787 79.3285 62.3686 79.245 62.2586 79.1894C61.9284 78.9947 61.5983 78.7722 61.2681 78.5775C61.1581 78.4663 61.048 78.3828 60.938 78.2716C60.6353 77.9656 60.3877 77.6875 60.1401 77.4093Z" fill="#6AAF7D"/>
<path d="M62.0092 68.4259C61.9266 68.4816 61.8716 68.5094 61.7891 68.5651C61.8716 68.5094 61.9541 68.4537 62.0092 68.4259Z" fill="#F3F3F4"/>
<path d="M67.8712 123.347C47.3467 123.347 26.8496 123.347 6.32502 123.375C5.16948 123.375 4.92188 123.069 4.92188 121.956C4.94939 96.3114 4.94938 70.6667 4.94938 45.0221C4.94938 39.3201 9.15885 35.0646 14.8265 35.0646C50.2905 35.0646 85.7821 35.0646 121.246 35.0646C126.886 35.0646 131.096 39.2923 131.096 45.0221C131.096 70.6667 131.096 96.3114 131.123 121.956C131.123 123.124 130.821 123.375 129.72 123.375C109.085 123.319 88.4783 123.347 67.8712 123.347ZM68.1739 44.8552C50.7858 44.8552 33.4252 44.8552 16.037 44.8274C14.909 44.8274 14.6339 45.0777 14.6339 46.2459C14.6614 68.1635 14.6614 90.081 14.6339 111.971C14.6339 113.25 14.9365 113.556 16.2021 113.528C50.8133 113.501 85.4244 113.501 120.036 113.528C121.164 113.528 121.439 113.278 121.439 112.11C121.411 90.1923 121.411 68.2747 121.439 46.385C121.439 45.1055 121.136 44.7995 119.87 44.8274C102.62 44.883 85.3969 44.8552 68.1739 44.8552Z" fill="#BABABA"/>
<path d="M68.0349 142.957C48.941 142.957 29.8196 142.845 10.7257 143.012C4.78292 143.068 -1.04981 138.896 0.160755 130.079C0.353345 128.577 1.42635 128.243 2.69194 128.243C6.2411 128.243 9.76275 128.216 13.3119 128.216C24.6197 128.216 35.955 128.216 47.2627 128.188C48.2532 128.188 49.0511 128.355 49.6288 129.189C51.9124 132.527 54.9939 133.389 58.9832 133.194C66.3842 132.86 73.8401 133.083 81.2686 133.111C82.204 133.111 82.9469 132.916 83.4971 132.137C85.8082 128.744 88.9722 127.993 92.9891 128.076C105.452 128.355 117.943 128.16 130.434 128.188C134.478 128.188 136.652 130.913 135.827 134.919C134.836 139.73 130.984 142.901 126.115 142.901C106.718 142.957 87.3764 142.957 68.0349 142.957Z" fill="#BABABA"/>
<path d="M68.779 0.531448C78.1334 0.559263 85.6994 8.18041 85.6994 17.6095C85.6994 27.0942 78.0783 34.6875 68.5314 34.6597C59.232 34.6319 51.6935 26.9273 51.721 17.4704C51.7485 8.09696 59.3971 0.503634 68.779 0.531448ZM68.7515 4.92612C61.8733 4.89831 56.2331 10.5446 56.1506 17.526C56.068 24.4518 61.9283 30.3763 68.779 30.3207C75.5747 30.265 81.2974 24.4518 81.2698 17.5817C81.2423 10.6281 75.6022 4.95394 68.7515 4.92612Z" fill="#2D539D"/>
<path d="M68.8061 40.6661C81.1869 41.1668 90.7889 46.5626 97.5295 57.1596C98.3824 58.5225 98.7126 59.7741 97.2819 60.8867C96.1264 61.8045 94.7782 61.2204 93.7328 59.5238C82.0673 40.4714 55.4349 40.4436 43.7694 59.5238C42.889 60.9979 41.816 61.9158 40.2203 60.8867C38.5695 59.8298 39.0923 58.4113 39.9727 57.0484C46.7408 46.4792 56.3703 41.1112 68.8061 40.6661Z" fill="#2D539D"/>
</svg>
