<svg width="18" height="18" viewBox="0 0 18 18" fill="none" xmlns="http://www.w3.org/2000/svg">
<path d="M16.7856 5.17036C16.6246 5.036 16.4291 4.94959 16.2214 4.921C16.0137 4.89241 15.8022 4.92278 15.6109 5.00865L12.0542 6.58948L9.9834 2.86186C9.88597 2.68648 9.74342 2.54035 9.57051 2.4386C9.3976 2.33686 9.20063 2.2832 9.00001 2.2832C8.79938 2.2832 8.60241 2.33686 8.4295 2.4386C8.25659 2.54035 8.11404 2.68648 8.01662 2.86186L5.94563 6.58941L2.38845 5.00829C2.19706 4.92325 1.98573 4.89332 1.77825 4.92188C1.57077 4.95044 1.37538 5.03634 1.21408 5.16992C1.05278 5.30351 0.93197 5.47947 0.865251 5.67799C0.798533 5.87651 0.788556 6.08972 0.836444 6.29361L2.62547 13.911C2.65951 14.0584 2.72326 14.1974 2.81282 14.3194C2.90237 14.4414 3.01586 14.5439 3.14635 14.6206C3.27753 14.6978 3.42288 14.7478 3.57378 14.7678C3.72468 14.7877 3.87804 14.7771 4.02476 14.7366C7.27953 13.8381 10.7169 13.8377 13.9718 14.7357C14.1185 14.7761 14.2718 14.7867 14.4226 14.7667C14.5734 14.7468 14.7187 14.6968 14.8498 14.6196C14.9802 14.543 15.0937 14.4406 15.1832 14.3187C15.2728 14.1968 15.3366 14.0579 15.3707 13.9106L17.1629 6.29445C17.2117 6.09055 17.2022 5.87705 17.1354 5.6783C17.0687 5.47956 16.9474 5.30358 16.7855 5.17043L16.7856 5.17036Z" fill="#85565E"/>
<path d="M6.5 12.0003C7.33333 11.667 9.5 11.2003 11.5 12.0003" stroke="white" stroke-width="0.5" stroke-linecap="round"/>
</svg>
