<svg width="18" height="18" viewBox="0 0 18 18" fill="none" xmlns="http://www.w3.org/2000/svg">
<path d="M9.00028 1.44629C12.4621 1.44629 15.2681 4.25236 15.2681 7.71415C15.2681 10.3627 13.4071 13.2491 9.73314 16.4043C9.52885 16.5798 9.26839 16.6762 8.99908 16.6759C8.72976 16.6757 8.46947 16.5789 8.26549 16.403L8.02249 16.1921C4.51121 13.1193 2.73242 10.3036 2.73242 7.71415C2.73242 4.25236 5.53849 1.44629 9.00028 1.44629ZM9.00028 2.41057C7.59368 2.41057 6.2447 2.96934 5.25009 3.96395C4.25548 4.95857 3.69671 6.30755 3.69671 7.71415C3.69671 9.96543 5.33471 12.5594 8.65571 15.4651L8.89549 15.6727C8.92465 15.6978 8.96183 15.7116 9.00028 15.7116C9.03873 15.7116 9.07591 15.6978 9.10506 15.6727C12.5868 12.6821 14.3038 10.0188 14.3038 7.71415C14.3038 7.01767 14.1667 6.32802 13.9001 5.68456C13.6336 5.0411 13.243 4.45644 12.7505 3.96395C12.258 3.47147 11.6733 3.08081 11.0299 2.81429C10.3864 2.54776 9.69675 2.41057 9.00028 2.41057ZM9.00028 5.30343C9.63964 5.30343 10.2528 5.55742 10.7049 6.00951C11.157 6.46161 11.411 7.07479 11.411 7.71415C11.411 8.35351 11.157 8.96668 10.7049 9.41878C10.2528 9.87088 9.63964 10.1249 9.00028 10.1249C8.36092 10.1249 7.74774 9.87088 7.29565 9.41878C6.84355 8.96668 6.58956 8.35351 6.58956 7.71415C6.58956 7.07479 6.84355 6.46161 7.29565 6.00951C7.74774 5.55742 8.36092 5.30343 9.00028 5.30343ZM9.00028 6.26772C8.61666 6.26772 8.24876 6.42011 7.9775 6.69137C7.70624 6.96263 7.55385 7.33053 7.55385 7.71415C7.55385 8.09776 7.70624 8.46567 7.9775 8.73693C8.24876 9.00818 8.61666 9.16058 9.00028 9.16058C9.38389 9.16058 9.7518 9.00818 10.0231 8.73693C10.2943 8.46567 10.4467 8.09776 10.4467 7.71415C10.4467 7.33053 10.2943 6.96263 10.0231 6.69137C9.7518 6.42011 9.38389 6.26772 9.00028 6.26772Z" fill="#36919D"/>
</svg>
